M48
; DRILL file {KiCad 5.1.5+dfsg1-2build2} date Tue 02 Mar 2021 19:33:10 GMT
; FORMAT={-:-/ absolute / metric / decimal}
; #@! TF.CreationDate,2021-03-02T19:33:10+00:00
; #@! TF.GenerationSoftware,Kicad,Pcbnew,5.1.5+dfsg1-2build2
; #@! TF.FileFunction,Plated,1,2,PTH
FMAT,2
METRIC
T1C0.400
T2C1.092
T3C1.200
T4C1.300
%
G90
G05
T1
X202.615Y-178.049
X202.615Y-175.498
X206.89Y-176.722
X207.64Y-179.299
X216.85Y-179.299
X217.59Y-176.747
X221.89Y-178.049
X221.89Y-175.498
T2
X204.63Y-152.615
X204.63Y-155.155
X204.63Y-157.695
X204.63Y-160.235
X204.63Y-162.775
X204.63Y-165.315
X204.63Y-167.855
X204.63Y-170.395
X204.63Y-172.935
X204.63Y-175.475
X204.63Y-178.015
X204.63Y-180.555
X219.87Y-152.615
X219.87Y-155.155
X219.87Y-157.695
X219.87Y-160.235
X219.87Y-162.775
X219.87Y-165.315
X219.87Y-167.855
X219.87Y-170.395
X219.87Y-172.935
X219.87Y-175.475
X219.87Y-178.015
X219.87Y-180.555
T3
X283.435Y-188.575
X288.858Y-188.602
X292.674Y-184.749
X348.213Y-151.461
X353.636Y-151.488
X357.452Y-147.634
X64.217Y-106.396
X68.033Y-110.25
X73.456Y-110.223
X117.825Y-122.146
X121.64Y-125.999
X127.063Y-125.972
X254.115Y-214.294
X258.825Y-211.606
X260.203Y-206.361
X123.426Y-156.921
X127.242Y-160.775
X132.665Y-160.748
X112.532Y-180.889
X117.215Y-183.624
X122.447Y-182.195
X130.067Y-140.696
X133.883Y-144.55
X139.306Y-144.523
X84.267Y-154.746
X88.083Y-158.6
X93.506Y-158.573
X310.922Y-158.248
X316.345Y-158.275
X320.161Y-154.421
X304.225Y-142.08
X309.648Y-142.107
X313.464Y-138.254
X136.817Y-124.546
X140.633Y-128.4
X146.056Y-128.373
X66.317Y-88.296
X70.133Y-92.15
X75.556Y-92.123
X162.302Y-159.472
X166.117Y-163.326
X171.54Y-163.299
X73.803Y-131.485
X77.619Y-135.339
X83.042Y-135.312
X341.516Y-135.293
X346.939Y-135.32
X350.755Y-131.466
X270.041Y-156.24
X275.464Y-156.266
X279.28Y-152.413
X252.95Y-163.319
X258.373Y-163.346
X262.188Y-159.492
X90.958Y-138.569
X94.773Y-142.423
X100.196Y-142.396
X80.525Y-115.346
X84.34Y-119.199
X89.763Y-119.172
X297.528Y-125.912
X302.951Y-125.939
X306.767Y-122.086
X97.642Y-122.446
X101.458Y-126.3
X106.881Y-126.273
X263.344Y-140.072
X268.767Y-140.098
X272.583Y-136.245
X291.917Y-160.708
X297.34Y-160.735
X301.155Y-156.882
X331.075Y-158.56
X336.498Y-158.586
X340.314Y-154.733
X276.738Y-172.408
X282.161Y-172.434
X285.977Y-168.581
X57.499Y-122.556
X61.314Y-126.41
X66.737Y-126.383
X259.647Y-179.487
X265.07Y-179.514
X268.885Y-175.66
X351.099Y-110.217
X356.522Y-110.244
X360.338Y-106.39
X151.98Y-136.277
X155.796Y-140.131
X161.219Y-140.104
X67.117Y-147.646
X70.933Y-151.5
X76.356Y-151.473
X155.625Y-175.671
X159.44Y-179.524
X164.863Y-179.497
X278.523Y-128.373
X283.946Y-128.399
X287.762Y-124.546
X349.003Y-92.089
X354.426Y-92.116
X358.241Y-88.262
X317.681Y-126.224
X323.104Y-126.251
X326.92Y-122.397
X169.067Y-143.321
X172.883Y-147.175
X178.306Y-147.148
X164.363Y-206.404
X165.74Y-211.649
X170.45Y-214.337
X334.819Y-119.125
X340.242Y-119.152
X344.058Y-115.298
X324.378Y-142.392
X329.801Y-142.418
X333.617Y-138.565
X138.617Y-168.596
X142.433Y-172.45
X147.856Y-172.423
X357.796Y-126.385
X363.219Y-126.411
X367.035Y-122.558
X104.373Y-154.426
X108.189Y-158.28
X113.612Y-158.253
X111.075Y-138.246
X114.89Y-142.1
X120.313Y-142.073
X149.56Y-193.42
X152.249Y-198.13
X157.494Y-199.508
X145.263Y-152.415
X149.079Y-156.269
X154.502Y-156.242
X131.917Y-184.746
X135.733Y-188.6
X141.156Y-188.573
X267.087Y-199.53
X272.332Y-198.152
X275.02Y-193.443
X302.066Y-182.24
X307.297Y-183.669
X311.98Y-180.935
X285.22Y-144.541
X290.643Y-144.567
X294.459Y-140.714
X246.253Y-147.151
X251.676Y-147.178
X255.491Y-143.325
T4
X208.99Y-183.799
X215.49Y-183.799
T0
M30
