G04 #@! TF.GenerationSoftware,KiCad,Pcbnew,5.1.5+dfsg1-2build2*
G04 #@! TF.CreationDate,2021-03-02T19:33:05+00:00*
G04 #@! TF.ProjectId,rev1,72657631-2e6b-4696-9361-645f70636258,rev?*
G04 #@! TF.SameCoordinates,Original*
G04 #@! TF.FileFunction,Profile,NP*
%FSLAX46Y46*%
G04 Gerber Fmt 4.6, Leading zero omitted, Abs format (unit mm)*
G04 Created by KiCad (PCBNEW 5.1.5+dfsg1-2build2) date 2021-03-02 19:33:05*
%MOMM*%
%LPD*%
G04 APERTURE LIST*
%ADD10C,0.100000*%
G04 APERTURE END LIST*
D10*
X345008466Y-47495204D02*
X345008466Y-47495204D01*
X345177799Y-47492293D02*
X345008466Y-47495204D01*
X345537632Y-47491235D02*
X345177799Y-47492293D01*
X346262590Y-47515312D02*
X345537632Y-47491235D01*
X346961089Y-47548385D02*
X346262590Y-47515312D01*
X347633130Y-47591247D02*
X346961089Y-47548385D01*
X348281358Y-47643899D02*
X347633130Y-47591247D01*
X348908420Y-47706606D02*
X348281358Y-47643899D01*
X349511669Y-47779895D02*
X348908420Y-47706606D01*
X350099043Y-47864297D02*
X349511669Y-47779895D01*
X350667897Y-47960076D02*
X350099043Y-47864297D01*
X351220875Y-48067232D02*
X350667897Y-47960076D01*
X351760624Y-48186559D02*
X351220875Y-48067232D01*
X352287145Y-48318057D02*
X351760624Y-48186559D01*
X352805727Y-48462519D02*
X352287145Y-48318057D01*
X353313727Y-48619681D02*
X352805727Y-48462519D01*
X353816434Y-48790337D02*
X353313727Y-48619681D01*
X354313850Y-48975016D02*
X353816434Y-48790337D01*
X354808621Y-49173454D02*
X354313850Y-48975016D01*
X355303391Y-49386443D02*
X354808621Y-49173454D01*
X355795515Y-49614249D02*
X355303391Y-49386443D01*
X356292931Y-49857136D02*
X355795515Y-49614249D01*
X356792993Y-50115634D02*
X356292931Y-49857136D01*
X357298347Y-50389742D02*
X356792993Y-50115634D01*
X357811638Y-50680254D02*
X357298347Y-50389742D01*
X358332866Y-50987435D02*
X357811638Y-50680254D01*
X358867324Y-51311284D02*
X358332866Y-50987435D01*
X359412365Y-51652596D02*
X358867324Y-51311284D01*
X359973281Y-52011371D02*
X359412365Y-51652596D01*
X360552718Y-52388137D02*
X359973281Y-52011371D01*
X361148029Y-52783160D02*
X360552718Y-52388137D01*
X362399507Y-53629561D02*
X361148029Y-52783160D01*
X363746234Y-54553220D02*
X362399507Y-53629561D01*
X363801797Y-54593172D02*
X363746234Y-54553220D01*
X363846776Y-54646353D02*
X363801797Y-54593172D01*
X364301859Y-55198802D02*
X363846776Y-54646353D01*
X364749004Y-55749664D02*
X364301859Y-55198802D01*
X365190857Y-56300526D02*
X364749004Y-55749664D01*
X365624774Y-56853504D02*
X365190857Y-56300526D01*
X366048106Y-57409922D02*
X365624774Y-56853504D01*
X366463502Y-57971897D02*
X366048106Y-57409922D01*
X366870960Y-58541015D02*
X366463502Y-57971897D01*
X367267834Y-59119129D02*
X366870960Y-58541015D01*
X367654125Y-59708090D02*
X367267834Y-59119129D01*
X367844625Y-60007069D02*
X367654125Y-59708090D01*
X368032479Y-60309223D02*
X367844625Y-60007069D01*
X368215041Y-60615081D02*
X368032479Y-60309223D01*
X368397603Y-60924643D02*
X368215041Y-60615081D01*
X368574874Y-61238438D02*
X368397603Y-60924643D01*
X368749499Y-61556203D02*
X368574874Y-61238438D01*
X368921478Y-61878465D02*
X368749499Y-61556203D01*
X369090811Y-62205489D02*
X368921478Y-61878465D01*
X369257498Y-62537276D02*
X369090811Y-62205489D01*
X369418894Y-62874091D02*
X369257498Y-62537276D01*
X369577644Y-63216461D02*
X369418894Y-62874091D01*
X369733748Y-63564123D02*
X369577644Y-63216461D01*
X369887206Y-63917871D02*
X369733748Y-63564123D01*
X370035372Y-64277174D02*
X369887206Y-63917871D01*
X370180893Y-64643093D02*
X370035372Y-64277174D01*
X370323768Y-65015096D02*
X370180893Y-64643093D01*
X370461351Y-65393714D02*
X370323768Y-65015096D01*
X370596288Y-65779476D02*
X370461351Y-65393714D01*
X370725934Y-66172118D02*
X370596288Y-65779476D01*
X370852934Y-66572167D02*
X370725934Y-66172118D01*
X370977288Y-66979625D02*
X370852934Y-66572167D01*
X371096350Y-67394756D02*
X370977288Y-66979625D01*
X371210121Y-67818089D02*
X371096350Y-67394756D01*
X371321246Y-68249359D02*
X371210121Y-67818089D01*
X371427079Y-68689096D02*
X371321246Y-68249359D01*
X371530266Y-69137564D02*
X371427079Y-68689096D01*
X371628162Y-69594763D02*
X371530266Y-69137564D01*
X371723412Y-70060959D02*
X371628162Y-69594763D01*
X371813370Y-70536679D02*
X371723412Y-70060959D01*
X371898037Y-71021659D02*
X371813370Y-70536679D01*
X371977411Y-71516430D02*
X371898037Y-71021659D01*
X372054141Y-72021254D02*
X371977411Y-71516430D01*
X372125578Y-72536133D02*
X372054141Y-72021254D01*
X372191724Y-73061330D02*
X372125578Y-72536133D01*
X372255224Y-73597110D02*
X372191724Y-73061330D01*
X372310786Y-74143739D02*
X372255224Y-73597110D01*
X372363703Y-74701480D02*
X372310786Y-74143739D01*
X372411328Y-75270333D02*
X372363703Y-74701480D01*
X372453661Y-75850828D02*
X372411328Y-75270333D01*
X372490702Y-76442965D02*
X372453661Y-75850828D01*
X372522452Y-77047008D02*
X372490702Y-76442965D01*
X372548911Y-77663222D02*
X372522452Y-77047008D01*
X372570077Y-78291607D02*
X372548911Y-77663222D01*
X372585952Y-78932691D02*
X372570077Y-78291607D01*
X372596536Y-79586740D02*
X372585952Y-78932691D01*
X372601827Y-80253490D02*
X372596536Y-79586740D01*
X372601827Y-80300585D02*
X372601827Y-80253490D01*
X372593890Y-80347152D02*
X372601827Y-80300585D01*
X372181140Y-82547953D02*
X372593890Y-80347152D01*
X371871578Y-84184399D02*
X372181140Y-82547953D01*
X371752516Y-84816488D02*
X371871578Y-84184399D01*
X371659912Y-85338510D02*
X371752516Y-84816488D01*
X371591120Y-85760785D02*
X371659912Y-85338510D01*
X371546141Y-86093365D02*
X371591120Y-85760785D01*
X371532912Y-86228038D02*
X371546141Y-86093365D01*
X371524975Y-86341544D02*
X371532912Y-86228038D01*
X371522329Y-86509819D02*
X371524975Y-86341544D01*
X371530266Y-86608773D02*
X371522329Y-86509819D01*
X371538204Y-86648990D02*
X371530266Y-86608773D01*
X371548787Y-86665659D02*
X371538204Y-86648990D01*
X371575245Y-86694763D02*
X371548787Y-86665659D01*
X371736641Y-86837637D02*
X371575245Y-86694763D01*
X371741933Y-86842665D02*
X371736641Y-86837637D01*
X371747224Y-86848485D02*
X371741933Y-86842665D01*
X371900682Y-86993741D02*
X371747224Y-86848485D01*
X372051495Y-87147464D02*
X371900682Y-86993741D01*
X372204953Y-87309389D02*
X372051495Y-87147464D01*
X372358411Y-87479516D02*
X372204953Y-87309389D01*
X372509223Y-87657316D02*
X372358411Y-87479516D01*
X372662681Y-87843053D02*
X372509223Y-87657316D01*
X372816140Y-88036463D02*
X372662681Y-87843053D01*
X372966952Y-88237282D02*
X372816140Y-88036463D01*
X373117764Y-88445508D02*
X372966952Y-88237282D01*
X373268576Y-88660879D02*
X373117764Y-88445508D01*
X373419389Y-88883129D02*
X373268576Y-88660879D01*
X373570201Y-89112258D02*
X373419389Y-88883129D01*
X373718368Y-89348001D02*
X373570201Y-89112258D01*
X373866534Y-89590359D02*
X373718368Y-89348001D01*
X374012055Y-89839067D02*
X373866534Y-89590359D01*
X374157575Y-90094125D02*
X374012055Y-89839067D01*
X374300450Y-90355004D02*
X374157575Y-90094125D01*
X374440679Y-90621968D02*
X374300450Y-90355004D01*
X374580908Y-90894753D02*
X374440679Y-90621968D01*
X374721137Y-91172830D02*
X374580908Y-90894753D01*
X374856074Y-91456727D02*
X374721137Y-91172830D01*
X374991012Y-91745652D02*
X374856074Y-91456727D01*
X375123303Y-92039604D02*
X374991012Y-91745652D01*
X375252949Y-92338847D02*
X375123303Y-92039604D01*
X375379949Y-92642588D02*
X375252949Y-92338847D01*
X375506949Y-92951092D02*
X375379949Y-92642588D01*
X375628657Y-93264094D02*
X375506949Y-92951092D01*
X375747719Y-93581594D02*
X375628657Y-93264094D01*
X375864136Y-93903062D02*
X375747719Y-93581594D01*
X375977906Y-94228764D02*
X375864136Y-93903062D01*
X376089031Y-94558169D02*
X375977906Y-94228764D01*
X376194864Y-94891279D02*
X376089031Y-94558169D01*
X376208094Y-94927527D02*
X376194864Y-94891279D01*
X376213385Y-94964833D02*
X376208094Y-94927527D01*
X376337739Y-95784512D02*
X376213385Y-94964833D01*
X376454156Y-96612392D02*
X376337739Y-95784512D01*
X376559989Y-97449532D02*
X376454156Y-96612392D01*
X376655239Y-98295669D02*
X376559989Y-97449532D01*
X376737260Y-99151595D02*
X376655239Y-98295669D01*
X376771655Y-99583394D02*
X376737260Y-99151595D01*
X376803405Y-100017575D02*
X376771655Y-99583394D01*
X376829864Y-100454666D02*
X376803405Y-100017575D01*
X376853676Y-100894139D02*
X376829864Y-100454666D01*
X376869551Y-101336521D02*
X376853676Y-100894139D01*
X376882780Y-101781814D02*
X376869551Y-101336521D01*
X376890718Y-102229753D02*
X376882780Y-101781814D01*
X376890718Y-102680603D02*
X376890718Y-102229753D01*
X376888072Y-103134363D02*
X376890718Y-102680603D01*
X376877489Y-103591298D02*
X376888072Y-103134363D01*
X376861614Y-104051143D02*
X376877489Y-103591298D01*
X376837801Y-104514163D02*
X376861614Y-104051143D01*
X376808697Y-104980358D02*
X376837801Y-104514163D01*
X376771655Y-105449729D02*
X376808697Y-104980358D01*
X376729322Y-105922274D02*
X376771655Y-105449729D01*
X376676406Y-106398259D02*
X376729322Y-105922274D01*
X376618197Y-106877418D02*
X376676406Y-106398259D01*
X376552052Y-107360282D02*
X376618197Y-106877418D01*
X376477968Y-107846321D02*
X376552052Y-107360282D01*
X376393302Y-108336065D02*
X376477968Y-107846321D01*
X376303343Y-108829247D02*
X376393302Y-108336065D01*
X376200156Y-109326134D02*
X376303343Y-108829247D01*
X376197510Y-109332220D02*
X376200156Y-109326134D01*
X374205200Y-117681665D02*
X376197510Y-109332220D01*
X374580908Y-118259779D02*
X374205200Y-117681665D01*
X374919574Y-118798206D02*
X374580908Y-118259779D01*
X375221199Y-119304353D02*
X374919574Y-118798206D01*
X375491074Y-119784836D02*
X375221199Y-119304353D01*
X375615428Y-120017404D02*
X375491074Y-119784836D01*
X375734490Y-120246268D02*
X375615428Y-120017404D01*
X375845615Y-120472222D02*
X375734490Y-120246268D01*
X375951448Y-120696059D02*
X375845615Y-120472222D01*
X376051990Y-120918574D02*
X375951448Y-120696059D01*
X376147240Y-121140559D02*
X376051990Y-120918574D01*
X376239844Y-121363338D02*
X376147240Y-121140559D01*
X376327156Y-121587175D02*
X376239844Y-121363338D01*
X376411823Y-121813129D02*
X376327156Y-121587175D01*
X376491197Y-122042258D02*
X376411823Y-121813129D01*
X376644656Y-122512951D02*
X376491197Y-122042258D01*
X376790176Y-123006134D02*
X376644656Y-122512951D01*
X376933051Y-123528685D02*
X376790176Y-123006134D01*
X377073280Y-124087484D02*
X376933051Y-123528685D01*
X377218801Y-124689146D02*
X377073280Y-124087484D01*
X377528363Y-126049632D02*
X377218801Y-124689146D01*
X377536300Y-126087467D02*
X377528363Y-126049632D01*
X377538946Y-126125567D02*
X377536300Y-126087467D01*
X377570696Y-126646796D02*
X377538946Y-126125567D01*
X377591863Y-127175962D02*
X377570696Y-126646796D01*
X377602446Y-127713330D02*
X377591863Y-127175962D01*
X377605092Y-128257842D02*
X377602446Y-127713330D01*
X377597154Y-128809233D02*
X377605092Y-128257842D01*
X377578634Y-129367238D02*
X377597154Y-128809233D01*
X377546884Y-129931329D02*
X377578634Y-129367238D01*
X377504550Y-130500712D02*
X377546884Y-129931329D01*
X377446342Y-131075386D02*
X377504550Y-130500712D01*
X377377550Y-131654558D02*
X377446342Y-131075386D01*
X377292884Y-132238228D02*
X377377550Y-131654558D01*
X377194988Y-132825338D02*
X377292884Y-132238228D01*
X377081218Y-133415623D02*
X377194988Y-132825338D01*
X376951572Y-134009082D02*
X377081218Y-133415623D01*
X376880134Y-134306473D02*
X376951572Y-134009082D01*
X376803405Y-134604659D02*
X376880134Y-134306473D01*
X376724030Y-134903108D02*
X376803405Y-134604659D01*
X376642010Y-135202087D02*
X376724030Y-134903108D01*
X376552052Y-135501330D02*
X376642010Y-135202087D01*
X376459447Y-135801103D02*
X376552052Y-135501330D01*
X376361552Y-136100875D02*
X376459447Y-135801103D01*
X376261010Y-136400913D02*
X376361552Y-136100875D01*
X376152531Y-136701214D02*
X376261010Y-136400913D01*
X376041406Y-137001516D02*
X376152531Y-136701214D01*
X375924990Y-137301818D02*
X376041406Y-137001516D01*
X375803282Y-137602119D02*
X375924990Y-137301818D01*
X375676282Y-137902156D02*
X375803282Y-137602119D01*
X375546636Y-138202194D02*
X375676282Y-137902156D01*
X375409053Y-138501966D02*
X375546636Y-138202194D01*
X375266178Y-138801474D02*
X375409053Y-138501966D01*
X375118012Y-139100717D02*
X375266178Y-138801474D01*
X374967199Y-139399696D02*
X375118012Y-139100717D01*
X374808450Y-139698146D02*
X374967199Y-139399696D01*
X374644408Y-139996066D02*
X374808450Y-139698146D01*
X374475075Y-140293458D02*
X374644408Y-139996066D01*
X374300450Y-140590055D02*
X374475075Y-140293458D01*
X374120534Y-140886124D02*
X374300450Y-140590055D01*
X373932680Y-141181663D02*
X374120534Y-140886124D01*
X373739534Y-141476144D02*
X373932680Y-141181663D01*
X373541097Y-141769831D02*
X373739534Y-141476144D01*
X373337368Y-142062724D02*
X373541097Y-141769831D01*
X373125702Y-142354824D02*
X373337368Y-142062724D01*
X372908744Y-142645600D02*
X373125702Y-142354824D01*
X372686494Y-142935319D02*
X372908744Y-142645600D01*
X372456307Y-143224244D02*
X372686494Y-142935319D01*
X372220828Y-143511845D02*
X372456307Y-143224244D01*
X371977411Y-143798124D02*
X372220828Y-143511845D01*
X371728703Y-144083080D02*
X371977411Y-143798124D01*
X371474704Y-144366713D02*
X371728703Y-144083080D01*
X371210121Y-144649023D02*
X371474704Y-144366713D01*
X371207475Y-144650081D02*
X371210121Y-144649023D01*
X371093704Y-144770202D02*
X371207475Y-144650081D01*
X370974642Y-144889264D02*
X371093704Y-144770202D01*
X370723288Y-145125272D02*
X370974642Y-144889264D01*
X370453413Y-145357841D02*
X370723288Y-145125272D01*
X370175601Y-145587499D02*
X370453413Y-145357841D01*
X369887206Y-145813717D02*
X370175601Y-145587499D01*
X369598810Y-146037025D02*
X369887206Y-145813717D01*
X369029957Y-146474646D02*
X369598810Y-146037025D01*
X368757436Y-146691339D02*
X369029957Y-146474646D01*
X368503437Y-146905651D02*
X368757436Y-146691339D01*
X368270604Y-147113614D02*
X368503437Y-146905651D01*
X368061583Y-147310463D02*
X368270604Y-147113614D01*
X367884312Y-147491967D02*
X368061583Y-147310463D01*
X367741438Y-147653892D02*
X367884312Y-147491967D01*
X367683229Y-147725859D02*
X367741438Y-147653892D01*
X367635604Y-147791475D02*
X367683229Y-147725859D01*
X367601209Y-147849684D02*
X367635604Y-147791475D01*
X367574750Y-147900483D02*
X367601209Y-147849684D01*
X367397480Y-148374616D02*
X367574750Y-147900483D01*
X367236084Y-148815676D02*
X367397480Y-148374616D01*
X366955626Y-149621331D02*
X367236084Y-148815676D01*
X366825980Y-149997568D02*
X366955626Y-149621331D01*
X366696335Y-150364016D02*
X366825980Y-149997568D01*
X366561397Y-150726494D02*
X366696335Y-150364016D01*
X366415877Y-151090561D02*
X366561397Y-150726494D01*
X366257127Y-151462300D02*
X366415877Y-151090561D01*
X366077211Y-151847268D02*
X366257127Y-151462300D01*
X365870836Y-152251551D02*
X366077211Y-151847268D01*
X365638003Y-152680969D02*
X365870836Y-152251551D01*
X365368128Y-153141079D02*
X365638003Y-152680969D01*
X365058566Y-153637701D02*
X365368128Y-153141079D01*
X364704025Y-154177186D02*
X365058566Y-153637701D01*
X364301859Y-154764560D02*
X364704025Y-154177186D01*
X364301859Y-154765619D02*
X364301859Y-154764560D01*
X364166921Y-154951091D02*
X364301859Y-154765619D01*
X364026692Y-155135506D02*
X364166921Y-154951091D01*
X363878526Y-155319655D02*
X364026692Y-155135506D01*
X363722422Y-155503011D02*
X363878526Y-155319655D01*
X363558380Y-155685838D02*
X363722422Y-155503011D01*
X363391693Y-155868136D02*
X363558380Y-155685838D01*
X363039798Y-156230879D02*
X363391693Y-155868136D01*
X362672027Y-156591241D02*
X363039798Y-156230879D01*
X362293674Y-156948957D02*
X362672027Y-156591241D01*
X361523737Y-157657511D02*
X362293674Y-156948957D01*
X360804071Y-158323202D02*
X361523737Y-157657511D01*
X360460113Y-158648903D02*
X360804071Y-158323202D01*
X360134676Y-158967990D02*
X360460113Y-158648903D01*
X359830406Y-159279405D02*
X360134676Y-158967990D01*
X359549948Y-159581558D02*
X359830406Y-159279405D01*
X359420302Y-159728931D02*
X359549948Y-159581558D01*
X359298594Y-159873393D02*
X359420302Y-159728931D01*
X359187469Y-160014945D02*
X359298594Y-159873393D01*
X359081636Y-160153587D02*
X359187469Y-160014945D01*
X359084282Y-160468970D02*
X359081636Y-160153587D01*
X359094865Y-160815838D02*
X359084282Y-160468970D01*
X359113386Y-161191810D02*
X359094865Y-160815838D01*
X359137198Y-161594241D02*
X359113386Y-161191810D01*
X359190115Y-162467630D02*
X359137198Y-161594241D01*
X359216573Y-162933031D02*
X359190115Y-162467630D01*
X359237740Y-163414308D02*
X359216573Y-162933031D01*
X359253615Y-163930774D02*
X359237740Y-163414308D01*
X359258907Y-164455177D02*
X359253615Y-163930774D01*
X359256261Y-164719496D02*
X359258907Y-164455177D01*
X359250969Y-164984343D02*
X359256261Y-164719496D01*
X359240386Y-165249455D02*
X359250969Y-164984343D01*
X359224511Y-165514832D02*
X359240386Y-165249455D01*
X359200698Y-165779415D02*
X359224511Y-165514832D01*
X359174240Y-166043469D02*
X359200698Y-165779415D01*
X359142490Y-166306200D02*
X359174240Y-166043469D01*
X359100157Y-166567343D02*
X359142490Y-166306200D01*
X359055178Y-166826370D02*
X359100157Y-166567343D01*
X358999615Y-167083016D02*
X359055178Y-166826370D01*
X358936115Y-167337015D02*
X358999615Y-167083016D01*
X358867324Y-167587575D02*
X358936115Y-167337015D01*
X358867324Y-167588104D02*
X358867324Y-167587575D01*
X358764136Y-167916981D02*
X358867324Y-167588104D01*
X358653012Y-168245858D02*
X358764136Y-167916981D01*
X358536595Y-168574734D02*
X358653012Y-168245858D01*
X358412241Y-168903082D02*
X358536595Y-168574734D01*
X358285241Y-169230900D02*
X358412241Y-168903082D01*
X358150304Y-169557396D02*
X358285241Y-169230900D01*
X358010075Y-169882568D02*
X358150304Y-169557396D01*
X357867200Y-170206153D02*
X358010075Y-169882568D01*
X357719034Y-170527622D02*
X357867200Y-170206153D01*
X357568221Y-170846973D02*
X357719034Y-170527622D01*
X357412117Y-171163679D02*
X357568221Y-170846973D01*
X357253367Y-171477210D02*
X357412117Y-171163679D01*
X356927930Y-172094482D02*
X357253367Y-171477210D01*
X356597202Y-172696144D02*
X356927930Y-172094482D01*
X356258535Y-173279814D02*
X356597202Y-172696144D01*
X355919869Y-173842847D02*
X356258535Y-173279814D01*
X355581203Y-174382861D02*
X355919869Y-173842847D01*
X355247828Y-174896945D02*
X355581203Y-174382861D01*
X354922391Y-175383249D02*
X355247828Y-174896945D01*
X354607537Y-175838596D02*
X354922391Y-175383249D01*
X354305913Y-176260871D02*
X354607537Y-175838596D01*
X354020163Y-176647691D02*
X354305913Y-176260871D01*
X354020163Y-176649278D02*
X354020163Y-176647691D01*
X353829663Y-176895076D02*
X354020163Y-176649278D01*
X353588893Y-177185588D02*
X353829663Y-176895076D01*
X353305789Y-177512348D02*
X353588893Y-177185588D01*
X352990935Y-177866096D02*
X353305789Y-177512348D01*
X352649623Y-178237835D02*
X352990935Y-177866096D01*
X352295082Y-178619099D02*
X352649623Y-178237835D01*
X351929958Y-179000628D02*
X352295082Y-178619099D01*
X351567479Y-179373425D02*
X351929958Y-179000628D01*
X351567479Y-179374483D02*
X351567479Y-179373425D01*
X351567479Y-179375542D02*
X351567479Y-179374483D01*
X351109750Y-179836181D02*
X351567479Y-179375542D01*
X350702292Y-180252105D02*
X351109750Y-179836181D01*
X350345105Y-180625961D02*
X350702292Y-180252105D01*
X350032897Y-180960923D02*
X350345105Y-180625961D01*
X349765669Y-181259373D02*
X350032897Y-180960923D01*
X349540773Y-181524220D02*
X349765669Y-181259373D01*
X349355565Y-181758112D02*
X349540773Y-181524220D01*
X349210044Y-181964222D02*
X349355565Y-181758112D01*
X349096274Y-182141228D02*
X349210044Y-181964222D01*
X349011607Y-182291511D02*
X349096274Y-182141228D01*
X348979857Y-182358980D02*
X349011607Y-182291511D01*
X348956045Y-182422480D02*
X348979857Y-182358980D01*
X348934878Y-182483069D02*
X348956045Y-182422480D01*
X348921649Y-182541542D02*
X348934878Y-182483069D01*
X348911066Y-182598692D02*
X348921649Y-182541542D01*
X348905774Y-182655842D02*
X348911066Y-182598692D01*
X348905774Y-182713256D02*
X348905774Y-182655842D01*
X348908420Y-182772523D02*
X348905774Y-182713256D01*
X348926940Y-182898994D02*
X348908420Y-182772523D01*
X348979857Y-183158285D02*
X348926940Y-182898994D01*
X349001024Y-183286078D02*
X348979857Y-183158285D01*
X349016899Y-183413872D02*
X349001024Y-183286078D01*
X349027482Y-183542195D02*
X349016899Y-183413872D01*
X349032774Y-183670518D02*
X349027482Y-183542195D01*
X349032774Y-183799369D02*
X349032774Y-183670518D01*
X349027482Y-183928221D02*
X349032774Y-183799369D01*
X349016899Y-184057338D02*
X349027482Y-183928221D01*
X348998378Y-184186719D02*
X349016899Y-184057338D01*
X348977211Y-184316365D02*
X348998378Y-184186719D01*
X348948107Y-184446010D02*
X348977211Y-184316365D01*
X348911066Y-184576185D02*
X348948107Y-184446010D01*
X348871378Y-184706095D02*
X348911066Y-184576185D01*
X348823753Y-184836535D02*
X348871378Y-184706095D01*
X348768191Y-184966974D02*
X348823753Y-184836535D01*
X348709982Y-185097678D02*
X348768191Y-184966974D01*
X348643837Y-185228911D02*
X348709982Y-185097678D01*
X348572399Y-185360938D02*
X348643837Y-185228911D01*
X348493024Y-185494024D02*
X348572399Y-185360938D01*
X348411004Y-185628696D02*
X348493024Y-185494024D01*
X348225796Y-185903598D02*
X348411004Y-185628696D01*
X348016775Y-186187496D02*
X348225796Y-185903598D01*
X347781296Y-186482770D02*
X348016775Y-186187496D01*
X347519359Y-186791539D02*
X347781296Y-186482770D01*
X347230963Y-187116182D02*
X347519359Y-186791539D01*
X346916110Y-187458817D02*
X347230963Y-187116182D01*
X346659464Y-187733719D02*
X346916110Y-187458817D01*
X346400173Y-188000683D02*
X346659464Y-187733719D01*
X346140881Y-188260768D02*
X346400173Y-188000683D01*
X345878944Y-188513709D02*
X346140881Y-188260768D01*
X345611715Y-188760565D02*
X345878944Y-188513709D01*
X345344487Y-189001336D02*
X345611715Y-188760565D01*
X345071966Y-189236815D02*
X345344487Y-189001336D01*
X344791508Y-189467002D02*
X345071966Y-189236815D01*
X344508404Y-189692691D02*
X344791508Y-189467002D01*
X344217363Y-189914412D02*
X344508404Y-189692691D01*
X343918384Y-190132164D02*
X344217363Y-189914412D01*
X343611468Y-190346740D02*
X343918384Y-190132164D01*
X343296614Y-190558407D02*
X343611468Y-190346740D01*
X342971177Y-190767692D02*
X343296614Y-190558407D01*
X342637803Y-190974860D02*
X342971177Y-190767692D01*
X342291199Y-191180441D02*
X342637803Y-190974860D01*
X341931366Y-191384964D02*
X342291199Y-191180441D01*
X341563596Y-191588958D02*
X341931366Y-191384964D01*
X341179950Y-191792686D02*
X341563596Y-191588958D01*
X340780430Y-191996415D02*
X341179950Y-191792686D01*
X340370326Y-192200938D02*
X340780430Y-191996415D01*
X339941702Y-192406519D02*
X340370326Y-192200938D01*
X339497202Y-192613423D02*
X339941702Y-192406519D01*
X339036828Y-192822444D02*
X339497202Y-192613423D01*
X338560579Y-193033845D02*
X339036828Y-192822444D01*
X338063163Y-193247893D02*
X338560579Y-193033845D01*
X337547226Y-193465380D02*
X338063163Y-193247893D01*
X337012768Y-193686307D02*
X337547226Y-193465380D01*
X335880353Y-194141125D02*
X337012768Y-193686307D01*
X334660625Y-194616052D02*
X335880353Y-194141125D01*
X334660625Y-194616052D02*
X334660625Y-194616052D01*
X334660625Y-194616581D02*
X334660625Y-194616052D01*
X333443543Y-195079072D02*
X334660625Y-194616581D01*
X332321711Y-195492880D02*
X333443543Y-195079072D01*
X331789900Y-195682850D02*
X332321711Y-195492880D01*
X331268671Y-195862767D02*
X331789900Y-195682850D01*
X330760672Y-196033158D02*
X331268671Y-195862767D01*
X330260610Y-196194289D02*
X330760672Y-196033158D01*
X329763194Y-196346954D02*
X330260610Y-196194289D01*
X329268424Y-196491945D02*
X329763194Y-196346954D01*
X328768362Y-196629793D02*
X329268424Y-196491945D01*
X328263008Y-196761026D02*
X328768362Y-196629793D01*
X327749717Y-196886438D02*
X328263008Y-196761026D01*
X327223197Y-197006294D02*
X327749717Y-196886438D01*
X326680802Y-197121917D02*
X327223197Y-197006294D01*
X326117240Y-197233307D02*
X326680802Y-197121917D01*
X325532512Y-197341257D02*
X326117240Y-197233307D01*
X324918679Y-197446296D02*
X325532512Y-197341257D01*
X324278388Y-197549483D02*
X324918679Y-197446296D01*
X323603702Y-197650819D02*
X324278388Y-197549483D01*
X322894619Y-197751360D02*
X323603702Y-197650819D01*
X322143203Y-197851902D02*
X322894619Y-197751360D01*
X321352100Y-197952443D02*
X322143203Y-197851902D01*
X320513372Y-198054043D02*
X321352100Y-197952443D01*
X318682458Y-198262799D02*
X320513372Y-198054043D01*
X316626648Y-198482932D02*
X318682458Y-198262799D01*
X314319484Y-198719469D02*
X316626648Y-198482932D01*
X311731862Y-198977438D02*
X314319484Y-198719469D01*
X311729217Y-198977967D02*
X311731862Y-198977438D01*
X307202201Y-199446279D02*
X311729217Y-198977967D01*
X307099014Y-199458979D02*
X307202201Y-199446279D01*
X307032868Y-199470356D02*
X307099014Y-199458979D01*
X307009056Y-199473266D02*
X307032868Y-199470356D01*
X306995827Y-199476971D02*
X307009056Y-199473266D01*
X306977306Y-199510837D02*
X306995827Y-199476971D01*
X306945556Y-199588360D02*
X306977306Y-199510837D01*
X306900577Y-199716418D02*
X306945556Y-199588360D01*
X306850306Y-199892630D02*
X306900577Y-199716418D01*
X306794744Y-200119378D02*
X306850306Y-199892630D01*
X306733889Y-200399836D02*
X306794744Y-200119378D01*
X306588369Y-201131143D02*
X306733889Y-200399836D01*
X306403161Y-202107190D02*
X306588369Y-201131143D01*
X306403161Y-202108248D02*
X306403161Y-202107190D01*
X306403161Y-202109307D02*
X306403161Y-202108248D01*
X306347598Y-202385796D02*
X306403161Y-202109307D01*
X306284098Y-202672604D02*
X306347598Y-202385796D01*
X306212661Y-202968672D02*
X306284098Y-202672604D01*
X306133286Y-203272943D02*
X306212661Y-202968672D01*
X306045974Y-203584622D02*
X306133286Y-203272943D01*
X305950724Y-203902650D02*
X306045974Y-203584622D01*
X305844891Y-204226500D02*
X305950724Y-203902650D01*
X305731120Y-204554847D02*
X305844891Y-204226500D01*
X305609412Y-204886899D02*
X305731120Y-204554847D01*
X305477120Y-205222126D02*
X305609412Y-204886899D01*
X305336891Y-205559205D02*
X305477120Y-205222126D01*
X305186079Y-205897077D02*
X305336891Y-205559205D01*
X305027329Y-206235479D02*
X305186079Y-205897077D01*
X304857996Y-206572822D02*
X305027329Y-206235479D01*
X304678080Y-206908842D02*
X304857996Y-206572822D01*
X304490226Y-207242217D02*
X304678080Y-206908842D01*
X304289143Y-207572152D02*
X304490226Y-207242217D01*
X304080122Y-207897854D02*
X304289143Y-207572152D01*
X303857872Y-208217999D02*
X304080122Y-207897854D01*
X303627685Y-208532324D02*
X303857872Y-208217999D01*
X303386915Y-208839505D02*
X303627685Y-208532324D01*
X303132915Y-209138748D02*
X303386915Y-208839505D01*
X302868332Y-209428996D02*
X303132915Y-209138748D01*
X302593166Y-209709718D02*
X302868332Y-209428996D01*
X302450291Y-209845978D02*
X302593166Y-209709718D01*
X302307416Y-209979593D02*
X302450291Y-209845978D01*
X302159249Y-210110297D02*
X302307416Y-209979593D01*
X302008437Y-210238090D02*
X302159249Y-210110297D01*
X301854979Y-210362709D02*
X302008437Y-210238090D01*
X301698875Y-210484153D02*
X301854979Y-210362709D01*
X301538273Y-210602157D02*
X301698875Y-210484153D01*
X301375819Y-210716721D02*
X301538273Y-210602157D01*
X301210190Y-210827846D02*
X301375819Y-210716721D01*
X301041386Y-210935002D02*
X301210190Y-210827846D01*
X300869672Y-211038718D02*
X301041386Y-210935002D01*
X300695047Y-211138466D02*
X300869672Y-211038718D01*
X300516983Y-211233981D02*
X300695047Y-211138466D01*
X300336008Y-211325526D02*
X300516983Y-211233981D01*
X300151858Y-211412839D02*
X300336008Y-211325526D01*
X299964533Y-211495653D02*
X300151858Y-211412839D01*
X299938340Y-211507030D02*
X299964533Y-211495653D01*
X299910823Y-211514968D02*
X299938340Y-211507030D01*
X299696775Y-211575028D02*
X299910823Y-211514968D01*
X299452036Y-211636676D02*
X299696775Y-211575028D01*
X299178986Y-211698588D02*
X299452036Y-211636676D01*
X298880008Y-211758913D02*
X299178986Y-211698588D01*
X298557216Y-211816857D02*
X298880008Y-211758913D01*
X298212994Y-211870567D02*
X298557216Y-211816857D01*
X297849457Y-211918986D02*
X298212994Y-211870567D01*
X297469251Y-211960261D02*
X297849457Y-211918986D01*
X297073964Y-211993334D02*
X297469251Y-211960261D01*
X296666506Y-212016617D02*
X297073964Y-211993334D01*
X296248994Y-212028788D02*
X296666506Y-212016617D01*
X295823545Y-212028523D02*
X296248994Y-212028788D01*
X295392539Y-212014236D02*
X295823545Y-212028523D01*
X295175581Y-212001536D02*
X295392539Y-212014236D01*
X294958094Y-211984867D02*
X295175581Y-212001536D01*
X294740342Y-211963701D02*
X294958094Y-211984867D01*
X294522590Y-211938565D02*
X294740342Y-211963701D01*
X294305368Y-211908667D02*
X294522590Y-211938565D01*
X294088410Y-211874007D02*
X294305368Y-211908667D01*
X294086822Y-211873478D02*
X294088410Y-211874007D01*
X294085764Y-211873478D02*
X294086822Y-211873478D01*
X293892618Y-211836436D02*
X294085764Y-211873478D01*
X293704235Y-211794897D02*
X293892618Y-211836436D01*
X293520614Y-211748859D02*
X293704235Y-211794897D01*
X293341756Y-211699118D02*
X293520614Y-211748859D01*
X293167396Y-211645407D02*
X293341756Y-211699118D01*
X292998063Y-211588787D02*
X293167396Y-211645407D01*
X292833228Y-211528991D02*
X292998063Y-211588787D01*
X292672891Y-211466814D02*
X292833228Y-211528991D01*
X292366503Y-211336374D02*
X292672891Y-211466814D01*
X292078373Y-211199850D02*
X292366503Y-211336374D01*
X291808233Y-211060150D02*
X292078373Y-211199850D01*
X291556350Y-210920450D02*
X291808233Y-211060150D01*
X291099945Y-210652692D02*
X291556350Y-210920450D01*
X290714712Y-210419594D02*
X291099945Y-210652692D01*
X290418643Y-210244969D02*
X290714712Y-210419594D01*
X290309371Y-210186761D02*
X290418643Y-210244969D01*
X290229202Y-210152101D02*
X290309371Y-210186761D01*
X290212004Y-210146545D02*
X290229202Y-210152101D01*
X290195071Y-210139136D02*
X290212004Y-210146545D01*
X290040290Y-210077488D02*
X290195071Y-210139136D01*
X289909321Y-210032509D02*
X290040290Y-210077488D01*
X289800577Y-210001553D02*
X289909321Y-210032509D01*
X289712736Y-209982503D02*
X289800577Y-210001553D01*
X289643944Y-209972714D02*
X289712736Y-209982503D01*
X289593144Y-209969803D02*
X289643944Y-209972714D01*
X289558219Y-209971391D02*
X289593144Y-209969803D01*
X289537847Y-209974830D02*
X289558219Y-209971391D01*
X289510595Y-209992293D02*
X289537847Y-209974830D01*
X289469849Y-210028805D02*
X289510595Y-209992293D01*
X289368778Y-210128818D02*
X289469849Y-210028805D01*
X289349728Y-210201049D02*
X289368778Y-210128818D01*
X289336234Y-210265872D02*
X289349728Y-210201049D01*
X289321682Y-210355830D02*
X289336234Y-210265872D01*
X289304749Y-210497117D02*
X289321682Y-210355830D01*
X289289668Y-210657454D02*
X289304749Y-210497117D01*
X289267443Y-211027077D02*
X289289668Y-210657454D01*
X289256595Y-211446441D02*
X289267443Y-211027077D01*
X289257653Y-211902053D02*
X289256595Y-211446441D01*
X289270882Y-212380154D02*
X289257653Y-211902053D01*
X289296547Y-212867781D02*
X289270882Y-212380154D01*
X289297076Y-212870427D02*
X289296547Y-212867781D01*
X289297076Y-212873072D02*
X289297076Y-212870427D01*
X289316126Y-213268889D02*
X289297076Y-212873072D01*
X289329355Y-213657296D02*
X289316126Y-213268889D01*
X289336763Y-214038561D02*
X289329355Y-213657296D01*
X289338086Y-214412416D02*
X289336763Y-214038561D01*
X289333588Y-214779393D02*
X289338086Y-214412416D01*
X289323005Y-215138961D02*
X289333588Y-214779393D01*
X289306336Y-215491386D02*
X289323005Y-215138961D01*
X289283582Y-215836667D02*
X289306336Y-215491386D01*
X289254743Y-216175068D02*
X289283582Y-215836667D01*
X289219553Y-216506062D02*
X289254743Y-216175068D01*
X289178278Y-216830176D02*
X289219553Y-216506062D01*
X289130653Y-217147411D02*
X289178278Y-216830176D01*
X289076414Y-217457502D02*
X289130653Y-217147411D01*
X289016089Y-217760450D02*
X289076414Y-217457502D01*
X288949149Y-218056783D02*
X289016089Y-217760450D01*
X288875860Y-218346236D02*
X288949149Y-218056783D01*
X288795956Y-218628546D02*
X288875860Y-218346236D01*
X288709702Y-218904242D02*
X288795956Y-218628546D01*
X288616569Y-219172794D02*
X288709702Y-218904242D01*
X288516821Y-219434731D02*
X288616569Y-219172794D01*
X288410458Y-219690053D02*
X288516821Y-219434731D01*
X288297217Y-219938497D02*
X288410458Y-219690053D01*
X288177361Y-220180326D02*
X288297217Y-219938497D01*
X288050626Y-220415275D02*
X288177361Y-220180326D01*
X287916747Y-220643611D02*
X288050626Y-220415275D01*
X287776253Y-220865596D02*
X287916747Y-220643611D01*
X287628616Y-221080702D02*
X287776253Y-220865596D01*
X287474099Y-221289193D02*
X287628616Y-221080702D01*
X287312439Y-221491334D02*
X287474099Y-221289193D01*
X287143635Y-221686861D02*
X287312439Y-221491334D01*
X286967687Y-221876038D02*
X287143635Y-221686861D01*
X286784596Y-222058600D02*
X286967687Y-221876038D01*
X286578750Y-222253334D02*
X286784596Y-222058600D01*
X286370259Y-222439335D02*
X286578750Y-222253334D01*
X286158857Y-222616871D02*
X286370259Y-222439335D01*
X285944280Y-222785410D02*
X286158857Y-222616871D01*
X285725735Y-222945218D02*
X285944280Y-222785410D01*
X285503220Y-223096030D02*
X285725735Y-222945218D01*
X285276208Y-223238376D02*
X285503220Y-223096030D01*
X285044433Y-223371726D02*
X285276208Y-223238376D01*
X284807632Y-223496344D02*
X285044433Y-223371726D01*
X284565274Y-223612232D02*
X284807632Y-223496344D01*
X284317359Y-223719123D02*
X284565274Y-223612232D01*
X284063095Y-223817284D02*
X284317359Y-223719123D01*
X283802481Y-223906977D02*
X284063095Y-223817284D01*
X283534987Y-223987411D02*
X283802481Y-223906977D01*
X283260086Y-224059377D02*
X283534987Y-223987411D01*
X282978040Y-224122348D02*
X283260086Y-224059377D01*
X282687793Y-224177117D02*
X282978040Y-224122348D01*
X282389608Y-224223419D02*
X282687793Y-224177117D01*
X282082956Y-224261518D02*
X282389608Y-224223419D01*
X281767308Y-224291946D02*
X282082956Y-224261518D01*
X281442136Y-224314435D02*
X281767308Y-224291946D01*
X281107174Y-224329516D02*
X281442136Y-224314435D01*
X280761364Y-224336925D02*
X281107174Y-224329516D01*
X280404971Y-224336925D02*
X280761364Y-224336925D01*
X280036936Y-224329516D02*
X280404971Y-224336925D01*
X279657259Y-224315229D02*
X280036936Y-224329516D01*
X279264882Y-224293798D02*
X279657259Y-224315229D01*
X278859541Y-224265752D02*
X279264882Y-224293798D01*
X278440971Y-224230827D02*
X278859541Y-224265752D01*
X278008378Y-224189287D02*
X278440971Y-224230827D01*
X277561497Y-224141398D02*
X278008378Y-224189287D01*
X277099800Y-224087423D02*
X277561497Y-224141398D01*
X277102446Y-224087952D02*
X277099800Y-224087423D01*
X276311607Y-223999846D02*
X277102446Y-224087952D01*
X275616812Y-223931054D02*
X276311607Y-223999846D01*
X275013827Y-223881842D02*
X275616812Y-223931054D01*
X274499213Y-223852738D02*
X275013827Y-223881842D01*
X274273789Y-223845594D02*
X274499213Y-223852738D01*
X274068737Y-223843477D02*
X274273789Y-223845594D01*
X273884058Y-223846652D02*
X274068737Y-223843477D01*
X273718694Y-223854854D02*
X273884058Y-223846652D01*
X273572644Y-223868348D02*
X273718694Y-223854854D01*
X273445115Y-223886869D02*
X273572644Y-223868348D01*
X273335577Y-223910417D02*
X273445115Y-223886869D01*
X273243767Y-223939521D02*
X273335577Y-223910417D01*
X273166773Y-223971536D02*
X273243767Y-223939521D01*
X273101157Y-224005138D02*
X273166773Y-223971536D01*
X273044536Y-224042973D02*
X273101157Y-224005138D01*
X272994794Y-224086629D02*
X273044536Y-224042973D01*
X272950345Y-224138487D02*
X272994794Y-224086629D01*
X272908805Y-224200400D02*
X272950345Y-224138487D01*
X272868059Y-224274748D02*
X272908805Y-224200400D01*
X272826255Y-224363383D02*
X272868059Y-224274748D01*
X272783922Y-224467893D02*
X272826255Y-224363383D01*
X272743176Y-224589072D02*
X272783922Y-224467893D01*
X272703224Y-224726391D02*
X272743176Y-224589072D01*
X272664330Y-224879849D02*
X272703224Y-224726391D01*
X272587072Y-225234919D02*
X272664330Y-224879849D01*
X272509020Y-225653754D02*
X272587072Y-225234919D01*
X272471714Y-225851927D02*
X272509020Y-225653754D01*
X272430439Y-226049306D02*
X272471714Y-225851927D01*
X272384931Y-226245097D02*
X272430439Y-226049306D01*
X272335454Y-226439830D02*
X272384931Y-226245097D01*
X272281743Y-226633241D02*
X272335454Y-226439830D01*
X272224064Y-226825328D02*
X272281743Y-226633241D01*
X272162416Y-227015828D02*
X272224064Y-226825328D01*
X272096535Y-227205269D02*
X272162416Y-227015828D01*
X272026685Y-227393123D02*
X272096535Y-227205269D01*
X271952602Y-227579654D02*
X272026685Y-227393123D01*
X271874815Y-227764862D02*
X271952602Y-227579654D01*
X271793058Y-227948483D02*
X271874815Y-227764862D01*
X271707069Y-228130516D02*
X271793058Y-227948483D01*
X271617111Y-228311226D02*
X271707069Y-228130516D01*
X271523448Y-228490349D02*
X271617111Y-228311226D01*
X271425817Y-228667884D02*
X271523448Y-228490349D01*
X271323953Y-228843831D02*
X271425817Y-228667884D01*
X271218649Y-229018192D02*
X271323953Y-228843831D01*
X271109111Y-229190700D02*
X271218649Y-229018192D01*
X270995870Y-229361885D02*
X271109111Y-229190700D01*
X270878660Y-229531218D02*
X270995870Y-229361885D01*
X270757745Y-229698699D02*
X270878660Y-229531218D01*
X270632862Y-229864593D02*
X270757745Y-229698699D01*
X270504275Y-230028899D02*
X270632862Y-229864593D01*
X270371719Y-230191088D02*
X270504275Y-230028899D01*
X270235458Y-230351690D02*
X270371719Y-230191088D01*
X270095494Y-230510440D02*
X270235458Y-230351690D01*
X269951825Y-230667338D02*
X270095494Y-230510440D01*
X269804453Y-230822119D02*
X269951825Y-230667338D01*
X269653111Y-230975312D02*
X269804453Y-230822119D01*
X269498330Y-231126389D02*
X269653111Y-230975312D01*
X269339580Y-231275614D02*
X269498330Y-231126389D01*
X269192737Y-231406847D02*
X269339580Y-231275614D01*
X269043247Y-231531730D02*
X269192737Y-231406847D01*
X268891112Y-231649999D02*
X269043247Y-231531730D01*
X268736067Y-231762447D02*
X268891112Y-231649999D01*
X268578110Y-231868544D02*
X268736067Y-231762447D01*
X268417773Y-231969086D02*
X268578110Y-231868544D01*
X268254261Y-232063807D02*
X268417773Y-231969086D01*
X268088103Y-232152971D02*
X268254261Y-232063807D01*
X267919299Y-232237108D02*
X268088103Y-232152971D01*
X267747849Y-232315954D02*
X267919299Y-232237108D01*
X267573224Y-232389773D02*
X267747849Y-232315954D01*
X267396218Y-232459094D02*
X267573224Y-232389773D01*
X267216302Y-232523652D02*
X267396218Y-232459094D01*
X267033475Y-232583712D02*
X267216302Y-232523652D01*
X266848002Y-232639539D02*
X267033475Y-232583712D01*
X266659884Y-232691397D02*
X266848002Y-232639539D01*
X266468855Y-232739287D02*
X266659884Y-232691397D01*
X266274915Y-232783472D02*
X266468855Y-232739287D01*
X265879099Y-232861260D02*
X266274915Y-232783472D01*
X265472171Y-232926347D02*
X265879099Y-232861260D01*
X265053865Y-232980058D02*
X265472171Y-232926347D01*
X264624711Y-233023714D02*
X265053865Y-232980058D01*
X264184445Y-233058639D02*
X264624711Y-233023714D01*
X263732802Y-233086420D02*
X264184445Y-233058639D01*
X263270311Y-233108380D02*
X263732802Y-233086420D01*
X263233534Y-233109968D02*
X263270311Y-233108380D01*
X263196757Y-233105999D02*
X263233534Y-233109968D01*
X262781097Y-233058903D02*
X263196757Y-233105999D01*
X262347710Y-233003605D02*
X262781097Y-233058903D01*
X261898183Y-232939047D02*
X262347710Y-233003605D01*
X261433840Y-232864964D02*
X261898183Y-232939047D01*
X260956797Y-232780033D02*
X261433840Y-232864964D01*
X260468377Y-232683989D02*
X260956797Y-232780033D01*
X259970167Y-232575775D02*
X260468377Y-232683989D01*
X259464020Y-232455125D02*
X259970167Y-232575775D01*
X258951523Y-232320981D02*
X259464020Y-232455125D01*
X258433998Y-232172550D02*
X258951523Y-232320981D01*
X257913299Y-232009567D02*
X258433998Y-232172550D01*
X257391012Y-231830709D02*
X257913299Y-232009567D01*
X257129604Y-231735194D02*
X257391012Y-231830709D01*
X256868725Y-231635711D02*
X257129604Y-231735194D01*
X256608111Y-231531730D02*
X256868725Y-231635711D01*
X256348026Y-231423516D02*
X256608111Y-231531730D01*
X256088999Y-231310803D02*
X256348026Y-231423516D01*
X255830766Y-231193593D02*
X256088999Y-231310803D01*
X255573856Y-231071885D02*
X255830766Y-231193593D01*
X255318269Y-230945414D02*
X255573856Y-231071885D01*
X254983836Y-230885883D02*
X255318269Y-230945414D01*
X254722163Y-230852281D02*
X254983836Y-230885883D01*
X254616859Y-230844344D02*
X254722163Y-230852281D01*
X254527695Y-230842227D02*
X254616859Y-230844344D01*
X254453612Y-230845402D02*
X254527695Y-230842227D01*
X254394345Y-230853339D02*
X254453612Y-230845402D01*
X254341958Y-230866039D02*
X254394345Y-230853339D01*
X254291158Y-230883502D02*
X254341958Y-230866039D01*
X254240093Y-230907843D02*
X254291158Y-230883502D01*
X254186383Y-230940123D02*
X254240093Y-230907843D01*
X254127116Y-230982456D02*
X254186383Y-230940123D01*
X254060706Y-231036695D02*
X254127116Y-230982456D01*
X253895606Y-231186714D02*
X254060706Y-231036695D01*
X253848510Y-231231693D02*
X253895606Y-231186714D01*
X253791360Y-231263178D02*
X253848510Y-231231693D01*
X253527307Y-231404466D02*
X253791360Y-231263178D01*
X253271455Y-231535170D02*
X253527307Y-231404466D01*
X253023276Y-231656084D02*
X253271455Y-231535170D01*
X252782241Y-231767738D02*
X253023276Y-231656084D01*
X252548085Y-231869867D02*
X252782241Y-231767738D01*
X252320543Y-231963530D02*
X252548085Y-231869867D01*
X252099352Y-232048990D02*
X252320543Y-231963530D01*
X251883981Y-232126513D02*
X252099352Y-232048990D01*
X251674167Y-232196627D02*
X251883981Y-232126513D01*
X251469645Y-232259598D02*
X251674167Y-232196627D01*
X251269884Y-232315954D02*
X251469645Y-232259598D01*
X251074887Y-232365960D02*
X251269884Y-232315954D01*
X250883858Y-232410410D02*
X251074887Y-232365960D01*
X250697062Y-232449304D02*
X250883858Y-232410410D01*
X250513442Y-232483171D02*
X250697062Y-232449304D01*
X250333261Y-232512539D02*
X250513442Y-232483171D01*
X249981365Y-232559106D02*
X250333261Y-232512539D01*
X249638201Y-232592179D02*
X249981365Y-232559106D01*
X249301122Y-232615198D02*
X249638201Y-232592179D01*
X248967483Y-232631337D02*
X249301122Y-232615198D01*
X248300205Y-232656473D02*
X248967483Y-232631337D01*
X247961009Y-232671818D02*
X248300205Y-232656473D01*
X247614406Y-232693514D02*
X247961009Y-232671818D01*
X247572072Y-232696689D02*
X247614406Y-232693514D01*
X247529739Y-232692456D02*
X247572072Y-232696689D01*
X247149798Y-232653562D02*
X247529739Y-232692456D01*
X246788642Y-232611229D02*
X247149798Y-232653562D01*
X246445478Y-232565456D02*
X246788642Y-232611229D01*
X246119247Y-232516244D02*
X246445478Y-232565456D01*
X245809156Y-232463591D02*
X246119247Y-232516244D01*
X245514146Y-232406971D02*
X245809156Y-232463591D01*
X245233688Y-232346910D02*
X245514146Y-232406971D01*
X244966724Y-232282881D02*
X245233688Y-232346910D01*
X244712724Y-232214883D02*
X244966724Y-232282881D01*
X244470366Y-232142652D02*
X244712724Y-232214883D01*
X244239120Y-232066717D02*
X244470366Y-232142652D01*
X244017929Y-231986284D02*
X244239120Y-232066717D01*
X243806262Y-231901617D02*
X244017929Y-231986284D01*
X243603063Y-231812453D02*
X243806262Y-231901617D01*
X243407271Y-231719055D02*
X243603063Y-231812453D01*
X243218359Y-231620895D02*
X243407271Y-231719055D01*
X243035532Y-231517972D02*
X243218359Y-231620895D01*
X242857468Y-231410551D02*
X243035532Y-231517972D01*
X242683901Y-231298103D02*
X242857468Y-231410551D01*
X242513510Y-231180629D02*
X242683901Y-231298103D01*
X242345764Y-231058391D02*
X242513510Y-231180629D01*
X242179606Y-230930862D02*
X242345764Y-231058391D01*
X242014242Y-230798042D02*
X242179606Y-230930862D01*
X241848877Y-230659929D02*
X242014242Y-230798042D01*
X241514709Y-230367565D02*
X241848877Y-230659929D01*
X241169957Y-230052711D02*
X241514709Y-230367565D01*
X240478602Y-229419564D02*
X241169957Y-230052711D01*
X240366683Y-229262137D02*
X240478602Y-229419564D01*
X240234921Y-229074812D02*
X240366683Y-229262137D01*
X238913329Y-226373949D02*
X240234921Y-229074812D01*
X237673493Y-223882371D02*
X238913329Y-226373949D01*
X236577855Y-221691359D02*
X237673493Y-223882371D01*
X235607894Y-219758316D02*
X236577855Y-221691359D01*
X233972242Y-216497330D02*
X235607894Y-219758316D01*
X233270038Y-215084193D02*
X233972242Y-216497330D01*
X232620487Y-213759425D02*
X233270038Y-215084193D01*
X232293462Y-213093205D02*
X232620487Y-213759425D01*
X231986282Y-212488104D02*
X232293462Y-213093205D01*
X231838115Y-212206852D02*
X231986282Y-212488104D01*
X231692594Y-211938830D02*
X231838115Y-212206852D01*
X231548397Y-211683243D02*
X231692594Y-211938830D01*
X231404993Y-211439826D02*
X231548397Y-211683243D01*
X231261324Y-211207787D02*
X231404993Y-211439826D01*
X231116597Y-210986066D02*
X231261324Y-211207787D01*
X230970018Y-210774665D02*
X231116597Y-210986066D01*
X230820529Y-210572259D02*
X230970018Y-210774665D01*
X230667600Y-210378584D02*
X230820529Y-210572259D01*
X230509908Y-210193111D02*
X230667600Y-210378584D01*
X230346925Y-210014782D02*
X230509908Y-210193111D01*
X230177857Y-209843068D02*
X230346925Y-210014782D01*
X230001380Y-209677439D02*
X230177857Y-209843068D01*
X229816966Y-209517102D02*
X230001380Y-209677439D01*
X229623820Y-209361527D02*
X229816966Y-209517102D01*
X229420885Y-209209921D02*
X229623820Y-209361527D01*
X229207366Y-209061754D02*
X229420885Y-209209921D01*
X228982206Y-208916234D02*
X229207366Y-209061754D01*
X228744875Y-208772565D02*
X228982206Y-208916234D01*
X228494051Y-208630484D02*
X228744875Y-208772565D01*
X228229468Y-208489197D02*
X228494051Y-208630484D01*
X227949803Y-208347645D02*
X228229468Y-208489197D01*
X227654264Y-208205828D02*
X227949803Y-208347645D01*
X227342056Y-208062424D02*
X227654264Y-208205828D01*
X227012386Y-207917433D02*
X227342056Y-208062424D01*
X226664195Y-207769531D02*
X227012386Y-207917433D01*
X226296953Y-207618454D02*
X226664195Y-207769531D01*
X225909339Y-207463673D02*
X226296953Y-207618454D01*
X225796891Y-207442242D02*
X225909339Y-207463673D01*
X225682592Y-207424779D02*
X225796891Y-207442242D01*
X225566175Y-207411550D02*
X225682592Y-207424779D01*
X225447906Y-207402290D02*
X225566175Y-207411550D01*
X225327521Y-207396998D02*
X225447906Y-207402290D01*
X225205284Y-207395411D02*
X225327521Y-207396998D01*
X224955517Y-207404406D02*
X225205284Y-207395411D01*
X224698607Y-207428483D02*
X224955517Y-207404406D01*
X224435083Y-207467642D02*
X224698607Y-207428483D01*
X224164943Y-207521088D02*
X224435083Y-207467642D01*
X223888454Y-207589085D02*
X224164943Y-207521088D01*
X223606409Y-207670841D02*
X223888454Y-207589085D01*
X223318542Y-207766356D02*
X223606409Y-207670841D01*
X223025649Y-207875364D02*
X223318542Y-207766356D01*
X222727464Y-207997072D02*
X223025649Y-207875364D01*
X222425046Y-208131480D02*
X222727464Y-207997072D01*
X222118129Y-208278324D02*
X222425046Y-208131480D01*
X221807244Y-208437074D02*
X222118129Y-208278324D01*
X221492391Y-208607730D02*
X221807244Y-208437074D01*
X221172245Y-208790557D02*
X221492391Y-208607730D01*
X220849454Y-208983702D02*
X221172245Y-208790557D01*
X220524281Y-209186373D02*
X220849454Y-208983702D01*
X220196992Y-209398304D02*
X220524281Y-209186373D01*
X219867851Y-209618702D02*
X220196992Y-209398304D01*
X219537122Y-209847037D02*
X219867851Y-209618702D01*
X219205071Y-210082780D02*
X219537122Y-209847037D01*
X218872225Y-210325403D02*
X219205071Y-210082780D01*
X218538586Y-210574375D02*
X218872225Y-210325403D01*
X218204947Y-210828904D02*
X218538586Y-210574375D01*
X217537139Y-211353043D02*
X218204947Y-210828904D01*
X216871449Y-211893322D02*
X217537139Y-211353043D01*
X216209991Y-212445242D02*
X216871449Y-211893322D01*
X215960489Y-212650558D02*
X216209991Y-212445242D01*
X215712840Y-212842381D02*
X215960489Y-212650558D01*
X215466777Y-213020974D02*
X215712840Y-212842381D01*
X215222303Y-213185545D02*
X215466777Y-213020974D01*
X214979151Y-213336622D02*
X215222303Y-213185545D01*
X214737057Y-213473411D02*
X214979151Y-213336622D01*
X214495493Y-213596178D02*
X214737057Y-213473411D01*
X214254458Y-213704128D02*
X214495493Y-213596178D01*
X214013688Y-213797790D02*
X214254458Y-213704128D01*
X213772917Y-213876371D02*
X214013688Y-213797790D01*
X213531617Y-213940136D02*
X213772917Y-213876371D01*
X213290053Y-213988554D02*
X213531617Y-213940136D01*
X213047695Y-214021627D02*
X213290053Y-213988554D01*
X212804279Y-214039090D02*
X213047695Y-214021627D01*
X212682041Y-214042000D02*
X212804279Y-214039090D01*
X212559539Y-214040942D02*
X212682041Y-214042000D01*
X212436508Y-214035650D02*
X212559539Y-214040942D01*
X212313213Y-214026390D02*
X212436508Y-214035650D01*
X212189917Y-214035650D02*
X212313213Y-214026390D01*
X212066886Y-214040942D02*
X212189917Y-214035650D01*
X211944384Y-214042000D02*
X212066886Y-214040942D01*
X211822147Y-214039090D02*
X211944384Y-214042000D01*
X211578730Y-214021627D02*
X211822147Y-214039090D01*
X211336372Y-213988554D02*
X211578730Y-214021627D01*
X211094543Y-213940136D02*
X211336372Y-213988554D01*
X210853508Y-213876371D02*
X211094543Y-213940136D01*
X210612738Y-213797790D02*
X210853508Y-213876371D01*
X210371967Y-213704128D02*
X210612738Y-213797790D01*
X210130932Y-213596178D02*
X210371967Y-213704128D01*
X209889368Y-213473411D02*
X210130932Y-213596178D01*
X209647274Y-213336622D02*
X209889368Y-213473411D01*
X209404123Y-213185545D02*
X209647274Y-213336622D01*
X209159648Y-213020974D02*
X209404123Y-213185545D01*
X208913586Y-212842381D02*
X209159648Y-213020974D01*
X208665936Y-212650558D02*
X208913586Y-212842381D01*
X208416170Y-212445242D02*
X208665936Y-212650558D01*
X207754977Y-211893322D02*
X208416170Y-212445242D01*
X207089286Y-211353043D02*
X207754977Y-211893322D01*
X206421478Y-210828904D02*
X207089286Y-211353043D01*
X206087575Y-210574375D02*
X206421478Y-210828904D01*
X205754200Y-210325403D02*
X206087575Y-210574375D01*
X205421355Y-210082780D02*
X205754200Y-210325403D01*
X205089303Y-209847037D02*
X205421355Y-210082780D01*
X204758574Y-209618702D02*
X205089303Y-209847037D01*
X204429433Y-209398304D02*
X204758574Y-209618702D01*
X204102144Y-209186373D02*
X204429433Y-209398304D01*
X203776971Y-208983702D02*
X204102144Y-209186373D01*
X203454180Y-208790557D02*
X203776971Y-208983702D01*
X203134035Y-208607730D02*
X203454180Y-208790557D01*
X202819181Y-208437074D02*
X203134035Y-208607730D01*
X202508296Y-208278324D02*
X202819181Y-208437074D01*
X202201379Y-208131480D02*
X202508296Y-208278324D01*
X201898697Y-207997072D02*
X202201379Y-208131480D01*
X201600776Y-207875364D02*
X201898697Y-207997072D01*
X201307883Y-207766356D02*
X201600776Y-207875364D01*
X201020016Y-207670841D02*
X201307883Y-207766356D01*
X200737971Y-207589085D02*
X201020016Y-207670841D01*
X200461482Y-207521088D02*
X200737971Y-207589085D01*
X200191342Y-207467642D02*
X200461482Y-207521088D01*
X199927818Y-207428483D02*
X200191342Y-207467642D01*
X199670908Y-207404406D02*
X199927818Y-207428483D01*
X199420877Y-207395411D02*
X199670908Y-207404406D01*
X199298904Y-207396998D02*
X199420877Y-207395411D01*
X199178519Y-207402290D02*
X199298904Y-207396998D01*
X199060250Y-207411550D02*
X199178519Y-207402290D01*
X198943834Y-207424779D02*
X199060250Y-207411550D01*
X198829534Y-207442242D02*
X198943834Y-207424779D01*
X198717086Y-207463673D02*
X198829534Y-207442242D01*
X198329472Y-207618454D02*
X198717086Y-207463673D01*
X197961966Y-207769531D02*
X198329472Y-207618454D01*
X197614039Y-207917433D02*
X197961966Y-207769531D01*
X197284104Y-208062424D02*
X197614039Y-207917433D01*
X196972161Y-208205828D02*
X197284104Y-208062424D01*
X196676622Y-208347645D02*
X196972161Y-208205828D01*
X196396958Y-208489197D02*
X196676622Y-208347645D01*
X196132110Y-208630484D02*
X196396958Y-208489197D01*
X195881550Y-208772565D02*
X196132110Y-208630484D01*
X195644219Y-208916234D02*
X195881550Y-208772565D01*
X195419059Y-209061754D02*
X195644219Y-208916234D01*
X195205540Y-209209921D02*
X195419059Y-209061754D01*
X195002605Y-209361527D02*
X195205540Y-209209921D01*
X194809460Y-209517102D02*
X195002605Y-209361527D01*
X194625045Y-209677439D02*
X194809460Y-209517102D01*
X194448568Y-209843068D02*
X194625045Y-209677439D01*
X194279500Y-210014782D02*
X194448568Y-209843068D01*
X194116517Y-210193111D02*
X194279500Y-210014782D01*
X193958825Y-210378584D02*
X194116517Y-210193111D01*
X193805896Y-210572259D02*
X193958825Y-210378584D01*
X193656407Y-210774665D02*
X193805896Y-210572259D01*
X193509828Y-210986066D02*
X193656407Y-210774665D01*
X193365101Y-211207787D02*
X193509828Y-210986066D01*
X193221432Y-211439826D02*
X193365101Y-211207787D01*
X193078028Y-211683243D02*
X193221432Y-211439826D01*
X192933831Y-211938830D02*
X193078028Y-211683243D01*
X192788310Y-212206852D02*
X192933831Y-211938830D01*
X192640144Y-212488104D02*
X192788310Y-212206852D01*
X192332963Y-213093205D02*
X192640144Y-212488104D01*
X192005938Y-213759425D02*
X192332963Y-213093205D01*
X191356387Y-215084193D02*
X192005938Y-213759425D01*
X190654184Y-216497330D02*
X191356387Y-215084193D01*
X189018796Y-219758316D02*
X190654184Y-216497330D01*
X188049099Y-221691095D02*
X189018796Y-219758316D01*
X186953461Y-223882371D02*
X188049099Y-221691095D01*
X185713625Y-226373949D02*
X186953461Y-223882371D01*
X184381185Y-229090158D02*
X185713625Y-226373949D01*
X184251010Y-229279600D02*
X184381185Y-229090158D01*
X184024527Y-229521693D02*
X184251010Y-229279600D01*
X183456732Y-230052711D02*
X184024527Y-229521693D01*
X183112245Y-230367565D02*
X183456732Y-230052711D01*
X182778077Y-230659929D02*
X183112245Y-230367565D01*
X182612448Y-230798042D02*
X182778077Y-230659929D01*
X182447348Y-230930862D02*
X182612448Y-230798042D01*
X182280925Y-231058391D02*
X182447348Y-230930862D01*
X182113180Y-231180629D02*
X182280925Y-231058391D01*
X181942788Y-231298103D02*
X182113180Y-231180629D01*
X181769222Y-231410551D02*
X181942788Y-231298103D01*
X181591158Y-231517972D02*
X181769222Y-231410551D01*
X181408331Y-231620895D02*
X181591158Y-231517972D01*
X181219418Y-231719055D02*
X181408331Y-231620895D01*
X181023627Y-231812453D02*
X181219418Y-231719055D01*
X180820163Y-231901617D02*
X181023627Y-231812453D01*
X180608496Y-231986284D02*
X180820163Y-231901617D01*
X180387305Y-232066717D02*
X180608496Y-231986284D01*
X180156059Y-232142652D02*
X180387305Y-232066717D01*
X179913701Y-232214883D02*
X180156059Y-232142652D01*
X179659702Y-232282881D02*
X179913701Y-232214883D01*
X179392737Y-232346910D02*
X179659702Y-232282881D01*
X179112279Y-232406971D02*
X179392737Y-232346910D01*
X178817269Y-232463591D02*
X179112279Y-232406971D01*
X178507178Y-232516244D02*
X178817269Y-232463591D01*
X178180947Y-232565456D02*
X178507178Y-232516244D01*
X177837783Y-232611229D02*
X178180947Y-232565456D01*
X177476627Y-232653562D02*
X177837783Y-232611229D01*
X177096686Y-232692456D02*
X177476627Y-232653562D01*
X177054353Y-232696689D02*
X177096686Y-232692456D01*
X177012020Y-232693514D02*
X177054353Y-232696689D01*
X176665416Y-232671818D02*
X177012020Y-232693514D01*
X176326220Y-232656473D02*
X176665416Y-232671818D01*
X175658942Y-232631337D02*
X176326220Y-232656473D01*
X175325303Y-232615198D02*
X175658942Y-232631337D01*
X174988224Y-232592179D02*
X175325303Y-232615198D01*
X174645060Y-232559106D02*
X174988224Y-232592179D01*
X174292900Y-232512539D02*
X174645060Y-232559106D01*
X174112719Y-232483171D02*
X174292900Y-232512539D01*
X173929363Y-232449304D02*
X174112719Y-232483171D01*
X173742567Y-232410410D02*
X173929363Y-232449304D01*
X173551539Y-232365960D02*
X173742567Y-232410410D01*
X173356541Y-232315954D02*
X173551539Y-232365960D01*
X173156781Y-232259598D02*
X173356541Y-232315954D01*
X172952258Y-232196627D02*
X173156781Y-232259598D01*
X172742444Y-232126513D02*
X172952258Y-232196627D01*
X172527073Y-232048990D02*
X172742444Y-232126513D01*
X172305882Y-231963530D02*
X172527073Y-232048990D01*
X172078340Y-231869867D02*
X172305882Y-231963530D01*
X171844184Y-231767738D02*
X172078340Y-231869867D01*
X171603149Y-231656084D02*
X171844184Y-231767738D01*
X171354970Y-231535170D02*
X171603149Y-231656084D01*
X171098854Y-231404466D02*
X171354970Y-231535170D01*
X170835065Y-231263178D02*
X171098854Y-231404466D01*
X170777915Y-231231693D02*
X170835065Y-231263178D01*
X170730819Y-231186714D02*
X170777915Y-231231693D01*
X170565719Y-231036695D02*
X170730819Y-231186714D01*
X170499309Y-230982456D02*
X170565719Y-231036695D01*
X170440042Y-230940123D02*
X170499309Y-230982456D01*
X170386332Y-230907843D02*
X170440042Y-230940123D01*
X170335268Y-230883502D02*
X170386332Y-230907843D01*
X170284468Y-230866039D02*
X170335268Y-230883502D01*
X170232080Y-230853339D02*
X170284468Y-230866039D01*
X170172549Y-230845402D02*
X170232080Y-230853339D01*
X170098730Y-230842227D02*
X170172549Y-230845402D01*
X170009566Y-230844344D02*
X170098730Y-230842227D01*
X169904262Y-230852281D02*
X170009566Y-230844344D01*
X169642589Y-230885883D02*
X169904262Y-230852281D01*
X169308156Y-230945414D02*
X169642589Y-230885883D01*
X169052569Y-231071885D02*
X169308156Y-230945414D01*
X168795659Y-231193593D02*
X169052569Y-231071885D01*
X168537426Y-231310803D02*
X168795659Y-231193593D01*
X168278399Y-231423516D02*
X168537426Y-231310803D01*
X168018314Y-231531730D02*
X168278399Y-231423516D01*
X167757700Y-231635711D02*
X168018314Y-231531730D01*
X167496821Y-231735194D02*
X167757700Y-231635711D01*
X167235413Y-231830709D02*
X167496821Y-231735194D01*
X166713391Y-232009567D02*
X167235413Y-231830709D01*
X166192692Y-232172550D02*
X166713391Y-232009567D01*
X165675167Y-232320981D02*
X166192692Y-232172550D01*
X165162670Y-232455125D02*
X165675167Y-232320981D01*
X164656523Y-232575775D02*
X165162670Y-232455125D01*
X164158313Y-232683989D02*
X164656523Y-232575775D01*
X163670157Y-232780033D02*
X164158313Y-232683989D01*
X163192849Y-232864699D02*
X163670157Y-232780033D01*
X162728771Y-232939047D02*
X163192849Y-232864699D01*
X162279244Y-233003605D02*
X162728771Y-232939047D01*
X161845857Y-233058903D02*
X162279244Y-233003605D01*
X161430198Y-233105999D02*
X161845857Y-233058903D01*
X161393420Y-233109968D02*
X161430198Y-233105999D01*
X161356643Y-233108380D02*
X161393420Y-233109968D01*
X160894152Y-233086420D02*
X161356643Y-233108380D01*
X160442509Y-233058639D02*
X160894152Y-233086420D01*
X160002243Y-233023714D02*
X160442509Y-233058639D01*
X159572825Y-232980058D02*
X160002243Y-233023714D01*
X159154784Y-232926347D02*
X159572825Y-232980058D01*
X158747590Y-232861260D02*
X159154784Y-232926347D01*
X158351774Y-232783472D02*
X158747590Y-232861260D01*
X158157835Y-232739287D02*
X158351774Y-232783472D01*
X157966806Y-232691397D02*
X158157835Y-232739287D01*
X157778688Y-232639539D02*
X157966806Y-232691397D01*
X157592950Y-232583712D02*
X157778688Y-232639539D01*
X157410388Y-232523652D02*
X157592950Y-232583712D01*
X157230472Y-232459094D02*
X157410388Y-232523652D01*
X157053201Y-232390037D02*
X157230472Y-232459094D01*
X156878841Y-232315954D02*
X157053201Y-232390037D01*
X156707126Y-232237108D02*
X156878841Y-232315954D01*
X156538322Y-232153236D02*
X156707126Y-232237108D01*
X156372164Y-232063807D02*
X156538322Y-232153236D01*
X156208917Y-231969086D02*
X156372164Y-232063807D01*
X156048315Y-231868544D02*
X156208917Y-231969086D01*
X155890359Y-231762447D02*
X156048315Y-231868544D01*
X155735313Y-231649999D02*
X155890359Y-231762447D01*
X155583178Y-231531730D02*
X155735313Y-231649999D01*
X155433424Y-231406847D02*
X155583178Y-231531730D01*
X155286845Y-231275614D02*
X155433424Y-231406847D01*
X155128095Y-231126389D02*
X155286845Y-231275614D01*
X154973314Y-230975312D02*
X155128095Y-231126389D01*
X154821973Y-230822119D02*
X154973314Y-230975312D01*
X154674600Y-230667338D02*
X154821973Y-230822119D01*
X154530931Y-230510440D02*
X154674600Y-230667338D01*
X154390967Y-230351690D02*
X154530931Y-230510440D01*
X154254707Y-230191088D02*
X154390967Y-230351690D01*
X154122150Y-230028899D02*
X154254707Y-230191088D01*
X153993563Y-229864593D02*
X154122150Y-230028899D01*
X153868680Y-229698699D02*
X153993563Y-229864593D01*
X153747766Y-229531218D02*
X153868680Y-229698699D01*
X153630555Y-229361885D02*
X153747766Y-229531218D01*
X153517314Y-229190700D02*
X153630555Y-229361885D01*
X153407776Y-229018192D02*
X153517314Y-229190700D01*
X153302208Y-228843831D02*
X153407776Y-229018192D01*
X153200608Y-228667884D02*
X153302208Y-228843831D01*
X153102977Y-228490349D02*
X153200608Y-228667884D01*
X153009050Y-228311226D02*
X153102977Y-228490349D01*
X152919356Y-228130516D02*
X153009050Y-228311226D01*
X152833367Y-227948483D02*
X152919356Y-228130516D01*
X152751611Y-227764862D02*
X152833367Y-227948483D01*
X152673559Y-227579654D02*
X152751611Y-227764862D01*
X152599740Y-227393123D02*
X152673559Y-227579654D01*
X152529890Y-227205269D02*
X152599740Y-227393123D01*
X152464009Y-227015828D02*
X152529890Y-227205269D01*
X152402361Y-226825328D02*
X152464009Y-227015828D01*
X152344417Y-226633241D02*
X152402361Y-226825328D01*
X152290972Y-226439830D02*
X152344417Y-226633241D01*
X152241495Y-226245097D02*
X152290972Y-226439830D01*
X152195986Y-226049306D02*
X152241495Y-226245097D01*
X152154711Y-225851927D02*
X152195986Y-226049306D01*
X152117405Y-225653754D02*
X152154711Y-225851927D01*
X152039353Y-225234919D02*
X152117405Y-225653754D01*
X151962095Y-224879849D02*
X152039353Y-225234919D01*
X151923201Y-224726391D02*
X151962095Y-224879849D01*
X151883249Y-224589072D02*
X151923201Y-224726391D01*
X151842503Y-224467893D02*
X151883249Y-224589072D01*
X151800170Y-224363383D02*
X151842503Y-224467893D01*
X151758366Y-224274748D02*
X151800170Y-224363383D01*
X151717620Y-224200400D02*
X151758366Y-224274748D01*
X151676081Y-224138487D02*
X151717620Y-224200400D01*
X151631631Y-224086629D02*
X151676081Y-224138487D01*
X151581889Y-224042973D02*
X151631631Y-224086629D01*
X151525268Y-224005138D02*
X151581889Y-224042973D01*
X151459652Y-223971536D02*
X151525268Y-224005138D01*
X151382658Y-223939521D02*
X151459652Y-223971536D01*
X151290848Y-223910417D02*
X151382658Y-223939521D01*
X151181310Y-223886869D02*
X151290848Y-223910417D01*
X151053781Y-223868348D02*
X151181310Y-223886869D01*
X150907732Y-223854854D02*
X151053781Y-223868348D01*
X150742367Y-223846652D02*
X150907732Y-223854854D01*
X150557424Y-223843477D02*
X150742367Y-223846652D01*
X150352636Y-223845594D02*
X150557424Y-223843477D01*
X150127212Y-223852738D02*
X150352636Y-223845594D01*
X149612598Y-223881842D02*
X150127212Y-223852738D01*
X149009613Y-223931054D02*
X149612598Y-223881842D01*
X148314818Y-223999846D02*
X149009613Y-223931054D01*
X147523980Y-224087952D02*
X148314818Y-223999846D01*
X147526625Y-224087423D02*
X147523980Y-224087952D01*
X147064928Y-224141398D02*
X147526625Y-224087423D01*
X146617783Y-224189287D02*
X147064928Y-224141398D01*
X146185454Y-224230827D02*
X146617783Y-224189287D01*
X145766884Y-224265752D02*
X146185454Y-224230827D01*
X145361543Y-224293798D02*
X145766884Y-224265752D01*
X144969166Y-224315229D02*
X145361543Y-224293798D01*
X144589490Y-224329516D02*
X144969166Y-224315229D01*
X144221455Y-224336925D02*
X144589490Y-224329516D01*
X143864797Y-224336925D02*
X144221455Y-224336925D01*
X143519251Y-224329516D02*
X143864797Y-224336925D01*
X143184289Y-224314435D02*
X143519251Y-224329516D01*
X142859117Y-224291946D02*
X143184289Y-224314435D01*
X142543469Y-224261783D02*
X142859117Y-224291946D01*
X142236818Y-224223419D02*
X142543469Y-224261783D01*
X141938633Y-224177117D02*
X142236818Y-224223419D01*
X141648385Y-224122348D02*
X141938633Y-224177117D01*
X141366075Y-224059377D02*
X141648385Y-224122348D01*
X141091438Y-223987411D02*
X141366075Y-224059377D01*
X140823944Y-223906977D02*
X141091438Y-223987411D01*
X140563330Y-223817284D02*
X140823944Y-223906977D01*
X140309066Y-223719123D02*
X140563330Y-223817284D01*
X140061152Y-223612232D02*
X140309066Y-223719123D01*
X139818794Y-223496344D02*
X140061152Y-223612232D01*
X139581992Y-223371726D02*
X139818794Y-223496344D01*
X139350217Y-223238376D02*
X139581992Y-223371726D01*
X139123205Y-223096030D02*
X139350217Y-223238376D01*
X138900690Y-222945218D02*
X139123205Y-223096030D01*
X138682145Y-222785410D02*
X138900690Y-222945218D01*
X138467568Y-222616871D02*
X138682145Y-222785410D01*
X138256166Y-222439335D02*
X138467568Y-222616871D01*
X138047675Y-222253334D02*
X138256166Y-222439335D01*
X137841829Y-222058600D02*
X138047675Y-222253334D01*
X137658738Y-221876038D02*
X137841829Y-222058600D01*
X137482790Y-221686861D02*
X137658738Y-221876038D01*
X137313986Y-221491334D02*
X137482790Y-221686861D01*
X137152326Y-221289193D02*
X137313986Y-221491334D01*
X136997810Y-221080702D02*
X137152326Y-221289193D01*
X136850172Y-220865596D02*
X136997810Y-221080702D01*
X136709679Y-220643611D02*
X136850172Y-220865596D01*
X136575800Y-220415275D02*
X136709679Y-220643611D01*
X136449064Y-220180326D02*
X136575800Y-220415275D01*
X136329208Y-219938497D02*
X136449064Y-220180326D01*
X136215967Y-219690053D02*
X136329208Y-219938497D01*
X136109604Y-219434731D02*
X136215967Y-219690053D01*
X136009857Y-219172794D02*
X136109604Y-219434731D01*
X135916723Y-218904242D02*
X136009857Y-219172794D01*
X135830469Y-218628546D02*
X135916723Y-218904242D01*
X135750565Y-218346236D02*
X135830469Y-218628546D01*
X135677276Y-218056783D02*
X135750565Y-218346236D01*
X135610336Y-217760450D02*
X135677276Y-218056783D01*
X135550011Y-217457502D02*
X135610336Y-217760450D01*
X135495772Y-217147411D02*
X135550011Y-217457502D01*
X135448147Y-216830176D02*
X135495772Y-217147411D01*
X135406872Y-216506062D02*
X135448147Y-216830176D01*
X135371682Y-216175068D02*
X135406872Y-216506062D01*
X135342578Y-215836667D02*
X135371682Y-216175068D01*
X135319824Y-215491386D02*
X135342578Y-215836667D01*
X135303420Y-215138961D02*
X135319824Y-215491386D01*
X135292837Y-214779393D02*
X135303420Y-215138961D01*
X135288074Y-214412416D02*
X135292837Y-214779393D01*
X135289662Y-214038561D02*
X135288074Y-214412416D01*
X135297070Y-213657296D02*
X135289662Y-214038561D01*
X135310299Y-213268889D02*
X135297070Y-213657296D01*
X135329349Y-212873072D02*
X135310299Y-213268889D01*
X135329349Y-212870427D02*
X135329349Y-212873072D01*
X135329878Y-212867781D02*
X135329349Y-212870427D01*
X135355543Y-212380154D02*
X135329878Y-212867781D01*
X135368772Y-211902053D02*
X135355543Y-212380154D01*
X135369830Y-211446441D02*
X135368772Y-211902053D01*
X135358982Y-211027077D02*
X135369830Y-211446441D01*
X135336493Y-210657454D02*
X135358982Y-211027077D01*
X135321676Y-210497117D02*
X135336493Y-210657454D01*
X135304743Y-210355830D02*
X135321676Y-210497117D01*
X135290191Y-210265872D02*
X135304743Y-210355830D01*
X135276697Y-210201049D02*
X135290191Y-210265872D01*
X135257647Y-210128818D02*
X135276697Y-210201049D01*
X135156576Y-210028805D02*
X135257647Y-210128818D01*
X135115831Y-209992293D02*
X135156576Y-210028805D01*
X135088579Y-209974830D02*
X135115831Y-209992293D01*
X135068206Y-209971391D02*
X135088579Y-209974830D01*
X135033281Y-209969803D02*
X135068206Y-209971391D01*
X134982481Y-209972714D02*
X135033281Y-209969803D01*
X134913689Y-209982503D02*
X134982481Y-209972714D01*
X134825848Y-210001553D02*
X134913689Y-209982503D01*
X134717104Y-210032509D02*
X134825848Y-210001553D01*
X134586136Y-210077488D02*
X134717104Y-210032509D01*
X134431354Y-210139136D02*
X134586136Y-210077488D01*
X134414157Y-210146545D02*
X134431354Y-210139136D01*
X134397223Y-210152101D02*
X134414157Y-210146545D01*
X134317055Y-210186761D02*
X134397223Y-210152101D01*
X134207782Y-210244969D02*
X134317055Y-210186761D01*
X133911713Y-210419594D02*
X134207782Y-210244969D01*
X133526481Y-210652692D02*
X133911713Y-210419594D01*
X133070075Y-210920450D02*
X133526481Y-210652692D01*
X132818192Y-211060150D02*
X133070075Y-210920450D01*
X132548053Y-211199850D02*
X132818192Y-211060150D01*
X132259922Y-211336374D02*
X132548053Y-211199850D01*
X131953535Y-211466814D02*
X132259922Y-211336374D01*
X131793197Y-211528991D02*
X131953535Y-211466814D01*
X131628362Y-211588787D02*
X131793197Y-211528991D01*
X131459029Y-211645407D02*
X131628362Y-211588787D01*
X131284669Y-211699118D02*
X131459029Y-211645407D01*
X131105811Y-211748859D02*
X131284669Y-211699118D01*
X130922190Y-211794897D02*
X131105811Y-211748859D01*
X130733807Y-211836436D02*
X130922190Y-211794897D01*
X130540661Y-211873478D02*
X130733807Y-211836436D01*
X130539603Y-211873478D02*
X130540661Y-211873478D01*
X130538016Y-211874007D02*
X130539603Y-211873478D01*
X130321058Y-211908667D02*
X130538016Y-211874007D01*
X130103835Y-211938565D02*
X130321058Y-211908667D01*
X129886083Y-211963701D02*
X130103835Y-211938565D01*
X129668331Y-211984867D02*
X129886083Y-211963701D01*
X129450844Y-212001536D02*
X129668331Y-211984867D01*
X129233886Y-212014236D02*
X129450844Y-212001536D01*
X128802880Y-212028523D02*
X129233886Y-212014236D01*
X128377431Y-212028788D02*
X128802880Y-212028523D01*
X127959919Y-212016617D02*
X128377431Y-212028788D01*
X127552196Y-211993334D02*
X127959919Y-212016617D01*
X127157174Y-211960261D02*
X127552196Y-211993334D01*
X126776968Y-211918986D02*
X127157174Y-211960261D01*
X126413431Y-211870567D02*
X126776968Y-211918986D01*
X126069209Y-211816857D02*
X126413431Y-211870567D01*
X125746417Y-211758913D02*
X126069209Y-211816857D01*
X125447439Y-211698588D02*
X125746417Y-211758913D01*
X125174389Y-211636676D02*
X125447439Y-211698588D01*
X124929650Y-211575028D02*
X125174389Y-211636676D01*
X124715602Y-211514968D02*
X124929650Y-211575028D01*
X124688085Y-211507030D02*
X124715602Y-211514968D01*
X124661892Y-211495653D02*
X124688085Y-211507030D01*
X124474567Y-211412839D02*
X124661892Y-211495653D01*
X124290417Y-211325526D02*
X124474567Y-211412839D01*
X124109178Y-211233981D02*
X124290417Y-211325526D01*
X123931378Y-211138466D02*
X124109178Y-211233981D01*
X123756489Y-211038718D02*
X123931378Y-211138466D01*
X123584774Y-210935002D02*
X123756489Y-211038718D01*
X123416235Y-210827846D02*
X123584774Y-210935002D01*
X123250606Y-210716721D02*
X123416235Y-210827846D01*
X123087888Y-210602157D02*
X123250606Y-210716721D01*
X122928344Y-210484153D02*
X123087888Y-210602157D01*
X122771711Y-210362709D02*
X122928344Y-210484153D01*
X122618253Y-210238090D02*
X122771711Y-210362709D01*
X122467440Y-210110297D02*
X122618253Y-210238090D01*
X122319538Y-209979593D02*
X122467440Y-210110297D01*
X122174812Y-209845978D02*
X122319538Y-209979593D01*
X122032730Y-209709718D02*
X122174812Y-209845978D01*
X121757300Y-209428996D02*
X122032730Y-209709718D01*
X121493246Y-209138748D02*
X121757300Y-209428996D01*
X121240304Y-208839505D02*
X121493246Y-209138748D01*
X120998476Y-208532324D02*
X121240304Y-208839505D01*
X120767230Y-208217999D02*
X120998476Y-208532324D01*
X120546832Y-207897854D02*
X120767230Y-208217999D01*
X120336753Y-207572152D02*
X120546832Y-207897854D01*
X120137258Y-207242217D02*
X120336753Y-207572152D01*
X119947816Y-206908842D02*
X120137258Y-207242217D01*
X119768429Y-206572822D02*
X119947816Y-206908842D01*
X119599096Y-206235479D02*
X119768429Y-206572822D01*
X119439288Y-205897077D02*
X119599096Y-206235479D01*
X119289005Y-205559205D02*
X119439288Y-205897077D01*
X119148247Y-205222126D02*
X119289005Y-205559205D01*
X119016749Y-204886899D02*
X119148247Y-205222126D01*
X118894512Y-204554847D02*
X119016749Y-204886899D01*
X118781005Y-204226500D02*
X118894512Y-204554847D01*
X118676231Y-203902650D02*
X118781005Y-204226500D01*
X118580187Y-203584622D02*
X118676231Y-203902650D01*
X118492345Y-203272943D02*
X118580187Y-203584622D01*
X118413235Y-202968672D02*
X118492345Y-203272943D01*
X118342062Y-202672604D02*
X118413235Y-202968672D01*
X118278827Y-202385796D02*
X118342062Y-202672604D01*
X118223529Y-202109307D02*
X118278827Y-202385796D01*
X118223529Y-202108248D02*
X118223529Y-202109307D01*
X118223529Y-202107190D02*
X118223529Y-202108248D01*
X118039379Y-201131143D02*
X118223529Y-202107190D01*
X117892271Y-200399836D02*
X118039379Y-201131143D01*
X117830359Y-200119378D02*
X117892271Y-200399836D01*
X117775325Y-199892630D02*
X117830359Y-200119378D01*
X117726113Y-199716418D02*
X117775325Y-199892630D01*
X117681928Y-199588360D02*
X117726113Y-199716418D01*
X117648326Y-199510837D02*
X117681928Y-199588360D01*
X117637213Y-199489406D02*
X117648326Y-199510837D01*
X117627688Y-199476971D02*
X117637213Y-199489406D01*
X117594615Y-199470356D02*
X117627688Y-199476971D01*
X117527940Y-199458979D02*
X117594615Y-199470356D01*
X117422372Y-199446279D02*
X117527940Y-199458979D01*
X117421313Y-199445750D02*
X117422372Y-199446279D01*
X112896680Y-198977967D02*
X117421313Y-199445750D01*
X110309322Y-198719999D02*
X112896680Y-198977967D01*
X108001365Y-198483461D02*
X110309322Y-198719999D01*
X105945290Y-198263328D02*
X108001365Y-198483461D01*
X104114641Y-198054572D02*
X105945290Y-198263328D01*
X103275648Y-197952708D02*
X104114641Y-198054572D01*
X102482693Y-197852166D02*
X103275648Y-197952708D01*
X101732864Y-197751889D02*
X102482693Y-197852166D01*
X101022459Y-197651083D02*
X101732864Y-197751889D01*
X100348302Y-197549748D02*
X101022459Y-197651083D01*
X99707217Y-197446561D02*
X100348302Y-197549748D01*
X99095501Y-197341521D02*
X99707217Y-197446561D01*
X98509979Y-197233307D02*
X99095501Y-197341521D01*
X97947211Y-197122182D02*
X98509979Y-197233307D01*
X97404022Y-197006559D02*
X97947211Y-197122182D01*
X96876973Y-196886438D02*
X97404022Y-197006559D01*
X96362623Y-196761291D02*
X96876973Y-196886438D01*
X95857534Y-196630057D02*
X96362623Y-196761291D01*
X95358795Y-196492210D02*
X95857534Y-196630057D01*
X94862438Y-196347218D02*
X95358795Y-196492210D01*
X94365815Y-196194289D02*
X94862438Y-196347218D01*
X93864960Y-196033158D02*
X94365815Y-196194289D01*
X93356696Y-195863031D02*
X93864960Y-196033158D01*
X92837849Y-195683115D02*
X93356696Y-195863031D01*
X92304978Y-195492880D02*
X92837849Y-195683115D01*
X91183676Y-195079072D02*
X92304978Y-195492880D01*
X89965800Y-194616581D02*
X91183676Y-195079072D01*
X89965800Y-194616052D02*
X89965800Y-194616581D01*
X89965271Y-194616052D02*
X89965800Y-194616052D01*
X88745014Y-194141125D02*
X89965271Y-194616052D01*
X87612599Y-193686307D02*
X88745014Y-194141125D01*
X87077612Y-193465380D02*
X87612599Y-193686307D01*
X86562204Y-193247893D02*
X87077612Y-193465380D01*
X86065847Y-193033845D02*
X86562204Y-193247893D01*
X85588010Y-192822444D02*
X86065847Y-193033845D01*
X85127635Y-192613423D02*
X85588010Y-192822444D01*
X84683930Y-192406519D02*
X85127635Y-192613423D01*
X84256628Y-192200938D02*
X84683930Y-192406519D01*
X83844408Y-191996415D02*
X84256628Y-192200938D01*
X83447004Y-191792686D02*
X83844408Y-191996415D01*
X83063623Y-191588958D02*
X83447004Y-191792686D01*
X82693207Y-191384964D02*
X83063623Y-191588958D01*
X82335491Y-191180441D02*
X82693207Y-191384964D01*
X81989416Y-190974860D02*
X82335491Y-191180441D01*
X81654190Y-190767692D02*
X81989416Y-190974860D01*
X81329282Y-190558407D02*
X81654190Y-190767692D01*
X81014163Y-190346740D02*
X81329282Y-190558407D01*
X80707512Y-190132164D02*
X81014163Y-190346740D01*
X80409327Y-189914412D02*
X80707512Y-190132164D01*
X80118285Y-189692691D02*
X80409327Y-189914412D01*
X79833859Y-189467002D02*
X80118285Y-189692691D01*
X79555253Y-189236815D02*
X79833859Y-189467002D01*
X79281939Y-189001336D02*
X79555253Y-189236815D01*
X79012858Y-188760565D02*
X79281939Y-189001336D01*
X78747745Y-188513709D02*
X79012858Y-188760565D01*
X78485279Y-188260768D02*
X78747745Y-188513709D01*
X78225459Y-188000683D02*
X78485279Y-188260768D01*
X77966961Y-187733719D02*
X78225459Y-188000683D01*
X77708993Y-187458817D02*
X77966961Y-187733719D01*
X77394139Y-187116182D02*
X77708993Y-187458817D01*
X77106273Y-186791539D02*
X77394139Y-187116182D01*
X76845394Y-186482770D02*
X77106273Y-186791539D01*
X76610179Y-186187496D02*
X76845394Y-186482770D01*
X76400630Y-185903598D02*
X76610179Y-186187496D01*
X76215422Y-185628696D02*
X76400630Y-185903598D01*
X76131813Y-185494024D02*
X76215422Y-185628696D01*
X76054291Y-185360938D02*
X76131813Y-185494024D01*
X75982589Y-185228911D02*
X76054291Y-185360938D01*
X75916443Y-185097678D02*
X75982589Y-185228911D01*
X75856382Y-184966974D02*
X75916443Y-185097678D01*
X75802672Y-184836535D02*
X75856382Y-184966974D01*
X75755312Y-184706360D02*
X75802672Y-184836535D01*
X75714037Y-184576185D02*
X75755312Y-184706360D01*
X75678847Y-184446010D02*
X75714037Y-184576185D01*
X75649743Y-184316365D02*
X75678847Y-184446010D01*
X75626724Y-184186719D02*
X75649743Y-184316365D01*
X75609262Y-184057338D02*
X75626724Y-184186719D01*
X75597885Y-183928221D02*
X75609262Y-184057338D01*
X75592329Y-183799369D02*
X75597885Y-183928221D01*
X75592329Y-183670782D02*
X75592329Y-183799369D01*
X75597885Y-183542195D02*
X75592329Y-183670782D01*
X75608997Y-183413872D02*
X75597885Y-183542195D01*
X75625401Y-183286078D02*
X75608997Y-183413872D01*
X75647362Y-183158285D02*
X75625401Y-183286078D01*
X75699749Y-182898994D02*
X75647362Y-183158285D01*
X75716683Y-182772523D02*
X75699749Y-182898994D01*
X75720122Y-182713256D02*
X75716683Y-182772523D01*
X75719593Y-182655842D02*
X75720122Y-182713256D01*
X75714831Y-182598692D02*
X75719593Y-182655842D01*
X75705306Y-182541542D02*
X75714831Y-182598692D01*
X75690753Y-182483069D02*
X75705306Y-182541542D01*
X75670910Y-182422744D02*
X75690753Y-182483069D01*
X75645245Y-182358980D02*
X75670910Y-182422744D01*
X75613495Y-182291511D02*
X75645245Y-182358980D01*
X75529887Y-182141228D02*
X75613495Y-182291511D01*
X75417175Y-181964222D02*
X75529887Y-182141228D01*
X75270331Y-181758112D02*
X75417175Y-181964222D01*
X75085652Y-181524220D02*
X75270331Y-181758112D01*
X74860492Y-181259373D02*
X75085652Y-181524220D01*
X74592999Y-180960923D02*
X74860492Y-181259373D01*
X74281320Y-180625961D02*
X74592999Y-180960923D01*
X73923339Y-180252105D02*
X74281320Y-180625961D01*
X73516675Y-179836181D02*
X73923339Y-180252105D01*
X73059740Y-179375542D02*
X73516675Y-179836181D01*
X73058682Y-179374483D02*
X73059740Y-179375542D01*
X73057623Y-179373425D02*
X73058682Y-179374483D01*
X72693557Y-179000628D02*
X73057623Y-179373425D01*
X72329226Y-178619099D02*
X72693557Y-179000628D01*
X71972833Y-178237835D02*
X72329226Y-178619099D01*
X71632844Y-177866096D02*
X71972833Y-178237835D01*
X71317461Y-177512348D02*
X71632844Y-177866096D01*
X71035151Y-177185588D02*
X71317461Y-177512348D01*
X70794116Y-176895076D02*
X71035151Y-177185588D01*
X70603087Y-176649278D02*
X70794116Y-176895076D01*
X70602029Y-176647691D02*
X70603087Y-176649278D01*
X70601499Y-176647162D02*
X70602029Y-176647691D01*
X70316279Y-176260341D02*
X70601499Y-176647162D01*
X70014654Y-175838067D02*
X70316279Y-176260341D01*
X69699271Y-175382720D02*
X70014654Y-175838067D01*
X69373570Y-174896416D02*
X69699271Y-175382720D01*
X69040195Y-174382331D02*
X69373570Y-174896416D01*
X68702323Y-173842317D02*
X69040195Y-174382331D01*
X68363392Y-173279285D02*
X68702323Y-173842317D01*
X68025784Y-172695879D02*
X68363392Y-173279285D01*
X67693203Y-172094218D02*
X68025784Y-172695879D01*
X67368560Y-171476945D02*
X67693203Y-172094218D01*
X67210075Y-171163415D02*
X67368560Y-171476945D01*
X67054764Y-170846709D02*
X67210075Y-171163415D01*
X66902894Y-170527622D02*
X67054764Y-170846709D01*
X66754992Y-170205889D02*
X66902894Y-170527622D01*
X66611323Y-169882568D02*
X66754992Y-170205889D01*
X66472153Y-169557131D02*
X66611323Y-169882568D01*
X66338009Y-169230636D02*
X66472153Y-169557131D01*
X66209422Y-168903082D02*
X66338009Y-169230636D01*
X66086655Y-168574734D02*
X66209422Y-168903082D01*
X65969974Y-168245858D02*
X66086655Y-168574734D01*
X65859908Y-167916981D02*
X65969974Y-168245858D01*
X65756720Y-167588104D02*
X65859908Y-167916981D01*
X65756720Y-167587575D02*
X65756720Y-167588104D01*
X65685812Y-167337015D02*
X65756720Y-167587575D01*
X65623106Y-167083016D02*
X65685812Y-167337015D01*
X65568337Y-166826370D02*
X65623106Y-167083016D01*
X65521241Y-166567343D02*
X65568337Y-166826370D01*
X65481289Y-166306200D02*
X65521241Y-166567343D01*
X65447952Y-166043469D02*
X65481289Y-166306200D01*
X65420700Y-165779415D02*
X65447952Y-166043469D01*
X65399533Y-165514832D02*
X65420700Y-165779415D01*
X65383394Y-165249455D02*
X65399533Y-165514832D01*
X65372281Y-164984343D02*
X65383394Y-165249455D01*
X65365666Y-164719496D02*
X65372281Y-164984343D01*
X65363285Y-164455177D02*
X65365666Y-164719496D01*
X65368312Y-163930774D02*
X65363285Y-164455177D01*
X65384716Y-163414308D02*
X65368312Y-163930774D01*
X65406941Y-162933031D02*
X65384716Y-163414308D01*
X65432871Y-162467630D02*
X65406941Y-162933031D01*
X65487110Y-161594241D02*
X65432871Y-162467630D01*
X65510658Y-161191810D02*
X65487110Y-161594241D01*
X65528914Y-160815838D02*
X65510658Y-161191810D01*
X65539762Y-160468705D02*
X65528914Y-160815838D01*
X65540820Y-160153587D02*
X65539762Y-160468705D01*
X65436310Y-160014945D02*
X65540820Y-160153587D01*
X65323333Y-159873393D02*
X65436310Y-160014945D01*
X65201890Y-159728931D02*
X65323333Y-159873393D01*
X65072773Y-159581558D02*
X65201890Y-159728931D01*
X64793373Y-159279405D02*
X65072773Y-159581558D01*
X64488574Y-158967990D02*
X64793373Y-159279405D01*
X64162872Y-158648903D02*
X64488574Y-158967990D01*
X63819973Y-158323202D02*
X64162872Y-158648903D01*
X63099090Y-157657511D02*
X63819973Y-158323202D01*
X62328703Y-156948957D02*
X63099090Y-157657511D01*
X61950614Y-156591241D02*
X62328703Y-156948957D01*
X61583638Y-156230879D02*
X61950614Y-156591241D01*
X61232510Y-155868136D02*
X61583638Y-156230879D01*
X61064394Y-155685838D02*
X61232510Y-155868136D01*
X60902019Y-155503011D02*
X61064394Y-155685838D01*
X60745994Y-155319655D02*
X60902019Y-155503011D01*
X60596928Y-155135506D02*
X60745994Y-155319655D01*
X60455403Y-154951091D02*
X60596928Y-155135506D01*
X60322000Y-154765619D02*
X60455403Y-154951091D01*
X59918352Y-154177980D02*
X60322000Y-154765619D01*
X59564393Y-153638495D02*
X59918352Y-154177980D01*
X59255149Y-153141608D02*
X59564393Y-153638495D01*
X58985644Y-152681234D02*
X59255149Y-153141608D01*
X58750906Y-152252080D02*
X58985644Y-152681234D01*
X58546013Y-151847533D02*
X58750906Y-152252080D01*
X58365964Y-151462564D02*
X58546013Y-151847533D01*
X58205839Y-151090825D02*
X58365964Y-151462564D01*
X58060636Y-150726759D02*
X58205839Y-151090825D01*
X57925407Y-150364280D02*
X58060636Y-150726759D01*
X57795206Y-149997833D02*
X57925407Y-150364280D01*
X57665031Y-149621596D02*
X57795206Y-149997833D01*
X57385049Y-148815676D02*
X57665031Y-149621596D01*
X57225268Y-148374616D02*
X57385049Y-148815676D01*
X57045722Y-147900483D02*
X57225268Y-148374616D01*
X57021301Y-147849684D02*
X57045722Y-147900483D01*
X56985397Y-147791475D02*
X57021301Y-147849684D01*
X56938539Y-147725859D02*
X56985397Y-147791475D01*
X56881336Y-147653892D02*
X56938539Y-147725859D01*
X56738065Y-147491967D02*
X56881336Y-147653892D01*
X56560133Y-147310463D02*
X56738065Y-147491967D01*
X56352091Y-147113614D02*
X56560133Y-147310463D01*
X56118464Y-146905651D02*
X56352091Y-147113614D01*
X55863777Y-146691339D02*
X56118464Y-146905651D01*
X55592579Y-146474646D02*
X55863777Y-146691339D01*
X55022905Y-146037025D02*
X55592579Y-146474646D01*
X54733769Y-145813717D02*
X55022905Y-146037025D01*
X54447411Y-145587499D02*
X54733769Y-145813717D01*
X54168011Y-145357841D02*
X54447411Y-145587499D01*
X53899830Y-145125272D02*
X54168011Y-145357841D01*
X53647047Y-144889264D02*
X53899830Y-145125272D01*
X53527747Y-144770202D02*
X53647047Y-144889264D01*
X53413897Y-144650081D02*
X53527747Y-144770202D01*
X53412336Y-144649023D02*
X53413897Y-144650081D01*
X53149843Y-144366713D02*
X53412336Y-144649023D01*
X52894071Y-144083080D02*
X53149843Y-144366713D01*
X52644966Y-143798124D02*
X52894071Y-144083080D01*
X52402449Y-143511845D02*
X52644966Y-143798124D01*
X52166441Y-143224244D02*
X52402449Y-143511845D01*
X51936862Y-142935583D02*
X52166441Y-143224244D01*
X51713633Y-142645600D02*
X51936862Y-142935583D01*
X51496702Y-142354824D02*
X51713633Y-142645600D01*
X51285962Y-142062724D02*
X51496702Y-142354824D01*
X51081386Y-141769831D02*
X51285962Y-142062724D01*
X50882843Y-141476144D02*
X51081386Y-141769831D01*
X50690306Y-141181663D02*
X50882843Y-141476144D01*
X50503695Y-140886124D02*
X50690306Y-141181663D01*
X50322906Y-140590055D02*
X50503695Y-140886124D01*
X50147884Y-140293458D02*
X50322906Y-140590055D01*
X49978551Y-139996066D02*
X50147884Y-140293458D01*
X49814827Y-139698146D02*
X49978551Y-139996066D01*
X49656659Y-139399696D02*
X49814827Y-139698146D01*
X49503942Y-139100982D02*
X49656659Y-139399696D01*
X49356622Y-138801739D02*
X49503942Y-139100982D01*
X49214621Y-138501966D02*
X49356622Y-138801739D01*
X49077858Y-138202194D02*
X49214621Y-138501966D01*
X48946280Y-137902156D02*
X49077858Y-138202194D01*
X48819783Y-137602119D02*
X48946280Y-137902156D01*
X48698313Y-137301818D02*
X48819783Y-137602119D01*
X48581791Y-137001516D02*
X48698313Y-137301818D01*
X48470137Y-136701214D02*
X48581791Y-137001516D01*
X48363298Y-136401177D02*
X48470137Y-136701214D01*
X48261143Y-136100875D02*
X48363298Y-136401177D01*
X48163670Y-135801103D02*
X48261143Y-136100875D01*
X48070749Y-135501595D02*
X48163670Y-135801103D01*
X47982352Y-135202087D02*
X48070749Y-135501595D01*
X47898347Y-134903108D02*
X47982352Y-135202087D01*
X47818707Y-134604659D02*
X47898347Y-134903108D01*
X47743354Y-134306473D02*
X47818707Y-134604659D01*
X47672208Y-134009082D02*
X47743354Y-134306473D01*
X47542191Y-133415887D02*
X47672208Y-134009082D01*
X47428077Y-132825338D02*
X47542191Y-133415887D01*
X47329308Y-132238228D02*
X47428077Y-132825338D01*
X47245250Y-131654823D02*
X47329308Y-132238228D01*
X47175321Y-131075386D02*
X47245250Y-131654823D01*
X47118938Y-130500976D02*
X47175321Y-131075386D01*
X47075493Y-129931329D02*
X47118938Y-130500976D01*
X47044379Y-129367238D02*
X47075493Y-129931329D01*
X47025011Y-128809497D02*
X47044379Y-129367238D01*
X47016783Y-128257842D02*
X47025011Y-128809497D01*
X47019137Y-127713330D02*
X47016783Y-128257842D01*
X47031440Y-127175962D02*
X47019137Y-127713330D01*
X47053110Y-126646796D02*
X47031440Y-127175962D01*
X47083537Y-126125567D02*
X47053110Y-126646796D01*
X47086130Y-126087467D02*
X47083537Y-126125567D01*
X47094385Y-126049632D02*
X47086130Y-126087467D01*
X47405137Y-124689411D02*
X47094385Y-126049632D01*
X47549335Y-124087484D02*
X47405137Y-124689411D01*
X47690675Y-123528685D02*
X47549335Y-124087484D01*
X47832571Y-123006134D02*
X47690675Y-123528685D01*
X47978489Y-122512951D02*
X47832571Y-123006134D01*
X48131894Y-122042258D02*
X47978489Y-122512951D01*
X48212486Y-121813129D02*
X48131894Y-122042258D01*
X48296227Y-121587175D02*
X48212486Y-121813129D01*
X48383539Y-121363338D02*
X48296227Y-121587175D01*
X48474899Y-121140559D02*
X48383539Y-121363338D01*
X48570705Y-120918574D02*
X48474899Y-121140559D01*
X48671379Y-120696059D02*
X48570705Y-120918574D01*
X48777397Y-120472222D02*
X48671379Y-120696059D01*
X48889131Y-120246268D02*
X48777397Y-120472222D01*
X49007055Y-120017404D02*
X48889131Y-120246268D01*
X49131568Y-119784836D02*
X49007055Y-120017404D01*
X49402131Y-119304353D02*
X49131568Y-119784836D01*
X49704311Y-118798206D02*
X49402131Y-119304353D01*
X50041522Y-118259779D02*
X49704311Y-118798206D01*
X50417177Y-117681665D02*
X50041522Y-118259779D01*
X48424549Y-109332220D02*
X50417177Y-117681665D01*
X48422988Y-109326134D02*
X48424549Y-109332220D01*
X48322367Y-108829247D02*
X48422988Y-109326134D01*
X48230583Y-108336065D02*
X48322367Y-108829247D01*
X48147425Y-107846321D02*
X48230583Y-108336065D01*
X48072654Y-107360282D02*
X48147425Y-107846321D01*
X48006005Y-106877418D02*
X48072654Y-107360282D01*
X47947268Y-106398259D02*
X48006005Y-106877418D01*
X47896177Y-105922274D02*
X47947268Y-106398259D01*
X47852521Y-105449729D02*
X47896177Y-105922274D01*
X47816061Y-104980358D02*
X47852521Y-105449729D01*
X47786507Y-104514163D02*
X47816061Y-104980358D01*
X47763700Y-104051143D02*
X47786507Y-104514163D01*
X47747349Y-103591298D02*
X47763700Y-104051143D01*
X47737216Y-103134627D02*
X47747349Y-103591298D01*
X47733088Y-102680603D02*
X47737216Y-103134627D01*
X47734702Y-102229753D02*
X47733088Y-102680603D01*
X47741846Y-101781814D02*
X47734702Y-102229753D01*
X47754228Y-101336521D02*
X47741846Y-101781814D01*
X47771691Y-100894403D02*
X47754228Y-101336521D01*
X47793916Y-100454666D02*
X47771691Y-100894403D01*
X47820718Y-100017575D02*
X47793916Y-100454666D01*
X47851859Y-99583394D02*
X47820718Y-100017575D01*
X47887049Y-99151595D02*
X47851859Y-99583394D01*
X47968752Y-98295669D02*
X47887049Y-99151595D01*
X48063923Y-97449532D02*
X47968752Y-98295669D01*
X48170629Y-96612656D02*
X48063923Y-97449532D01*
X48286993Y-95784512D02*
X48170629Y-96612656D01*
X48411108Y-94964833D02*
X48286993Y-95784512D01*
X48416771Y-94927527D02*
X48411108Y-94964833D01*
X48428148Y-94891279D02*
X48416771Y-94927527D01*
X48535383Y-94558169D02*
X48428148Y-94891279D01*
X48645899Y-94228764D02*
X48535383Y-94558169D01*
X48759538Y-93903062D02*
X48645899Y-94228764D01*
X48876219Y-93581594D02*
X48759538Y-93903062D01*
X48995784Y-93264094D02*
X48876219Y-93581594D01*
X49118154Y-92951092D02*
X48995784Y-93264094D01*
X49243169Y-92642588D02*
X49118154Y-92951092D01*
X49370751Y-92338847D02*
X49243169Y-92642588D01*
X49500714Y-92039604D02*
X49370751Y-92338847D01*
X49632979Y-91745652D02*
X49500714Y-92039604D01*
X49767414Y-91456727D02*
X49632979Y-91745652D01*
X49903912Y-91172830D02*
X49767414Y-91456727D01*
X50042342Y-90894753D02*
X49903912Y-91172830D01*
X50182545Y-90621968D02*
X50042342Y-90894753D01*
X50324467Y-90355004D02*
X50182545Y-90621968D01*
X50467924Y-90094125D02*
X50324467Y-90355004D01*
X50612836Y-89839067D02*
X50467924Y-90094125D01*
X50759044Y-89590359D02*
X50612836Y-89839067D01*
X50906444Y-89348001D02*
X50759044Y-89590359D01*
X51054954Y-89112258D02*
X50906444Y-89348001D01*
X51204391Y-88883129D02*
X51054954Y-89112258D01*
X51354647Y-88660879D02*
X51204391Y-88883129D01*
X51505618Y-88445508D02*
X51354647Y-88660879D01*
X51657171Y-88237282D02*
X51505618Y-88445508D01*
X51809174Y-88036463D02*
X51657171Y-88237282D01*
X51961521Y-87843053D02*
X51809174Y-88036463D01*
X52114106Y-87657316D02*
X51961521Y-87843053D01*
X52266771Y-87479516D02*
X52114106Y-87657316D01*
X52419409Y-87309389D02*
X52266771Y-87479516D01*
X52571888Y-87147464D02*
X52419409Y-87309389D01*
X52724102Y-86993741D02*
X52571888Y-87147464D01*
X52875947Y-86848485D02*
X52724102Y-86993741D01*
X52881609Y-86842929D02*
X52875947Y-86848485D01*
X52887297Y-86837637D02*
X52881609Y-86842929D01*
X53047873Y-86694763D02*
X52887297Y-86837637D01*
X53075945Y-86665659D02*
X53047873Y-86694763D01*
X53086264Y-86648990D02*
X53075945Y-86665659D01*
X53094492Y-86608773D02*
X53086264Y-86648990D01*
X53101742Y-86509819D02*
X53094492Y-86608773D01*
X53099069Y-86341544D02*
X53101742Y-86509819D01*
X53091211Y-86228038D02*
X53099069Y-86341544D01*
X53077479Y-86093630D02*
X53091211Y-86228038D01*
X53031945Y-85760785D02*
X53077479Y-86093630D01*
X52963127Y-85338510D02*
X53031945Y-85760785D01*
X52870443Y-84816488D02*
X52963127Y-85338510D01*
X52753365Y-84184399D02*
X52870443Y-84816488D01*
X52443803Y-82548218D02*
X52753365Y-84184399D01*
X52342653Y-81988096D02*
X52443803Y-82548218D01*
X52249467Y-81429296D02*
X52342653Y-81988096D01*
X52162684Y-80869703D02*
X52249467Y-81429296D01*
X52080769Y-80306406D02*
X52162684Y-80869703D01*
X52057988Y-80128077D02*
X52080769Y-80306406D01*
X52040473Y-79947367D02*
X52057988Y-80128077D01*
X52029572Y-79766392D02*
X52040473Y-79947367D01*
X52026662Y-79586740D02*
X52029572Y-79766392D01*
X52037562Y-78932691D02*
X52026662Y-79586740D01*
X52053834Y-78291607D02*
X52037562Y-78932691D01*
X52075398Y-77663222D02*
X52053834Y-78291607D01*
X52102253Y-77047008D02*
X52075398Y-77663222D01*
X52134268Y-76442965D02*
X52102253Y-77047008D01*
X52171415Y-75850828D02*
X52134268Y-76442965D01*
X52213642Y-75270333D02*
X52171415Y-75850828D01*
X52260897Y-74701480D02*
X52213642Y-75270333D01*
X52313073Y-74143739D02*
X52260897Y-74701480D01*
X52370143Y-73597110D02*
X52313073Y-74143739D01*
X52432029Y-73061330D02*
X52370143Y-73597110D01*
X52498678Y-72536133D02*
X52432029Y-73061330D01*
X52570036Y-72021254D02*
X52498678Y-72536133D01*
X52646024Y-71516430D02*
X52570036Y-72021254D01*
X52726589Y-71021659D02*
X52646024Y-71516430D01*
X52811679Y-70536679D02*
X52726589Y-71021659D01*
X52901241Y-70061223D02*
X52811679Y-70536679D01*
X52995194Y-69594763D02*
X52901241Y-70061223D01*
X53093460Y-69137564D02*
X52995194Y-69594763D01*
X53196013Y-68689096D02*
X53093460Y-69137564D01*
X53302772Y-68249359D02*
X53196013Y-68689096D01*
X53413685Y-67818089D02*
X53302772Y-68249359D01*
X53528673Y-67395020D02*
X53413685Y-67818089D01*
X53647709Y-66979625D02*
X53528673Y-67395020D01*
X53770713Y-66572167D02*
X53647709Y-66979625D01*
X53897607Y-66172118D02*
X53770713Y-66572167D01*
X54028364Y-65779476D02*
X53897607Y-66172118D01*
X54162878Y-65393979D02*
X54028364Y-65779476D01*
X54301123Y-65015096D02*
X54162878Y-65393979D01*
X54443045Y-64643093D02*
X54301123Y-65015096D01*
X54588539Y-64277174D02*
X54443045Y-64643093D01*
X54737579Y-63917871D02*
X54588539Y-64277174D01*
X54890111Y-63564123D02*
X54737579Y-63917871D01*
X55046030Y-63216461D02*
X54890111Y-63564123D01*
X55205335Y-62874355D02*
X55046030Y-63216461D01*
X55367922Y-62537276D02*
X55205335Y-62874355D01*
X55533736Y-62205489D02*
X55367922Y-62537276D01*
X55702698Y-61878465D02*
X55533736Y-62205489D01*
X55874810Y-61556203D02*
X55702698Y-61878465D01*
X56049937Y-61238438D02*
X55874810Y-61556203D01*
X56228054Y-60924908D02*
X56049937Y-61238438D01*
X56409109Y-60615081D02*
X56228054Y-60924908D01*
X56593020Y-60309223D02*
X56409109Y-60615081D01*
X56779736Y-60007069D02*
X56593020Y-60309223D01*
X56969204Y-59708090D02*
X56779736Y-60007069D01*
X57356078Y-59119129D02*
X56969204Y-59708090D01*
X57753217Y-58541015D02*
X57356078Y-59119129D01*
X58160066Y-57971897D02*
X57753217Y-58541015D01*
X58576176Y-57409922D02*
X58160066Y-57971897D01*
X59001043Y-56853504D02*
X58576176Y-57409922D01*
X59434165Y-56300526D02*
X59001043Y-56853504D01*
X59875093Y-55749664D02*
X59434165Y-56300526D01*
X60323297Y-55198802D02*
X59875093Y-55749664D01*
X60731707Y-54738957D02*
X60323297Y-55198802D01*
X60805182Y-54661170D02*
X60731707Y-54738957D01*
X60879953Y-54587880D02*
X60805182Y-54661170D01*
X61034522Y-54449503D02*
X60879953Y-54587880D01*
X61197320Y-54315095D02*
X61034522Y-54449503D01*
X61370278Y-54175131D02*
X61197320Y-54315095D01*
X62197841Y-53648611D02*
X61370278Y-54175131D01*
X63426802Y-52818349D02*
X62197841Y-53648611D01*
X64011795Y-52430206D02*
X63426802Y-52818349D01*
X64579590Y-52059790D02*
X64011795Y-52430206D01*
X65131511Y-51706571D02*
X64579590Y-52059790D01*
X65669408Y-51370551D02*
X65131511Y-51706571D01*
X66194605Y-51050670D02*
X65669408Y-51370551D01*
X66709219Y-50747458D02*
X66194605Y-51050670D01*
X67214572Y-50460121D02*
X66709219Y-50747458D01*
X67712518Y-50188129D02*
X67214572Y-50460121D01*
X68204377Y-49931749D02*
X67712518Y-50188129D01*
X68692004Y-49690184D02*
X68204377Y-49931749D01*
X69176985Y-49463172D02*
X68692004Y-49690184D01*
X69661171Y-49250447D02*
X69176985Y-49463172D01*
X70145888Y-49051745D02*
X69661171Y-49250447D01*
X70632985Y-48866537D02*
X70145888Y-49051745D01*
X71124051Y-48694823D02*
X70632985Y-48866537D01*
X71620673Y-48535809D02*
X71124051Y-48694823D01*
X72124439Y-48389494D02*
X71620673Y-48535809D01*
X72637201Y-48255615D02*
X72124439Y-48389494D01*
X73160546Y-48133378D02*
X72637201Y-48255615D01*
X73696062Y-48023047D02*
X73160546Y-48133378D01*
X74245337Y-47923828D02*
X73696062Y-48023047D01*
X74810221Y-47835722D02*
X74245337Y-47923828D01*
X75392039Y-47757935D02*
X74810221Y-47835722D01*
X75992643Y-47690731D02*
X75392039Y-47757935D01*
X76613619Y-47633316D02*
X75992643Y-47690731D01*
X77256556Y-47585691D02*
X76613619Y-47633316D01*
X77923305Y-47547062D02*
X77256556Y-47585691D01*
X78598521Y-47519281D02*
X77923305Y-47547062D01*
X78698798Y-47512666D02*
X78598521Y-47519281D01*
X78840879Y-47507639D02*
X78698798Y-47512666D01*
X79131920Y-47500760D02*
X78840879Y-47507639D01*
X79608169Y-47492293D02*
X79131920Y-47500760D01*
X79599703Y-48007966D02*
X79608169Y-47492293D01*
X79588590Y-48470457D02*
X79599703Y-48007966D01*
X79585415Y-48941679D02*
X79588590Y-48470457D01*
X79590178Y-49420574D02*
X79585415Y-48941679D01*
X79603142Y-49906613D02*
X79590178Y-49420574D01*
X79623515Y-50398473D02*
X79603142Y-49906613D01*
X79651561Y-50895360D02*
X79623515Y-50398473D01*
X79687015Y-51396480D02*
X79651561Y-50895360D01*
X79729613Y-51900511D02*
X79687015Y-51396480D01*
X79779090Y-52406923D02*
X79729613Y-51900511D01*
X79835446Y-52914657D02*
X79779090Y-52406923D01*
X79898681Y-53422657D02*
X79835446Y-52914657D01*
X79968267Y-53930127D02*
X79898681Y-53422657D01*
X80044202Y-54436010D02*
X79968267Y-53930127D01*
X80126223Y-54939511D02*
X80044202Y-54436010D01*
X80214594Y-55439308D02*
X80126223Y-54939511D01*
X80308521Y-55935137D02*
X80214594Y-55439308D01*
X80408004Y-56425409D02*
X80308521Y-55935137D01*
X80513308Y-56909596D02*
X80408004Y-56425409D01*
X80623639Y-57386375D02*
X80513308Y-56909596D01*
X80739262Y-57855216D02*
X80623639Y-57386375D01*
X80859912Y-58315061D02*
X80739262Y-57855216D01*
X80985324Y-58764852D02*
X80859912Y-58315061D01*
X81115499Y-59203795D02*
X80985324Y-58764852D01*
X81250171Y-59630568D02*
X81115499Y-59203795D01*
X81389078Y-60044905D02*
X81250171Y-59630568D01*
X81531952Y-60445219D02*
X81389078Y-60044905D01*
X81679061Y-60830981D02*
X81531952Y-60445219D01*
X81829873Y-61201132D02*
X81679061Y-60830981D01*
X81984389Y-61554880D02*
X81829873Y-61201132D01*
X82142345Y-61890900D02*
X81984389Y-61554880D01*
X82303476Y-62208664D02*
X82142345Y-61890900D01*
X82467782Y-62506849D02*
X82303476Y-62208664D01*
X82898788Y-63256678D02*
X82467782Y-62506849D01*
X82891644Y-63256678D02*
X82898788Y-63256678D01*
X83151465Y-63729223D02*
X82891644Y-63256678D01*
X83457323Y-64256008D02*
X83151465Y-63729223D01*
X83808689Y-64835444D02*
X83457323Y-64256008D01*
X84205034Y-65465681D02*
X83808689Y-64835444D01*
X84645301Y-66144336D02*
X84205034Y-65465681D01*
X85128958Y-66870088D02*
X84645301Y-66144336D01*
X85655478Y-67640553D02*
X85128958Y-66870088D01*
X86224332Y-68453881D02*
X85655478Y-67640553D01*
X86936060Y-69451624D02*
X86224332Y-68453881D01*
X87683507Y-70481910D02*
X86936060Y-69451624D01*
X88461381Y-71536803D02*
X87683507Y-70481910D01*
X89264126Y-72609687D02*
X88461381Y-71536803D01*
X90086185Y-73692360D02*
X89264126Y-72609687D01*
X90922268Y-74778209D02*
X90086185Y-73692360D01*
X91766552Y-75859560D02*
X90922268Y-74778209D01*
X92614011Y-76929269D02*
X91766552Y-75859560D01*
X92619038Y-76935883D02*
X92614011Y-76929269D01*
X92624330Y-76942762D02*
X92619038Y-76935883D01*
X92923309Y-77339902D02*
X92624330Y-76942762D01*
X93218848Y-77723811D02*
X92923309Y-77339902D01*
X93512535Y-78096609D02*
X93218848Y-77723811D01*
X93806222Y-78459881D02*
X93512535Y-78096609D01*
X94101762Y-78816010D02*
X93806222Y-78459881D01*
X94400740Y-79166583D02*
X94101762Y-78816010D01*
X94705011Y-79514245D02*
X94400740Y-79166583D01*
X95016425Y-79860584D02*
X94705011Y-79514245D01*
X95336835Y-80207717D02*
X95016425Y-79860584D01*
X95668093Y-80557760D02*
X95336835Y-80207717D01*
X96011786Y-80912566D02*
X95668093Y-80557760D01*
X96369767Y-81274515D02*
X96011786Y-80912566D01*
X96744152Y-81645196D02*
X96369767Y-81274515D01*
X97136264Y-82026989D02*
X96744152Y-81645196D01*
X97547955Y-82421483D02*
X97136264Y-82026989D01*
X97981342Y-82831322D02*
X97547955Y-82421483D01*
X98919818Y-83703652D02*
X97981342Y-82831322D01*
X99965979Y-84660384D02*
X98919818Y-83703652D01*
X101133848Y-85717658D02*
X99965979Y-84660384D01*
X102438243Y-86891877D02*
X101133848Y-85717658D01*
X105513491Y-89654917D02*
X102438243Y-86891877D01*
X107313184Y-91276546D02*
X105513491Y-89654917D01*
X109306553Y-93079680D02*
X107313184Y-91276546D01*
X109720096Y-93448508D02*
X109306553Y-93079680D01*
X110140518Y-93811781D02*
X109720096Y-93448508D01*
X110567555Y-94169232D02*
X110140518Y-93811781D01*
X111000942Y-94520863D02*
X110567555Y-94169232D01*
X111440679Y-94866938D02*
X111000942Y-94520863D01*
X111886237Y-95207456D02*
X111440679Y-94866938D01*
X112337616Y-95542418D02*
X111886237Y-95207456D01*
X112794550Y-95871824D02*
X112337616Y-95542418D01*
X113256777Y-96195674D02*
X112794550Y-95871824D01*
X113724295Y-96513967D02*
X113256777Y-96195674D01*
X114196576Y-96826969D02*
X113724295Y-96513967D01*
X114673354Y-97134414D02*
X114196576Y-96826969D01*
X115154631Y-97436832D02*
X114673354Y-97134414D01*
X115640405Y-97733430D02*
X115154631Y-97436832D01*
X116129884Y-98025000D02*
X115640405Y-97733430D01*
X116623331Y-98311279D02*
X116129884Y-98025000D01*
X117120483Y-98592531D02*
X116623331Y-98311279D01*
X117620809Y-98868226D02*
X117120483Y-98592531D01*
X118124310Y-99138895D02*
X117620809Y-98868226D01*
X118630722Y-99404536D02*
X118124310Y-99138895D01*
X119140045Y-99664886D02*
X118630722Y-99404536D01*
X119651748Y-99920473D02*
X119140045Y-99664886D01*
X120165568Y-100170769D02*
X119651748Y-99920473D01*
X120681770Y-100416037D02*
X120165568Y-100170769D01*
X121199559Y-100656543D02*
X120681770Y-100416037D01*
X121719200Y-100892022D02*
X121199559Y-100656543D01*
X122240164Y-101122738D02*
X121719200Y-100892022D01*
X122762186Y-101348692D02*
X122240164Y-101122738D01*
X123285531Y-101569619D02*
X122762186Y-101348692D01*
X123809405Y-101785783D02*
X123285531Y-101569619D01*
X124333809Y-101997185D02*
X123809405Y-101785783D01*
X124858742Y-102203824D02*
X124333809Y-101997185D01*
X125383674Y-102405966D02*
X124858742Y-102203824D01*
X125908342Y-102603345D02*
X125383674Y-102405966D01*
X126433010Y-102796226D02*
X125908342Y-102603345D01*
X126956885Y-102984609D02*
X126433010Y-102796226D01*
X127480230Y-103168229D02*
X126956885Y-102984609D01*
X128002517Y-103347352D02*
X127480230Y-103168229D01*
X129043386Y-103692368D02*
X128002517Y-103347352D01*
X130077641Y-104019922D02*
X129043386Y-103692368D01*
X131103959Y-104330013D02*
X130077641Y-104019922D01*
X132120222Y-104623171D02*
X131103959Y-104330013D01*
X133124844Y-104899396D02*
X132120222Y-104623171D01*
X134115972Y-105159216D02*
X133124844Y-104899396D01*
X135092018Y-105402897D02*
X134115972Y-105159216D01*
X136051396Y-105630439D02*
X135092018Y-105402897D01*
X136991989Y-105842634D02*
X136051396Y-105630439D01*
X137912208Y-106039220D02*
X136991989Y-105842634D01*
X138810468Y-106220723D02*
X137912208Y-106039220D01*
X139684915Y-106387675D02*
X138810468Y-106220723D01*
X140533961Y-106539811D02*
X139684915Y-106387675D01*
X140558303Y-106543779D02*
X140533961Y-106539811D01*
X140581586Y-106550129D02*
X140558303Y-106543779D01*
X140976609Y-106654375D02*
X140581586Y-106550129D01*
X141381950Y-106752800D02*
X140976609Y-106654375D01*
X141797610Y-106845669D02*
X141381950Y-106752800D01*
X142223059Y-106932981D02*
X141797610Y-106845669D01*
X142658298Y-107015002D02*
X142223059Y-106932981D01*
X143103062Y-107091731D02*
X142658298Y-107015002D01*
X143557087Y-107163697D02*
X143103062Y-107091731D01*
X144019842Y-107230901D02*
X143557087Y-107163697D01*
X144491329Y-107293608D02*
X144019842Y-107230901D01*
X144971283Y-107351816D02*
X144491329Y-107293608D01*
X145459703Y-107406055D02*
X144971283Y-107351816D01*
X145955796Y-107456326D02*
X145459703Y-107406055D01*
X146459562Y-107502628D02*
X145955796Y-107456326D01*
X146971001Y-107545755D02*
X146459562Y-107502628D01*
X148014781Y-107621426D02*
X146971001Y-107545755D01*
X149085548Y-107685455D02*
X148014781Y-107621426D01*
X150180922Y-107738901D02*
X149085548Y-107685455D01*
X151299050Y-107783615D02*
X150180922Y-107738901D01*
X152438080Y-107821186D02*
X151299050Y-107783615D01*
X153595895Y-107852936D02*
X152438080Y-107821186D01*
X154770379Y-107880188D02*
X153595895Y-107852936D01*
X157161415Y-107928871D02*
X154770379Y-107880188D01*
X159596108Y-107979671D02*
X157161415Y-107928871D01*
X160825096Y-108010098D02*
X159596108Y-107979671D01*
X162059376Y-108046346D02*
X160825096Y-108010098D01*
X163297360Y-108089738D02*
X162059376Y-108046346D01*
X164536667Y-108142390D02*
X163297360Y-108089738D01*
X165775973Y-108205361D02*
X164536667Y-108142390D01*
X167012899Y-108280502D02*
X165775973Y-108205361D01*
X168245856Y-108369931D02*
X167012899Y-108280502D01*
X168860482Y-108420202D02*
X168245856Y-108369931D01*
X169472992Y-108474706D02*
X168860482Y-108420202D01*
X170083914Y-108533443D02*
X169472992Y-108474706D01*
X170692455Y-108596679D02*
X170083914Y-108533443D01*
X171298879Y-108664677D02*
X170692455Y-108596679D01*
X171902393Y-108737702D02*
X171298879Y-108664677D01*
X172503261Y-108815754D02*
X171902393Y-108737702D01*
X173100954Y-108899362D02*
X172503261Y-108815754D01*
X173695207Y-108988262D02*
X173100954Y-108899362D01*
X174286021Y-109082982D02*
X173695207Y-108988262D01*
X174872866Y-109183788D02*
X174286021Y-109082982D01*
X175456007Y-109290680D02*
X174872866Y-109183788D01*
X176034650Y-109404186D02*
X175456007Y-109290680D01*
X176608795Y-109524042D02*
X176034650Y-109404186D01*
X176630491Y-109528805D02*
X176608795Y-109524042D01*
X176652187Y-109535419D02*
X176630491Y-109528805D01*
X177167330Y-109698402D02*
X176652187Y-109535419D01*
X177673212Y-109863238D02*
X177167330Y-109698402D01*
X178169570Y-110029660D02*
X177673212Y-109863238D01*
X178656667Y-110198200D02*
X178169570Y-110029660D01*
X179134769Y-110368856D02*
X178656667Y-110198200D01*
X179603610Y-110541364D02*
X179134769Y-110368856D01*
X180063984Y-110715989D02*
X179603610Y-110541364D01*
X180515363Y-110892995D02*
X180063984Y-110715989D01*
X180958540Y-111072117D02*
X180515363Y-110892995D01*
X181393249Y-111253886D02*
X180958540Y-111072117D01*
X181819493Y-111437771D02*
X181393249Y-111253886D01*
X182237798Y-111624302D02*
X181819493Y-111437771D01*
X182648167Y-111813479D02*
X182237798Y-111624302D01*
X183050862Y-112005037D02*
X182648167Y-111813479D01*
X183445620Y-112199506D02*
X183050862Y-112005037D01*
X183833234Y-112396620D02*
X183445620Y-112199506D01*
X184213175Y-112596645D02*
X183833234Y-112396620D01*
X184585973Y-112799315D02*
X184213175Y-112596645D01*
X184951626Y-113005425D02*
X184585973Y-112799315D01*
X185310401Y-113214181D02*
X184951626Y-113005425D01*
X185662296Y-113426377D02*
X185310401Y-113214181D01*
X186007577Y-113641483D02*
X185662296Y-113426377D01*
X186346508Y-113860028D02*
X186007577Y-113641483D01*
X186678824Y-114081749D02*
X186346508Y-113860028D01*
X187005055Y-114307174D02*
X186678824Y-114081749D01*
X187325200Y-114535773D02*
X187005055Y-114307174D01*
X187639525Y-114768077D02*
X187325200Y-114535773D01*
X187947764Y-115003821D02*
X187639525Y-114768077D01*
X188250712Y-115243533D02*
X187947764Y-115003821D01*
X188547838Y-115486685D02*
X188250712Y-115243533D01*
X188839938Y-115733805D02*
X188547838Y-115486685D01*
X189126481Y-115984894D02*
X188839938Y-115733805D01*
X189408262Y-116239688D02*
X189126481Y-115984894D01*
X189685016Y-116498715D02*
X189408262Y-116239688D01*
X189957007Y-116761710D02*
X189685016Y-116498715D01*
X190224236Y-117029204D02*
X189957007Y-116761710D01*
X190486967Y-117300666D02*
X190224236Y-117029204D01*
X190745465Y-117576361D02*
X190486967Y-117300666D01*
X190999729Y-117856555D02*
X190745465Y-117576361D01*
X191250025Y-118141246D02*
X190999729Y-117856555D01*
X191496351Y-118430435D02*
X191250025Y-118141246D01*
X191738974Y-118724122D02*
X191496351Y-118430435D01*
X191977892Y-119022572D02*
X191738974Y-118724122D01*
X192213371Y-119325519D02*
X191977892Y-119022572D01*
X192445411Y-119633494D02*
X192213371Y-119325519D01*
X192674275Y-119946496D02*
X192445411Y-119633494D01*
X192900229Y-120264260D02*
X192674275Y-119946496D01*
X193123272Y-120586787D02*
X192900229Y-120264260D01*
X193343405Y-120914605D02*
X193123272Y-120586787D01*
X193560892Y-121247715D02*
X193343405Y-120914605D01*
X193775998Y-121585852D02*
X193560892Y-121247715D01*
X193988988Y-121929281D02*
X193775998Y-121585852D01*
X194199596Y-122278266D02*
X193988988Y-121929281D01*
X194408087Y-122632542D02*
X194199596Y-122278266D01*
X194614727Y-122992375D02*
X194408087Y-122632542D01*
X194819778Y-123357764D02*
X194614727Y-122992375D01*
X195023243Y-123728710D02*
X194819778Y-123357764D01*
X195225120Y-124105476D02*
X195023243Y-123728710D01*
X195624904Y-124876206D02*
X195225120Y-124105476D01*
X196020721Y-125670749D02*
X195624904Y-124876206D01*
X196413626Y-126489369D02*
X196020721Y-125670749D01*
X196414685Y-126490956D02*
X196413626Y-126489369D01*
X196908926Y-127535001D02*
X196414685Y-126490956D01*
X197366125Y-128515016D02*
X196908926Y-127535001D01*
X197788135Y-129434442D02*
X197366125Y-128515016D01*
X198177337Y-130296454D02*
X197788135Y-129434442D01*
X198535582Y-131103961D02*
X198177337Y-130296454D01*
X198864723Y-131860404D02*
X198535582Y-131103961D01*
X199166877Y-132568957D02*
X198864723Y-131860404D01*
X199444160Y-133232531D02*
X199166877Y-132568957D01*
X199698689Y-133854830D02*
X199444160Y-133232531D01*
X199932316Y-134439030D02*
X199698689Y-133854830D01*
X200147157Y-134987775D02*
X199932316Y-134439030D01*
X200345330Y-135505034D02*
X200147157Y-134987775D01*
X200699077Y-136456210D02*
X200345330Y-135505034D01*
X201010227Y-137318222D02*
X200699077Y-136456210D01*
X201293595Y-138112235D02*
X201010227Y-137318222D01*
X201566380Y-138867884D02*
X201293595Y-138112235D01*
X201845515Y-139612156D02*
X201566380Y-138867884D01*
X201992359Y-139987864D02*
X201845515Y-139612156D01*
X202146875Y-140370716D02*
X201992359Y-139987864D01*
X202311181Y-140763886D02*
X202146875Y-140370716D01*
X202487129Y-141170550D02*
X202311181Y-140763886D01*
X202676835Y-141593883D02*
X202487129Y-141170550D01*
X202882152Y-142037589D02*
X202676835Y-141593883D01*
X203105460Y-142504578D02*
X202882152Y-142037589D01*
X203348611Y-142998290D02*
X203105460Y-142504578D01*
X203613724Y-143521899D02*
X203348611Y-142998290D01*
X203902648Y-144079111D02*
X203613724Y-143521899D01*
X204073569Y-144305065D02*
X203902648Y-144079111D01*
X204246077Y-144523875D02*
X204073569Y-144305065D01*
X204419908Y-144735542D02*
X204246077Y-144523875D01*
X204595062Y-144940064D02*
X204419908Y-144735542D01*
X204771274Y-145137443D02*
X204595062Y-144940064D01*
X204948545Y-145328208D02*
X204771274Y-145137443D01*
X205126874Y-145512357D02*
X204948545Y-145328208D01*
X205305732Y-145689628D02*
X205126874Y-145512357D01*
X205485119Y-145860813D02*
X205305732Y-145689628D01*
X205665300Y-146025384D02*
X205485119Y-145860813D01*
X205845481Y-146183869D02*
X205665300Y-146025384D01*
X206025927Y-146336004D02*
X205845481Y-146183869D01*
X206206637Y-146482319D02*
X206025927Y-146336004D01*
X206387083Y-146622812D02*
X206206637Y-146482319D01*
X206567528Y-146757749D02*
X206387083Y-146622812D01*
X206747445Y-146886866D02*
X206567528Y-146757749D01*
X206927096Y-147010426D02*
X206747445Y-146886866D01*
X207105955Y-147128695D02*
X206927096Y-147010426D01*
X207461554Y-147349886D02*
X207105955Y-147128695D01*
X207812920Y-147550705D02*
X207461554Y-147349886D01*
X208159259Y-147732738D02*
X207812920Y-147550705D01*
X208499513Y-147896515D02*
X208159259Y-147732738D01*
X208832359Y-148043358D02*
X208499513Y-147896515D01*
X209157002Y-148174062D02*
X208832359Y-148043358D01*
X209472385Y-148289685D02*
X209157002Y-148174062D01*
X209778243Y-148391285D02*
X209472385Y-148289685D01*
X210072195Y-148479656D02*
X209778243Y-148391285D01*
X210353182Y-148555326D02*
X210072195Y-148479656D01*
X210619881Y-148619620D02*
X210353182Y-148555326D01*
X210871500Y-148673330D02*
X210619881Y-148619620D01*
X211106714Y-148717251D02*
X210871500Y-148673330D01*
X211324466Y-148752441D02*
X211106714Y-148717251D01*
X211523432Y-148779957D02*
X211324466Y-148752441D01*
X211860511Y-148815676D02*
X211523432Y-148779957D01*
X212108425Y-148831816D02*
X211860511Y-148815676D01*
X212244421Y-148836314D02*
X212108425Y-148831816D01*
X212299454Y-148835784D02*
X212244421Y-148836314D01*
X212306333Y-148835255D02*
X212299454Y-148835784D01*
X212319298Y-148835255D02*
X212306333Y-148835255D01*
X212325383Y-148835784D02*
X212319298Y-148835255D01*
X212380681Y-148836314D02*
X212325383Y-148835784D01*
X212517206Y-148831816D02*
X212380681Y-148836314D01*
X212764856Y-148815676D02*
X212517206Y-148831816D01*
X213101670Y-148779957D02*
X212764856Y-148815676D01*
X213300372Y-148752441D02*
X213101670Y-148779957D01*
X213518124Y-148717251D02*
X213300372Y-148752441D01*
X213753602Y-148673330D02*
X213518124Y-148717251D01*
X214005221Y-148619620D02*
X213753602Y-148673330D01*
X214272185Y-148555326D02*
X214005221Y-148619620D01*
X214553172Y-148479656D02*
X214272185Y-148555326D01*
X214847389Y-148391285D02*
X214553172Y-148479656D01*
X215152982Y-148289685D02*
X214847389Y-148391285D01*
X215468365Y-148174062D02*
X215152982Y-148289685D01*
X215792744Y-148043358D02*
X215468365Y-148174062D01*
X216125854Y-147896779D02*
X215792744Y-148043358D01*
X216465843Y-147732738D02*
X216125854Y-147896779D01*
X216812182Y-147550969D02*
X216465843Y-147732738D01*
X217163548Y-147350151D02*
X216812182Y-147550969D01*
X217519148Y-147129224D02*
X217163548Y-147350151D01*
X217698006Y-147010955D02*
X217519148Y-147129224D01*
X217877393Y-146887131D02*
X217698006Y-147010955D01*
X218057310Y-146758279D02*
X217877393Y-146887131D01*
X218237755Y-146623341D02*
X218057310Y-146758279D01*
X218418201Y-146483112D02*
X218237755Y-146623341D01*
X218598646Y-146336798D02*
X218418201Y-146483112D01*
X218779357Y-146184398D02*
X218598646Y-146336798D01*
X218959538Y-146026177D02*
X218779357Y-146184398D01*
X219139454Y-145861607D02*
X218959538Y-146026177D01*
X219319106Y-145690686D02*
X219139454Y-145861607D01*
X219497964Y-145513151D02*
X219319106Y-145690686D01*
X219676028Y-145329266D02*
X219497964Y-145513151D01*
X219853299Y-145138766D02*
X219676028Y-145329266D01*
X220029511Y-144941123D02*
X219853299Y-145138766D01*
X220204665Y-144736865D02*
X220029511Y-144941123D01*
X220378496Y-144525198D02*
X220204665Y-144736865D01*
X220551004Y-144306653D02*
X220378496Y-144525198D01*
X220721660Y-144080699D02*
X220551004Y-144306653D01*
X221010850Y-143523222D02*
X220721660Y-144080699D01*
X221275962Y-142999348D02*
X221010850Y-143523222D01*
X221519378Y-142505636D02*
X221275962Y-142999348D01*
X221742686Y-142038383D02*
X221519378Y-142505636D01*
X221948003Y-141594677D02*
X221742686Y-142038383D01*
X222137973Y-141171079D02*
X221948003Y-141594677D01*
X222313921Y-140764415D02*
X222137973Y-141171079D01*
X222477962Y-140371245D02*
X222313921Y-140764415D01*
X222632479Y-139988393D02*
X222477962Y-140371245D01*
X222779587Y-139612421D02*
X222632479Y-139988393D01*
X223058457Y-138868149D02*
X222779587Y-139612421D01*
X223331507Y-138112235D02*
X223058457Y-138868149D01*
X223614611Y-137318222D02*
X223331507Y-138112235D01*
X223925760Y-136455946D02*
X223614611Y-137318222D01*
X224279773Y-135504770D02*
X223925760Y-136455946D01*
X224477681Y-134987775D02*
X224279773Y-135504770D01*
X224692522Y-134438765D02*
X224477681Y-134987775D01*
X224926149Y-133854566D02*
X224692522Y-134438765D01*
X225180678Y-133232267D02*
X224926149Y-133854566D01*
X225457961Y-132568428D02*
X225180678Y-133232267D01*
X225760379Y-131859874D02*
X225457961Y-132568428D01*
X226089520Y-131103167D02*
X225760379Y-131859874D01*
X226447766Y-130295660D02*
X226089520Y-131103167D01*
X226836967Y-129433648D02*
X226447766Y-130295660D01*
X227258977Y-128513958D02*
X226836967Y-129433648D01*
X227716441Y-127533678D02*
X227258977Y-128513958D01*
X228210682Y-126489369D02*
X227716441Y-127533678D01*
X228603588Y-125670749D02*
X228210682Y-126489369D01*
X228999404Y-124876206D02*
X228603588Y-125670749D01*
X229399454Y-124105476D02*
X228999404Y-124876206D01*
X229601330Y-123728710D02*
X229399454Y-124105476D01*
X229804795Y-123357764D02*
X229601330Y-123728710D01*
X230009582Y-122992375D02*
X229804795Y-123357764D01*
X230216221Y-122632542D02*
X230009582Y-122992375D01*
X230424977Y-122278266D02*
X230216221Y-122632542D01*
X230635585Y-121929281D02*
X230424977Y-122278266D01*
X230848310Y-121585852D02*
X230635585Y-121929281D01*
X231063416Y-121247715D02*
X230848310Y-121585852D01*
X231281168Y-120914605D02*
X231063416Y-121247715D01*
X231501301Y-120586787D02*
X231281168Y-120914605D01*
X231724344Y-120263995D02*
X231501301Y-120586787D01*
X231950298Y-119946496D02*
X231724344Y-120263995D01*
X232179163Y-119633494D02*
X231950298Y-119946496D01*
X232411466Y-119325519D02*
X232179163Y-119633494D01*
X232646945Y-119022572D02*
X232411466Y-119325519D01*
X232885864Y-118724122D02*
X232646945Y-119022572D01*
X233128222Y-118430435D02*
X232885864Y-118724122D01*
X233374549Y-118141246D02*
X233128222Y-118430435D01*
X233624844Y-117856555D02*
X233374549Y-118141246D01*
X233879108Y-117576361D02*
X233624844Y-117856555D01*
X234137871Y-117300666D02*
X233879108Y-117576361D01*
X234400601Y-117029204D02*
X234137871Y-117300666D01*
X234667830Y-116761710D02*
X234400601Y-117029204D01*
X234939822Y-116498715D02*
X234667830Y-116761710D01*
X235216575Y-116239688D02*
X234939822Y-116498715D01*
X235498356Y-115984894D02*
X235216575Y-116239688D01*
X235785164Y-115733805D02*
X235498356Y-115984894D01*
X236076999Y-115486685D02*
X235785164Y-115733805D01*
X236374391Y-115243533D02*
X236076999Y-115486685D01*
X236677074Y-115003821D02*
X236374391Y-115243533D01*
X236985577Y-114768077D02*
X236677074Y-115003821D01*
X237299902Y-114535773D02*
X236985577Y-114768077D01*
X237620047Y-114307174D02*
X237299902Y-114535773D01*
X237946278Y-114081749D02*
X237620047Y-114307174D01*
X238278594Y-113860028D02*
X237946278Y-114081749D01*
X238617525Y-113641483D02*
X238278594Y-113860028D01*
X238962806Y-113426377D02*
X238617525Y-113641483D01*
X239314701Y-113214181D02*
X238962806Y-113426377D01*
X239673476Y-113005425D02*
X239314701Y-113214181D01*
X240039394Y-112799580D02*
X239673476Y-113005425D01*
X240412192Y-112596645D02*
X240039394Y-112799580D01*
X240792133Y-112396620D02*
X240412192Y-112596645D01*
X241179482Y-112199506D02*
X240792133Y-112396620D01*
X241574505Y-112005037D02*
X241179482Y-112199506D01*
X241976936Y-111813479D02*
X241574505Y-112005037D01*
X242387304Y-111624302D02*
X241976936Y-111813479D01*
X242805610Y-111437771D02*
X242387304Y-111624302D01*
X243232117Y-111253886D02*
X242805610Y-111437771D01*
X243666827Y-111072382D02*
X243232117Y-111253886D01*
X244109739Y-110892995D02*
X243666827Y-111072382D01*
X244561382Y-110715989D02*
X244109739Y-110892995D01*
X245021757Y-110541364D02*
X244561382Y-110715989D01*
X245490862Y-110368856D02*
X245021757Y-110541364D01*
X245968699Y-110198200D02*
X245490862Y-110368856D01*
X246455797Y-110029660D02*
X245968699Y-110198200D01*
X246952154Y-109863238D02*
X246455797Y-110029660D01*
X247458037Y-109698402D02*
X246952154Y-109863238D01*
X247973180Y-109535419D02*
X247458037Y-109698402D01*
X247994611Y-109528805D02*
X247973180Y-109535419D01*
X248016836Y-109524042D02*
X247994611Y-109528805D01*
X248590981Y-109404186D02*
X248016836Y-109524042D01*
X249169624Y-109290945D02*
X248590981Y-109404186D01*
X249752501Y-109183788D02*
X249169624Y-109290945D01*
X250339611Y-109083247D02*
X249752501Y-109183788D01*
X250930160Y-108988262D02*
X250339611Y-109083247D01*
X251524678Y-108899362D02*
X250930160Y-108988262D01*
X252122106Y-108815754D02*
X251524678Y-108899362D01*
X252722974Y-108737702D02*
X252122106Y-108815754D01*
X253326488Y-108664677D02*
X252722974Y-108737702D01*
X253932912Y-108596679D02*
X253326488Y-108664677D01*
X254541453Y-108533443D02*
X253932912Y-108596679D01*
X255152375Y-108474706D02*
X254541453Y-108533443D01*
X255765150Y-108420202D02*
X255152375Y-108474706D01*
X256379511Y-108369931D02*
X255765150Y-108420202D01*
X257612468Y-108280502D02*
X256379511Y-108369931D01*
X258849658Y-108205361D02*
X257612468Y-108280502D01*
X260088700Y-108142390D02*
X258849658Y-108205361D01*
X261328272Y-108090002D02*
X260088700Y-108142390D01*
X262565991Y-108046346D02*
X261328272Y-108090002D01*
X263800535Y-108010363D02*
X262565991Y-108046346D01*
X265029523Y-107979671D02*
X263800535Y-108010363D01*
X267463951Y-107928871D02*
X265029523Y-107979671D01*
X269855253Y-107880453D02*
X267463951Y-107928871D01*
X271029737Y-107852936D02*
X269855253Y-107880453D01*
X272187287Y-107821186D02*
X271029737Y-107852936D01*
X273326317Y-107783880D02*
X272187287Y-107821186D01*
X274444445Y-107739165D02*
X273326317Y-107783880D01*
X275540083Y-107685455D02*
X274444445Y-107739165D01*
X276610586Y-107621426D02*
X275540083Y-107685455D01*
X277654630Y-107545755D02*
X276610586Y-107621426D01*
X278165805Y-107502893D02*
X277654630Y-107545755D01*
X278669835Y-107456326D02*
X278165805Y-107502893D01*
X279165928Y-107406055D02*
X278669835Y-107456326D01*
X279654084Y-107351816D02*
X279165928Y-107406055D01*
X280134038Y-107293608D02*
X279654084Y-107351816D01*
X280605524Y-107230901D02*
X280134038Y-107293608D01*
X281068545Y-107163697D02*
X280605524Y-107230901D01*
X281522305Y-107091731D02*
X281068545Y-107163697D01*
X281967069Y-107015002D02*
X281522305Y-107091731D01*
X282402308Y-106932981D02*
X281967069Y-107015002D01*
X282828022Y-106845669D02*
X282402308Y-106932981D01*
X283243682Y-106753064D02*
X282828022Y-106845669D01*
X283649023Y-106654375D02*
X283243682Y-106753064D01*
X284044045Y-106550129D02*
X283649023Y-106654375D01*
X284067064Y-106544044D02*
X284044045Y-106550129D01*
X284090876Y-106539811D02*
X284067064Y-106544044D01*
X284939923Y-106387675D02*
X284090876Y-106539811D01*
X285814370Y-106220988D02*
X284939923Y-106387675D01*
X286712629Y-106039220D02*
X285814370Y-106220988D01*
X287633114Y-105842634D02*
X286712629Y-106039220D01*
X288573706Y-105630703D02*
X287633114Y-105842634D01*
X289532819Y-105402897D02*
X288573706Y-105630703D01*
X290509131Y-105159216D02*
X289532819Y-105402897D01*
X291500259Y-104899396D02*
X290509131Y-105159216D01*
X292504880Y-104623171D02*
X291500259Y-104899396D01*
X293521144Y-104330013D02*
X292504880Y-104623171D01*
X294547461Y-104019922D02*
X293521144Y-104330013D01*
X295581716Y-103692368D02*
X294547461Y-104019922D01*
X296622586Y-103347352D02*
X295581716Y-103692368D01*
X297144872Y-103168229D02*
X296622586Y-103347352D01*
X297668218Y-102984609D02*
X297144872Y-103168229D01*
X298192092Y-102796226D02*
X297668218Y-102984609D01*
X298716760Y-102603345D02*
X298192092Y-102796226D01*
X299241693Y-102405966D02*
X298716760Y-102603345D01*
X299766625Y-102204089D02*
X299241693Y-102405966D01*
X300291293Y-101997185D02*
X299766625Y-102204089D01*
X300815962Y-101785783D02*
X300291293Y-101997185D01*
X301339836Y-101569619D02*
X300815962Y-101785783D01*
X301862916Y-101348692D02*
X301339836Y-101569619D01*
X302384145Y-101122738D02*
X301862916Y-101348692D01*
X302905373Y-100892286D02*
X302384145Y-101122738D01*
X303426602Y-100656543D02*
X302905373Y-100892286D01*
X303942539Y-100416302D02*
X303426602Y-100656543D01*
X304458476Y-100170769D02*
X303942539Y-100416302D01*
X304974413Y-99920473D02*
X304458476Y-100170769D01*
X305485058Y-99664886D02*
X304974413Y-99920473D01*
X305995703Y-99404536D02*
X305485058Y-99664886D01*
X306501056Y-99138895D02*
X305995703Y-99404536D01*
X307003764Y-98868226D02*
X306501056Y-99138895D01*
X307503826Y-98592531D02*
X307003764Y-98868226D01*
X308001242Y-98311279D02*
X307503826Y-98592531D01*
X308496012Y-98025000D02*
X308001242Y-98311279D01*
X308985491Y-97733695D02*
X308496012Y-98025000D01*
X309469678Y-97436832D02*
X308985491Y-97733695D01*
X309951219Y-97134679D02*
X309469678Y-97436832D01*
X310430114Y-96826969D02*
X309951219Y-97134679D01*
X310901072Y-96513967D02*
X310430114Y-96826969D01*
X311369384Y-96195674D02*
X310901072Y-96513967D01*
X311829758Y-95871824D02*
X311369384Y-96195674D01*
X312287487Y-95542418D02*
X311829758Y-95871824D01*
X312739924Y-95207456D02*
X312287487Y-95542418D01*
X313184423Y-94866938D02*
X312739924Y-95207456D01*
X313623631Y-94520863D02*
X313184423Y-94866938D01*
X314057547Y-94169232D02*
X313623631Y-94520863D01*
X314486171Y-93811781D02*
X314057547Y-94169232D01*
X314904213Y-93448508D02*
X314486171Y-93811781D01*
X315319608Y-93079680D02*
X314904213Y-93448508D01*
X317311918Y-91276546D02*
X315319608Y-93079680D01*
X319111082Y-89654917D02*
X317311918Y-91276546D01*
X322188183Y-86891877D02*
X319111082Y-89654917D01*
X323492577Y-85717922D02*
X322188183Y-86891877D01*
X324659388Y-84660384D02*
X323492577Y-85717922D01*
X325704491Y-83703652D02*
X324659388Y-84660384D01*
X326643760Y-82831322D02*
X325704491Y-83703652D01*
X327077676Y-82421483D02*
X326643760Y-82831322D01*
X327487780Y-82026989D02*
X327077676Y-82421483D01*
X327882009Y-81645196D02*
X327487780Y-82026989D01*
X328255071Y-81274515D02*
X327882009Y-81645196D01*
X328612258Y-80912830D02*
X328255071Y-81274515D01*
X328956216Y-80557760D02*
X328612258Y-80912830D01*
X329286944Y-80207717D02*
X328956216Y-80557760D01*
X329609736Y-79860584D02*
X329286944Y-80207717D01*
X329919298Y-79514245D02*
X329609736Y-79860584D01*
X330223568Y-79166583D02*
X329919298Y-79514245D01*
X330522547Y-78816010D02*
X330223568Y-79166583D01*
X330818880Y-78459881D02*
X330522547Y-78816010D01*
X331112567Y-78096609D02*
X330818880Y-78459881D01*
X331406254Y-77724076D02*
X331112567Y-78096609D01*
X331702587Y-77339902D02*
X331406254Y-77724076D01*
X332001566Y-76942762D02*
X331702587Y-77339902D01*
X332006858Y-76935883D02*
X332001566Y-76942762D01*
X332012149Y-76929269D02*
X332006858Y-76935883D01*
X332858815Y-75859560D02*
X332012149Y-76929269D01*
X333702835Y-74778209D02*
X332858815Y-75859560D01*
X334538917Y-73692360D02*
X333702835Y-74778209D01*
X335361770Y-72609687D02*
X334538917Y-73692360D01*
X336163457Y-71536803D02*
X335361770Y-72609687D01*
X336941331Y-70481910D02*
X336163457Y-71536803D01*
X337690100Y-69451624D02*
X336941331Y-70481910D01*
X338401829Y-68453881D02*
X337690100Y-69451624D01*
X339071224Y-67494239D02*
X338401829Y-68453881D01*
X339695640Y-66580105D02*
X339071224Y-67494239D01*
X340269785Y-65720474D02*
X339695640Y-66580105D01*
X340783076Y-64924080D02*
X340269785Y-65720474D01*
X341015909Y-64552605D02*
X340783076Y-64924080D01*
X341232867Y-64200445D02*
X341015909Y-64552605D01*
X341431304Y-63868393D02*
X341232867Y-64200445D01*
X341611221Y-63558038D02*
X341431304Y-63868393D01*
X341772616Y-63270436D02*
X341611221Y-63558038D01*
X341915491Y-63006382D02*
X341772616Y-63270436D01*
X342034553Y-62767199D02*
X341915491Y-63006382D01*
X342135095Y-62553945D02*
X342034553Y-62767199D01*
X342145678Y-62530133D02*
X342135095Y-62553945D01*
X342158907Y-62506849D02*
X342145678Y-62530133D01*
X342322949Y-62208664D02*
X342158907Y-62506849D01*
X342484344Y-61890900D02*
X342322949Y-62208664D01*
X342643094Y-61554880D02*
X342484344Y-61890900D01*
X342796552Y-61201397D02*
X342643094Y-61554880D01*
X342947365Y-60831245D02*
X342796552Y-61201397D01*
X343092885Y-60445483D02*
X342947365Y-60831245D01*
X343238406Y-60044905D02*
X343092885Y-60445483D01*
X343375989Y-59630832D02*
X343238406Y-60044905D01*
X343510926Y-59203795D02*
X343375989Y-59630832D01*
X343640572Y-58764852D02*
X343510926Y-59203795D01*
X343767572Y-58315061D02*
X343640572Y-58764852D01*
X343886634Y-57855216D02*
X343767572Y-58315061D01*
X344003051Y-57386375D02*
X343886634Y-57855216D01*
X344114176Y-56909596D02*
X344003051Y-57386375D01*
X344217363Y-56425409D02*
X344114176Y-56909596D01*
X344317905Y-55935137D02*
X344217363Y-56425409D01*
X344410509Y-55439573D02*
X344317905Y-55935137D01*
X344500467Y-54939511D02*
X344410509Y-55439573D01*
X344582488Y-54436010D02*
X344500467Y-54939511D01*
X344659217Y-53930127D02*
X344582488Y-54436010D01*
X344728008Y-53422657D02*
X344659217Y-53930127D01*
X344791508Y-52914657D02*
X344728008Y-53422657D01*
X344847071Y-52406923D02*
X344791508Y-52914657D01*
X344897341Y-51900511D02*
X344847071Y-52406923D01*
X344939675Y-51396480D02*
X344897341Y-51900511D01*
X344974070Y-50895360D02*
X344939675Y-51396480D01*
X345003175Y-50398473D02*
X344974070Y-50895360D01*
X345024341Y-49906613D02*
X345003175Y-50398473D01*
X345034925Y-49420574D02*
X345024341Y-49906613D01*
X345040216Y-48941679D02*
X345034925Y-49420574D01*
X345037570Y-48470457D02*
X345040216Y-48941679D01*
X345026987Y-48007966D02*
X345037570Y-48470457D01*
X345008466Y-47495204D02*
X345026987Y-48007966D01*
M02*
