M48
; DRILL file {KiCad 5.1.5+dfsg1-2build2} date Tue 02 Mar 2021 19:33:10 GMT
; FORMAT={-:-/ absolute / metric / decimal}
; #@! TF.CreationDate,2021-03-02T19:33:10+00:00
; #@! TF.GenerationSoftware,Kicad,Pcbnew,5.1.5+dfsg1-2build2
; #@! TF.FileFunction,NonPlated,1,2,NPTH
FMAT,2
METRIC
T1C1.700
T2C3.400
%
G90
G05
T1
X244.336Y-143.832
X254.499Y-139.622
X281.519Y-185.256
X291.682Y-181.047
X346.297Y-148.141
X356.46Y-143.932
X65.209Y-102.694
X75.372Y-106.904
X118.817Y-118.443
X128.98Y-122.653
X250.796Y-212.378
X257.493Y-203.651
X124.418Y-153.219
X134.581Y-157.429
X112.532Y-177.057
X123.438Y-178.492
X131.059Y-136.994
X141.222Y-141.204
X85.259Y-151.044
X95.422Y-155.254
X309.006Y-154.929
X319.168Y-150.719
X302.309Y-138.761
X312.471Y-134.551
X137.809Y-120.844
X147.972Y-125.054
X67.309Y-84.594
X77.472Y-88.804
X163.294Y-155.77
X173.456Y-159.98
X74.795Y-127.783
X84.958Y-131.993
X339.6Y-131.974
X349.763Y-127.764
X268.125Y-152.92
X278.288Y-148.711
X251.033Y-160.0
X261.196Y-155.79
X91.95Y-134.867
X102.113Y-139.077
X81.517Y-111.643
X91.68Y-115.853
X295.612Y-122.593
X305.774Y-118.384
X98.634Y-118.744
X108.797Y-122.954
X261.428Y-136.752
X271.591Y-132.543
X290.001Y-157.389
X300.163Y-153.18
X329.159Y-155.24
X339.322Y-151.031
X274.822Y-169.088
X284.985Y-164.879
X58.491Y-118.854
X68.654Y-123.064
X257.73Y-176.168
X267.893Y-171.958
X349.183Y-106.897
X359.346Y-102.688
X152.972Y-132.575
X163.135Y-136.785
X68.109Y-143.944
X78.272Y-148.154
X156.617Y-171.968
X166.78Y-176.178
X276.607Y-125.053
X286.769Y-120.844
X347.087Y-88.77
X357.249Y-84.56
X315.765Y-122.904
X325.928Y-118.695
X170.059Y-139.619
X180.222Y-143.829
X167.073Y-203.694
X173.769Y-212.421
X332.903Y-115.806
X343.066Y-111.596
X322.462Y-139.072
X332.625Y-134.863
X139.609Y-164.894
X149.772Y-169.104
X355.88Y-123.065
X366.043Y-118.856
X105.365Y-150.724
X115.528Y-154.934
X112.067Y-134.544
X122.23Y-138.754
X151.477Y-190.101
X160.204Y-196.797
X146.255Y-148.713
X156.418Y-152.922
X132.909Y-181.044
X143.072Y-185.254
X264.377Y-196.82
X273.104Y-190.123
X301.074Y-178.538
X311.98Y-177.102
X283.304Y-141.221
X293.466Y-137.012
T2
X158.054Y-134.68
X73.19Y-146.049
X161.698Y-174.073
X281.688Y-122.949
X352.168Y-86.665
X320.846Y-120.8
X175.14Y-141.724
X170.421Y-208.057
X337.984Y-113.701
X327.543Y-136.968
X144.69Y-166.999
X360.962Y-120.961
X110.447Y-152.829
X117.148Y-136.649
X155.84Y-193.449
X151.336Y-150.818
X137.99Y-183.149
X268.74Y-193.472
X306.527Y-177.82
X288.385Y-139.116
X249.418Y-141.727
X286.6Y-183.151
X351.378Y-146.037
X70.29Y-104.799
X123.898Y-120.548
X254.145Y-208.014
X129.5Y-155.324
X117.985Y-177.775
X136.14Y-139.099
X90.34Y-153.149
X314.087Y-152.824
X307.39Y-136.656
X142.89Y-122.949
X72.39Y-86.699
X168.375Y-157.875
X79.876Y-129.888
X344.681Y-129.869
X273.207Y-150.815
X256.115Y-157.895
X97.031Y-136.972
X86.598Y-113.748
X300.693Y-120.488
X103.715Y-120.849
X266.51Y-134.648
X295.082Y-155.284
X334.24Y-153.135
X279.904Y-166.983
X63.572Y-120.959
X262.812Y-174.063
X354.265Y-104.793
T0
M30
