<?xml version="1.0" encoding="UTF-8" standalone="no"?>
<svg
   xmlns:dc="http://purl.org/dc/elements/1.1/"
   xmlns:cc="http://creativecommons.org/ns#"
   xmlns:rdf="http://www.w3.org/1999/02/22-rdf-syntax-ns#"
   xmlns:svg="http://www.w3.org/2000/svg"
   xmlns="http://www.w3.org/2000/svg"
   xmlns:sodipodi="http://sodipodi.sourceforge.net/DTD/sodipodi-0.dtd"
   xmlns:inkscape="http://www.inkscape.org/namespaces/inkscape"
   version="1.0"
   width="1491.0042pt"
   height="1032.8964pt"
   viewBox="0 0 1491.0042 1032.8964"
   preserveAspectRatio="xMidYMid meet"
   id="svg367"
   sodipodi:docname="Logo.svg"
   inkscape:version="1.0.2 (1.0.2+r75+1)">
  <defs
     id="defs371" />
  <sodipodi:namedview
     pagecolor="#ffffff"
     bordercolor="#666666"
     borderopacity="1"
     objecttolerance="10"
     gridtolerance="10"
     guidetolerance="10"
     inkscape:pageopacity="0"
     inkscape:pageshadow="2"
     inkscape:window-width="640"
     inkscape:window-height="480"
     id="namedview369"
     showgrid="false"
     inkscape:zoom="0.19849261"
     inkscape:cx="960.70736"
     inkscape:cy="419.31537"
     inkscape:current-layer="svg367" />
  <metadata
     id="metadata361">
Created by potrace 1.15, written by Peter Selinger 2001-2017
<rdf:RDF>
  <cc:Work
     rdf:about="">
    <dc:format>image/svg+xml</dc:format>
    <dc:type
       rdf:resource="http://purl.org/dc/dcmitype/StillImage" />
    <dc:title></dc:title>
  </cc:Work>
</rdf:RDF>
</metadata>
  <g
     transform="matrix(0.1,0,0,-0.1,211.42246,1032.8963)"
     fill="#000000"
     stroke="none"
     id="g365">
    <path
       d="m 8626,10314 c -130,-20 -221,-47 -402,-119 -88,-36 -239,-90 -335,-120 C 7359,9906 6511,9619 6350,9555 6248,9515 6057,9439 5925,9387 5793,9335 5553,9235 5391,9165 5099,9040 5093,9038 4831,8974 4122,8801 4019,8778 3803,8744 3050,8628 2621,8539 1815,8331 1689,8298 1459,8246 1305,8215 722,8097 451,8025 175,7918 44,7866 15,7850 12,7827 c -1,-6 -4,-26 -8,-43 -9,-45 34,-78 133,-101 68,-16 122,-18 423,-17 190,1 392,6 450,12 58,5 106,8 108,7 2,-2 -27,-13 -65,-25 -103,-34 -192,-77 -200,-95 -33,-88 416,-49 2352,202 l 600,78 335,-1 c 233,0 429,-7 645,-22 171,-12 351,-24 400,-27 66,-5 120,-16 205,-45 316,-106 534,-94 807,44 40,20 74,36 76,36 1,0 4,-11 5,-25 6,-72 89,-120 236,-137 81,-9 99,-14 108,-31 11,-22 7,-27 -141,-155 -63,-55 -78,-83 -67,-128 9,-35 60,-54 142,-54 37,0 97,-5 133,-10 36,-6 81,-13 99,-16 26,-4 36,-13 56,-53 l 25,-48 -37,-35 c -20,-20 -81,-68 -135,-107 -114,-83 -138,-120 -117,-172 9,-22 26,-37 54,-50 52,-22 192,-48 320,-57 l 99,-7 20,-53 c 23,-62 27,-58 -88,-118 -112,-60 -139,-101 -94,-143 27,-25 84,-40 188,-49 l 84,-7 13,-45 c 12,-40 11,-46 -5,-65 -51,-55 -66,-136 -33,-171 18,-19 18,-20 -20,-56 -67,-66 -46,-132 51,-158 20,-5 95,-16 166,-25 131,-15 175,-23 175,-32 0,-3 -20,-27 -43,-53 -24,-27 -53,-72 -65,-101 l -22,-52 36,-33 c 56,-53 121,-67 287,-62 l 138,4 29,-35 29,-35 -78,-81 c -80,-84 -100,-122 -85,-167 4,-13 7,-35 5,-49 -1,-14 7,-36 17,-50 18,-22 30,-24 131,-30 122,-7 161,-22 161,-63 0,-15 -12,-30 -37,-47 -40,-25 -51,-55 -20,-53 23,2 22,-1 -17,-49 -65,-81 -82,-140 -49,-173 14,-14 30,-16 89,-11 96,7 99,4 91,-98 -2,-22 -13,-56 -25,-75 -32,-51 -37,-92 -17,-143 15,-41 15,-48 1,-97 -34,-115 -14,-211 54,-257 29,-20 45,-23 142,-23 119,0 150,-10 187,-56 36,-46 29,-104 -29,-219 -66,-133 -67,-178 -2,-247 61,-66 215,-80 414,-38 64,13 120,21 123,18 4,-3 -14,-33 -39,-65 -53,-68 -113,-208 -122,-285 -10,-86 49,-437 87,-522 13,-28 46,-45 104,-52 38,-6 46,-3 98,40 31,25 63,46 71,46 8,0 24,-12 35,-26 28,-36 27,-97 -4,-259 -37,-194 -33,-279 17,-333 48,-50 96,-15 217,156 l 80,113 22,-43 c 12,-24 30,-54 39,-68 16,-23 17,-43 9,-245 -4,-121 -13,-274 -20,-340 -8,-85 -9,-182 -2,-335 11,-249 18,-277 72,-272 36,3 137,81 197,153 86,104 193,317 245,488 13,44 27,81 30,81 28,0 13,-245 -27,-454 -46,-241 -50,-476 -11,-646 9,-36 25,-123 37,-195 26,-154 52,-229 86,-252 24,-15 27,-15 52,3 40,29 110,177 169,359 29,88 111,365 182,615 157,552 188,644 219,648 12,2 22,-2 22,-8 0,-31 -44,-182 -70,-240 -42,-94 -53,-195 -40,-365 38,-493 98,-852 169,-1010 32,-71 83,-119 115,-109 80,24 133,98 159,221 10,43 24,182 32,308 18,258 24,313 60,540 14,88 26,176 26,195 1,23 5,12 10,-30 51,-378 66,-449 143,-681 94,-282 185,-468 263,-540 24,-22 53,-39 66,-39 49,0 116,108 117,188 0,24 -7,98 -15,165 -32,267 -46,804 -26,1022 l 6,70 80,-124 c 44,-68 120,-180 169,-249 49,-69 106,-164 128,-211 59,-131 74,-156 94,-156 50,0 40,250 -27,680 -16,105 -65,390 -108,635 -44,245 -85,490 -90,545 -6,55 -25,242 -41,415 -32,322 -77,713 -86,740 -3,8 -9,90 -15,182 -15,268 -60,490 -124,619 -45,89 -118,362 -157,589 -16,94 -17,441 -1,645 27,347 -42,694 -242,1230 -189,504 -388,860 -691,1235 -182,225 -193,255 -124,321 45,43 105,64 153,54 18,-4 90,-30 162,-57 170,-66 259,-88 380,-95 125,-7 253,9 368,47 72,25 115,31 245,40 189,12 265,20 305,31 l 29,8 -4,-87 c -4,-98 -25,-151 -83,-219 -47,-55 -46,-67 8,-60 101,14 333,164 402,262 86,120 160,297 205,485 31,129 35,380 7,452 -10,27 -26,52 -34,57 -14,7 -14,14 2,62 28,82 24,124 -18,204 -105,200 -357,394 -640,494 -230,81 -432,95 -662,47 -398,-84 -788,-121 -1180,-113 -333,7 -436,19 -965,120 -309,59 -472,69 -654,41 z"
       id="path363" />
    <path
       id="path563"
       style="fill:#000000;stroke-width:5.70162"
       d="m -583.81907,5470.9896 c -10.89182,8.0924 -29.54864,19.704 -41.45973,25.8034 -51.90109,26.5773 -90.36015,81.0298 -110.23132,156.072 -19.91778,75.2175 -26.28055,243.3319 -14.08939,372.2602 l 2.3379,24.7246 -32.44124,-17.1141 c -17.84276,-9.4128 -72.91216,-45.2456 -122.37634,-79.6288 -171.47351,-119.1924 -265.87551,-176.2293 -350.68911,-211.8833 -34.5505,-14.5242 -52.4267,-18.3574 -101.645,-21.7953 -59.4993,-4.153 -107.4765,2.387 -104.9531,14.3134 0.675,3.1907 40.2955,24.6032 88.0453,47.5834 87.4303,42.0768 297.2489,161.6689 317.1516,180.7698 l 10.7122,10.2805 -11.1025,-4.7017 c -6.1061,-2.5858 -62.177,-28.3138 -124.6016,-57.1735 -196.4319,-90.8125 -217.5816,-97.9963 -307.0618,-104.297 -65.7141,-4.6296 -82.4493,-3.882 -116.1013,5.17 -64.5727,17.3693 -57.8404,24.1298 61.4378,61.6945 146.551,46.154 299.004,102.5137 385.7498,142.6062 41.3484,19.1106 74.4053,35.3509 73.4599,36.0893 -0.9454,0.7385 -77.4447,-19.1637 -169.9986,-44.227 -230.5824,-62.441 -361.7767,-93.0985 -414.0415,-96.7533 -71.4357,-4.9953 -146.7371,11.7498 -190.4382,42.3485 -29.1507,20.4105 -17.1337,25.6652 102.9397,45.0132 250.1494,40.3077 472.3237,85.1655 591.0167,119.3287 l 50.4249,14.5135 -48.1529,-6.1369 c -440.9883,-56.2034 -637.107,-75.3066 -693.7186,-67.5724 -48.1903,6.5837 -103.3894,30.8996 -135.7797,59.8128 -16.0821,14.3558 -28.0435,28.3794 -26.5807,31.1637 1.4629,2.7841 139.0101,13.1608 305.6604,23.0592 292.3152,17.3625 573.1461,42.5066 798.48151,71.4919 101.80077,13.0949 198.78275,28.7569 202.16584,32.6489 1.02935,1.184 7.9117,29.4067 15.2941,62.7168 19.398,87.5253 59.94744,217.1899 98.34657,314.482 29.90773,75.7778 37.15376,88.7728 69.74905,125.0894 40.42197,45.0364 81.72031,73.3114 139.50018,95.5087 44.45623,17.0788 68.24043,14.7496 89.55887,-8.7707 21.32874,-23.5318 18.08524,-45.7536 -19.02416,-130.3333 -46.73456,-106.5171 -131.007,-338.3975 -129.71243,-356.9111 0.15823,-2.2626 15.83207,3.4737 34.8307,12.7476 97.71904,47.7003 233.85874,144.5289 309.46262,220.1036 90.067669,90.0329 157.645146,207.3129 172.612162,299.5664 5.899205,36.3618 1.824788,47.871 -26.648168,75.2751 -42.4507651,40.8571 -98.017385,55.8294 -183.959484,49.5674 -71.9225,-5.2405 -132.67103,-21.144 -225.25019,-58.9688 -248.65622,-101.5928 -408.04272,-245.6897 -454.46251,-410.8672 -9.92531,-35.3176 -9.8951,-37.2033 0.86759,-54.2369 6.1329,-9.706 10.8133,-25.3868 10.40112,-34.8463 -0.61496,-14.117 -3.6565,-17.7387 -16.9727,-20.2112 -13.37944,-2.4839 -21.44917,1.8282 -46.03434,24.5994 -84.18212,77.9714 -107.91202,187.5233 -65.58532,302.7842 70.72101,192.583 293.02044,371.8437 548.74566,442.5047 91.38472,25.2511 220.62963,35.5143 290.257819,23.0492 59.29416,-10.6151 134.526009,-41.4629 166.140806,-68.1241 63.295015,-53.3773 101.680905,-130.6618 112.633445,-226.7703 13.72684,-120.4549 -22.50177,-233.2287 -124.908449,-388.8181 -32.147249,-48.8421 -126.393592,-160.0022 -172.816971,-203.831 -90.59821,-85.5347 -231.55948,-178.1234 -341.07361,-224.03 -29.01331,-12.1619 -55.38147,-25.8209 -58.59621,-30.3533 -7.99328,-11.2699 -41.81505,-209.2546 -50.23397,-294.0578 -13.55351,-136.5252 -7.94992,-243.6247 16.26711,-310.9072 16.03792,-44.5579 1.94961,-57.768 -33.51021,-31.4216 z m 5126.85097,416.1333 c -99.533,43.266 -141.7834,117.0143 -160.8667,280.7946 l -8.3809,71.9281 -24.7076,-42.8064 c -81.3049,-140.8615 -189.4239,-244.1384 -291.5712,-278.5133 -69.7592,-23.4756 -174.1235,-20.5065 -238.8395,6.7948 -77.5423,32.7123 -137.6809,120.7938 -144.749,212.0057 -3.2068,41.3646 -9.4474,38.2802 -49.6569,-24.5398 -44.0211,-68.7739 -126.5744,-161.6711 -171.629,-193.1338 -55.1742,-38.529 -98.3876,-54.5926 -167.7899,-62.3712 -162.3751,-18.199 -264.4571,43.7879 -303.9505,184.5673 -6.6095,23.5601 -12.1427,44.6326 -12.2962,46.8279 -0.1535,2.1954 -11.2722,-17.5773 -24.7082,-43.9394 -56.1413,-110.1521 -107.1666,-175.172 -160.7935,-204.8939 -63.7511,-35.3329 -154.3573,-14.6224 -205.9878,47.0844 -32.6013,38.9639 -48.9986,82.6295 -67.7424,180.3961 l -5.4064,28.1996 -17.3681,-55.5121 c -34.213,-109.3509 -50.0857,-144.1666 -74.1409,-162.6218 -18.5682,-14.2454 -26.7481,-16.9274 -49.8018,-16.3283 -53.7483,1.3968 -116.3685,39.172 -152.4981,91.9933 -9.2993,13.5955 -23.0127,43.234 -30.4744,65.8633 l -13.5667,41.1443 -14.9275,-35.5377 c -24.3202,-57.8996 -76.8693,-145.162 -111.1944,-184.6484 -100.1479,-115.207 -216.5896,-96.985 -276.6866,43.2988 -3.696,8.6277 -9.2199,2.2429 -29.7861,-34.429 -42.1611,-75.1777 -80.069,-103.748 -143.9417,-108.4854 -35.8078,-2.6559 -43.6538,-1.1153 -74.4893,14.626 -70.521,36 -125.192,102.4645 -154.9597,188.3876 -19.9927,57.7081 -31.4929,200.9841 -22.0462,274.6664 25.7976,201.2183 117.0173,362.3791 246.2309,435.0241 35.0417,19.7008 41.249,21.2759 100.0443,25.3873 59.8138,4.1827 64.5649,3.6203 103.7383,-12.2765 47.0602,-19.0973 116.2033,-75.338 145.328,-118.2091 23.5292,-34.6347 43.5698,-91.9237 46.4213,-132.7028 2.9633,-42.3764 -3.1057,-84.0804 -36.8473,-253.2045 -30.4217,-152.4837 -33.2283,-199.9838 -13.3614,-226.1254 21.6017,-28.4245 58.0766,-11.4967 99.0787,45.982 33.6369,47.1535 64.3887,107.6761 106.1751,208.963 29.6641,71.9035 33.1414,85.5222 47.5491,186.2223 38.4148,268.4916 95.3187,492.1047 195.5209,768.3314 25.4855,70.2558 53.1944,156.5094 61.5752,191.6744 8.3807,35.165 17.0513,67.9213 19.2676,72.7916 9.9252,21.8092 66.2176,2.6941 116.2889,-39.4884 44.5811,-37.5569 62.9819,-69.4812 66.1376,-114.7447 2.3103,-33.1493 -0.5344,-43.4018 -39.283,-141.5389 -57.1698,-144.7915 -144.3668,-442.7558 -181.2718,-619.4308 -22.3462,-106.9771 -57.8969,-407.8783 -49.094,-415.5305 3.1249,-2.7164 1.0939,-12.2435 49.2834,231.1786 44.3085,223.8166 62.8653,290.7349 98.5488,355.3788 46.4567,84.161 120.9917,118.4883 203.9024,93.9081 89.6636,-26.5821 134.8598,-106.4663 119.2034,-210.6923 -16.4515,-109.52 -78.2277,-191.045 -175.4272,-231.5079 -44.5254,-18.5354 -46.2835,-23.9629 -35.5999,-109.9024 15.4299,-124.1211 55.0792,-203.4119 113.0719,-226.1225 19.5075,-7.6393 21.9235,-7.3999 44.2117,4.3823 13.5604,7.1684 32.9093,25.3379 45.5443,42.7686 55.746,76.9035 125.3916,234.8436 148.9478,337.7786 29.77,130.0887 95.3975,252.7162 173.165,323.5653 63.4409,57.7972 122.1619,88.3268 203.7028,105.9067 57.3798,12.3711 122.922,-18.4839 157.425,-74.1101 15.8084,-25.4866 17.8407,-33.7865 21.5159,-87.8743 5.9969,-88.2513 -14.2542,-157.6776 -70.0366,-240.108 -52.2603,-77.2255 -170.3742,-168.4063 -270.8239,-209.0687 l -28.6446,-11.5955 -3.5219,-49.384 c -6.9044,-96.8152 13.2643,-161.0139 55.8195,-177.679 26.9914,-10.5701 81.8675,-5.4134 118.0697,11.0949 16.5521,7.5479 45.4217,25.2212 64.1547,39.2739 100.8805,75.6767 252.3419,306.4111 286.2106,436.01 46.9385,179.6104 150.5099,324.0641 272.3126,379.8013 44.8044,20.5027 111.413,37.1912 139.5469,34.963 83.6496,-6.6253 146.5729,-86.6993 143.8358,-183.0405 -1.5105,-53.1556 -17.8632,-119.0345 -41.2858,-166.3247 -21.7797,-43.9733 -71.8515,-107.716 -114.2034,-145.3839 -39.0847,-34.7621 -126.3132,-90.7541 -175.6992,-112.7813 -28.7774,-12.8354 -40.8115,-21.3375 -42.9203,-30.3237 -1.6115,-6.8679 -1.9769,-44.5707 -0.8118,-83.7835 1.9768,-66.5138 3.1267,-72.9509 17.1432,-95.9655 21.3943,-35.1281 44.6892,-43.9167 98.7808,-37.2672 80.1612,9.8542 151.5628,64.8134 246.8934,190.0389 33.5343,44.05 95.759,146.9287 126.956,209.9009 16.5529,33.4117 24.6488,59.2329 29.0031,92.4974 35.1227,268.3294 98.9158,522.5419 208.0983,829.2623 40.26,113.1015 58.1046,172.9154 73.049,244.8596 4.1842,20.1419 16.3502,21.4762 55.8367,6.1234 67.446,-26.224 128.6831,-97.9587 132.7034,-155.4523 1.7029,-24.3536 -4.2216,-44.3898 -38.9227,-131.6283 -40.1408,-100.9135 -82.9742,-233.4249 -119.7934,-370.5976 -10.1909,-37.9657 -18.4566,-70.0561 -18.3688,-71.3117 0.088,-1.2557 9.6814,4.7019 21.3191,13.239 93.3795,68.5016 220.9363,41.6819 285.9003,-60.1123 40.2739,-63.1059 65.411,-181.6599 59.5904,-281.0448 -1.4761,-25.2027 -1.7589,-46.627 -0.6282,-47.6096 5.7904,-5.0337 147.8061,111.5961 172.7689,141.8859 23.8611,28.953 29.9969,25.7131 33.014,-17.432 1.4561,-20.8251 -0.4332,-44.2715 -4.284,-53.1684 -11.4781,-26.5201 -101.2234,-103.9041 -203.9114,-175.8263 -21.3027,-14.9204 -24.2091,-20.2163 -34.2524,-62.4084 -15.237,-64.0093 -56.3778,-162.0967 -87.6674,-209.0154 -83.0802,-124.5782 -210.6379,-151.3637 -303.6828,-63.7699 -15.8402,14.912 -32.1987,31.9042 -36.353,37.7604 -6.1414,8.6575 -6.7768,-1.351 -3.3998,-53.552 3.7546,-58.0253 5.7519,-66.8732 20.7755,-92.0033 29.3249,-49.0504 12.3145,-56.5018 -58.607,-25.6728 z m -2948.3101,-9.3666 c 35.586,21.6742 72.5163,94.0735 132.7658,260.2779 78.3249,216.0671 108.9183,371.9355 80.0076,407.6266 -29.0324,35.841 -87.3811,-20.0741 -156.1962,-149.6815 -68.5342,-129.0784 -113.5583,-306.223 -111.8862,-440.2096 0.7486,-59.9888 0.9758,-61.011 16.5759,-74.5719 18.5761,-16.148 17.9609,-16.0933 38.7331,-3.4415 z m 3118.5374,240.4468 c 10.635,14.6957 26.0586,40.5029 34.2754,57.3494 l 14.9389,30.6297 -13.3688,-4.8787 c -57.0099,-20.8055 -86.9067,-59.1473 -72.4314,-92.8908 4.1545,-9.6839 9.735,-17.4546 12.4019,-17.268 2.6665,0.1864 13.549,12.3627 24.184,27.0584 z m -39.3337,144.7948 c 12.1473,6.1051 32.5316,14.5323 45.2991,18.727 12.7671,4.1949 36.9881,14.9073 53.824,23.8055 l 30.6112,16.1785 10.9833,48.0985 c 19.0153,83.2737 23.6452,121.4234 22.6572,186.6876 -0.8414,55.5823 -2.8931,68.4687 -16.6348,104.4619 -12.3554,32.3642 -21.3107,45.9571 -42.2891,64.1934 l -26.614,23.1353 -13.6199,-11.5474 c -23.5697,-19.9833 -59.32,-81.0136 -86.765,-148.1196 -33.5704,-82.0842 -43.5156,-117.0236 -50.3954,-177.0505 -5.3509,-46.6811 -6e-4,-178.2172 7.5149,-184.7499 2.041,-1.7744 12.6282,3.1427 23.5269,10.9267 10.8983,7.7842 29.7543,19.148 41.9016,25.253 z m -1430.9154,35.1029 c 92.5632,70.9513 160.5225,157.8805 197.0871,252.1007 18.5608,47.8279 35.5186,127.2157 28.481,133.3334 -8.7048,7.5668 -63.1143,-36.2064 -105.9043,-85.2015 -54.6194,-62.5401 -106.4083,-144.9869 -136.9366,-218.0006 -23.9185,-57.2045 -42.6086,-120.1481 -35.529,-119.653 2.4103,0.1685 26.1711,17.008 52.8018,37.421 z m 722.0432,63.712 c 42.4042,33.7713 117.0512,119.354 143.9378,165.0258 24.8263,42.1719 53.5912,120.3965 60.722,165.1298 3.4253,21.4898 4.9971,40.1428 3.4916,41.4511 -1.5051,1.3083 -15.6797,-5.3594 -31.4991,-14.8171 -53.5891,-32.0382 -148.2544,-152.6342 -194.5276,-247.8128 -20.4127,-41.9856 -50.5255,-122.6532 -54.312,-145.4909 l -2.6751,-16.138 17.985,10.8391 c 9.8916,5.9616 35.4864,24.7773 56.8774,41.813 z m -1364.2897,37.8169 c 70.3457,48.1162 118.1032,150.7119 112.0032,240.6121 -1.2177,17.9903 -3.7441,32.6026 -5.6077,32.4721 -1.8635,-0.1304 -10.677,-5.2474 -19.5857,-11.3717 -17.2123,-11.8326 -41.9222,-51.6737 -62.0678,-100.0756 -15.266,-36.6779 -55.8045,-162.7305 -55.1846,-171.5941 0.6467,-9.2487 3.9371,-8.1723 30.4426,9.9572 z M 979.48363,5669.7083 c -13.05485,7.6765 -36.47864,17.5183 -52.05304,21.8707 -15.57439,4.3524 -36.95329,13.5938 -47.50872,20.5364 -40.24307,26.469 -80.05115,116.4234 -85.40526,192.9905 l -2.50015,35.7534 -31.43892,-61.2523 c -54.37169,-105.9317 -117.48229,-181.5561 -167.16196,-200.3072 -52.38049,-19.7706 -107.71817,-9.8841 -143.61315,25.6574 -21.7048,21.4909 -51.89194,68.6192 -52.86486,82.5326 -1.10632,15.8211 -8.98188,8.5298 -21.48125,-19.8876 -19.40804,-44.1242 -71.37913,-100.2292 -106.07297,-114.5104 -57.88676,-23.8282 -115.05738,-9.4725 -178.424987,44.8033 -62.960623,53.9271 -97.532378,123.1317 -115.113343,230.4298 -32.62923,199.1415 26.503064,417.8661 150.30346,555.9564 60.73082,67.7408 123.92408,98.8462 204.51178,100.666 42.74553,0.9653 55.30404,-1.2966 92.96908,-16.7439 61.09851,-25.0582 117.17773,-74.9023 152.96958,-135.962 l 27.11383,-46.2553 4.60795,-71.553 c 4.57662,-71.063 4.39449,-72.5851 -26.59211,-222.3387 -43.17897,-208.6781 -41.66051,-263.4172 7.32719,-264.1205 17.38058,-0.2495 24.46833,3.932 48.12182,28.3902 58.20884,60.1894 149.67894,255.9195 176.50569,377.6922 17.64618,80.0995 34.44198,144.1541 59.54008,227.0695 9.72123,32.1153 22.82183,83.0878 29.11267,113.2721 6.29076,30.1844 15.34379,57.7441 20.11762,61.2434 18.64927,13.6708 111.73874,-37.0543 137.36194,-74.8496 22.9716,-33.8837 26.6608,-56.2351 16.4649,-99.7557 -13.9902,-59.7171 -39.2963,-181.7824 -38.8902,-187.5895 0.203,-2.9034 13.7461,27.5148 30.0957,67.5961 78.0794,191.4125 157.5931,307.5803 213.1914,311.468 43.1091,3.0146 75.9599,-24.1986 86.5068,-71.6608 4.4769,-20.1466 2.4341,-35.7357 -11.0693,-84.4876 -69.4877,-250.8702 -76.6942,-315.9242 -34.1677,-308.4363 21.9921,3.8723 25.7701,-16.8211 7.011,-38.4011 -12.5716,-14.4619 -17.2343,-16.036 -47.2885,-15.964 -24.757,0.059 -38.6842,3.5937 -54.0912,13.7273 -40.4361,26.5961 -64.7131,97.4148 -56.9155,166.0282 1.9806,17.428 2.8163,32.3818 1.8571,33.2306 -6.0642,5.3665 -99.5778,-281.1207 -125.0295,-383.0383 -36.3311,-145.4831 -42.1243,-221.8845 -20.3152,-267.918 6.9521,-14.6744 11.3394,-29.1566 9.7494,-32.1826 -5.5833,-10.6269 -33.9443,-7.5161 -57.44117,6.3003 z M 253.19231,5808.791 c 32.76338,39.6345 74.53595,134.1751 125.18615,283.3247 80.86872,238.134 95.18139,372.4985 39.26255,368.5881 -41.76406,-2.9204 -125.42223,-124.1345 -176.15034,-255.2282 -40.02397,-103.4311 -69.40626,-245.1663 -70.80564,-341.5524 -0.70523,-48.5652 4.136,-67.4715 21.03919,-82.1654 18.83574,-16.3736 29.4426,-11.7088 61.46809,27.0332 z" />
  </g>
</svg>
