<?xml version="1.0" standalone="no"?>
<!DOCTYPE svg PUBLIC "-//W3C//DTD SVG 20010904//EN"
 "http://www.w3.org/TR/2001/REC-SVG-20010904/DTD/svg10.dtd">
<svg version="1.0" xmlns="http://www.w3.org/2000/svg"
 width="1280.000000pt" height="885.000000pt" viewBox="0 0 1280.000000 885.000000"
 preserveAspectRatio="xMidYMid meet">
<metadata>
Created by potrace 1.15, written by Peter Selinger 2001-2017
</metadata>
<g transform="translate(0.000000,885.000000) scale(0.100000,-0.100000)"
fill="#000000" stroke="none">
<path d="M10832 8819 c-65 -32 -102 -69 -102 -101 0 -30 46 -135 105 -238 30
-53 55 -105 55 -116 0 -11 18 -57 40 -103 52 -106 93 -226 114 -326 50 -240
35 -660 -34 -938 -23 -93 -115 -332 -168 -436 -92 -183 -290 -473 -633 -926
-52 -68 -181 -193 -390 -378 -309 -272 -400 -337 -765 -548 -262 -152 -360
-214 -488 -308 -50 -37 -134 -96 -186 -131 -52 -35 -115 -80 -138 -101 -24
-21 -67 -51 -95 -67 -96 -54 -355 -319 -402 -412 -10 -19 -31 -51 -46 -70 -79
-98 -121 -370 -84 -543 29 -138 99 -230 231 -302 120 -66 154 -111 154 -202 0
-85 -17 -123 -83 -188 -82 -81 -156 -130 -307 -203 -139 -67 -193 -108 -239
-180 -48 -75 -61 -126 -72 -279 l-10 -143 -98 -97 c-107 -107 -130 -142 -156
-248 -9 -38 -23 -82 -31 -97 -8 -15 -55 -55 -104 -89 -103 -70 -257 -219 -267
-257 -9 -38 56 -96 126 -111 108 -23 353 -10 551 30 144 29 293 24 365 -12 86
-43 136 -161 175 -414 20 -126 75 -216 158 -257 38 -19 63 -23 137 -23 78 0
95 3 129 24 37 23 42 24 187 18 115 -5 161 -3 205 9 71 18 156 66 183 102 17
23 26 27 68 26 29 -1 70 -12 103 -28 62 -29 112 -32 208 -12 91 20 151 54 195
112 51 67 77 141 77 218 0 93 8 97 178 107 188 10 268 42 332 131 57 78 66
188 30 342 -12 49 -19 100 -15 114 6 23 8 24 53 16 26 -4 108 -8 182 -8 116
-1 141 2 175 19 25 12 41 28 43 41 2 12 21 36 42 53 58 46 83 130 84 281 1
113 1 115 26 122 14 4 88 25 165 47 532 149 583 169 818 310 233 140 321 214
402 340 52 80 63 118 45 160 -14 35 -4 58 75 171 29 42 61 93 72 115 41 81 92
275 108 408 24 200 32 231 100 378 63 135 94 225 115 331 8 39 27 80 59 130
168 255 244 548 195 747 -23 93 -45 131 -119 210 l-65 68 0 321 0 321 -116
223 c-64 123 -133 249 -154 280 -59 86 -60 114 -16 442 15 113 12 137 -49 323
-48 151 -162 336 -312 511 -71 82 -88 111 -98 167 -12 64 -84 202 -135 258
-54 60 -73 95 -124 227 -21 52 -58 128 -83 169 -119 191 -486 501 -593 501
-15 0 -54 -14 -88 -31z m251 -345 c107 -54 244 -165 314 -256 89 -117 133
-257 133 -430 0 -199 31 -194 110 17 6 18 8 17 23 -12 33 -63 76 -416 63 -515
-13 -94 -65 -183 -180 -306 -114 -122 -101 -144 40 -67 45 25 87 45 93 45 6 0
11 -12 11 -28 0 -37 -51 -243 -90 -366 -30 -94 -35 -102 -103 -170 -40 -39
-115 -98 -167 -131 -80 -51 -90 -60 -68 -63 33 -4 130 30 180 63 44 29 54 31
62 10 10 -26 -6 -79 -34 -115 -15 -19 -57 -82 -94 -140 -83 -131 -139 -198
-174 -206 -39 -10 -136 -60 -151 -78 -18 -22 -3 -20 59 4 28 11 57 20 65 20
31 0 13 -47 -60 -154 -113 -168 -171 -234 -240 -273 -86 -48 -173 -89 -224
-104 -24 -8 -51 -24 -59 -36 -13 -21 -13 -23 4 -30 10 -4 66 5 126 21 59 15
113 26 120 23 18 -7 -309 -330 -347 -343 -16 -6 -61 -21 -98 -32 -57 -17 -69
-18 -74 -6 -3 8 -13 14 -23 14 -26 0 -28 13 -14 108 17 116 26 300 16 342 -9
42 -38 52 -51 18 -5 -13 -12 -81 -16 -152 -8 -146 -25 -206 -84 -306 -129
-215 -327 -416 -608 -616 -252 -179 -626 -390 -738 -415 -194 -43 -258 -73
-301 -141 -34 -53 -44 -115 -20 -124 22 -8 58 8 110 50 89 72 153 84 241 42
107 -50 160 -131 160 -246 0 -64 -4 -83 -30 -128 -51 -93 -121 -141 -246 -167
-40 -8 -79 -21 -87 -29 -12 -12 -11 -16 12 -32 24 -15 38 -16 125 -7 154 17
234 -7 309 -93 42 -47 80 -131 89 -195 4 -24 -1 -48 -16 -76 -26 -52 -113
-161 -152 -192 l-31 -24 -86 21 c-136 32 -150 34 -171 22 -14 -7 -21 -21 -21
-42 0 -32 36 -73 127 -145 73 -58 116 -182 91 -264 -25 -85 -152 -177 -257
-187 l-48 -4 -52 66 c-64 80 -102 108 -138 104 -46 -5 -39 -35 37 -153 79
-123 104 -186 104 -261 0 -70 -35 -123 -105 -158 -89 -44 -137 -32 -267 68
-102 77 -142 85 -162 30 -13 -34 -6 -57 30 -98 16 -18 42 -57 57 -87 25 -47
28 -65 28 -144 0 -71 -4 -97 -18 -119 -40 -60 -213 -108 -274 -75 -14 7 -38
33 -55 56 -30 44 -54 55 -64 28 -12 -30 95 -309 143 -373 41 -55 59 16 23 90
-11 23 -18 43 -15 46 10 10 65 -64 123 -167 67 -117 83 -136 107 -127 20 7 19
36 -6 123 -46 165 9 92 70 -91 42 -130 115 -441 107 -462 -2 -7 -25 -26 -50
-43 -63 -44 -99 -41 -161 10 -83 68 -102 108 -136 276 -26 133 -36 161 -91
271 -84 166 -85 166 -212 170 -118 4 -242 -15 -344 -54 -80 -30 -197 -44 -374
-44 -127 0 -138 2 -148 20 -32 60 101 202 225 240 57 18 82 45 95 104 14 62
88 214 135 278 19 26 59 65 89 88 31 22 61 50 68 63 7 13 15 83 19 167 10 232
35 266 289 395 240 121 334 193 399 306 29 51 31 60 31 156 0 115 -22 202 -64
258 -34 44 -53 54 -127 66 -78 12 -100 28 -149 101 -48 72 -80 170 -80 245 0
121 125 407 234 534 68 81 179 184 266 249 30 22 59 50 64 61 6 11 53 46 105
76 53 31 132 82 176 114 44 31 260 166 480 299 438 266 618 383 770 504 114
91 344 312 479 462 111 123 366 457 493 648 156 233 294 534 372 812 106 374
116 611 42 964 -45 218 -71 300 -137 442 -59 126 -51 142 49 92z m871 -1148
c172 -213 269 -454 245 -606 -20 -129 -77 -236 -206 -387 -115 -135 -102 -145
51 -36 49 34 95 63 103 63 29 0 8 -133 -53 -325 -74 -230 -144 -335 -296 -440
-32 -22 -60 -46 -63 -54 -9 -23 60 -6 153 39 47 22 87 38 90 35 16 -16 -137
-312 -188 -363 -27 -27 -171 -127 -296 -207 l-79 -50 36 -3 c20 -2 63 7 95 18
88 32 94 34 94 20 0 -33 -181 -283 -233 -323 -19 -14 -79 -50 -135 -81 -122
-67 -232 -138 -232 -150 0 -17 118 1 146 23 28 22 54 28 54 12 0 -30 -345
-367 -404 -395 -18 -8 -64 -18 -102 -22 -56 -5 -72 -3 -82 9 -12 14 9 39 151
185 148 152 189 204 174 218 -2 3 -42 -27 -88 -65 -91 -76 -144 -109 -156 -98
-15 16 36 85 161 216 137 144 236 262 263 314 9 18 29 48 44 67 38 48 74 129
61 142 -6 6 -48 -38 -117 -122 -166 -204 -308 -360 -326 -360 -16 0 -27 44
-18 68 5 13 54 77 108 141 154 184 347 464 493 716 132 226 292 616 357 870
47 182 23 210 -34 40 -23 -66 -46 -129 -53 -140 -24 -36 -5 74 27 162 49 133
119 546 135 793 4 52 9 117 12 143 7 58 7 58 108 -67z m-320 -1123 c-11 -44
-78 -200 -152 -355 -117 -244 -317 -561 -557 -883 -45 -60 -95 -131 -111 -157
-33 -55 -51 -65 -73 -44 -13 14 -13 19 1 48 9 18 55 78 103 133 248 285 470
632 662 1035 95 201 121 250 129 250 2 0 1 -12 -2 -27z m683 -125 c29 -31 79
-132 103 -207 47 -150 62 -292 39 -389 -18 -74 -93 -222 -143 -280 -71 -83
-64 -89 45 -37 46 22 77 31 83 25 6 -6 1 -42 -13 -97 -25 -97 -148 -355 -207
-436 -39 -54 -191 -171 -244 -188 -51 -16 -100 -48 -100 -65 0 -26 103 -11
203 31 32 14 18 -22 -42 -103 -84 -114 -180 -212 -245 -251 -31 -18 -100 -50
-153 -70 -111 -41 -141 -56 -131 -67 10 -10 92 -23 153 -24 l50 -1 -50 -46
c-102 -94 -272 -188 -363 -200 -70 -9 -81 -18 -46 -36 16 -8 47 -18 67 -22 21
-4 37 -11 35 -15 -5 -13 -234 -186 -338 -255 -101 -68 -150 -88 -150 -62 0 8
23 47 50 88 28 41 50 79 50 86 0 7 18 57 39 110 22 54 47 130 57 168 l17 70
185 180 c185 180 252 255 252 282 0 19 -36 -10 -215 -171 -148 -134 -211 -183
-222 -173 -11 12 52 82 267 297 118 118 255 265 303 325 170 212 375 540 441
707 51 129 27 116 -50 -28 -192 -358 -589 -829 -922 -1096 -175 -139 -150 -98
98 162 259 271 338 367 456 545 254 386 446 783 540 1119 41 147 59 169 101
124z m309 -1234 c18 -38 28 -79 35 -150 20 -208 -18 -332 -168 -553 -93 -135
-103 -146 -206 -215 -91 -61 -120 -96 -77 -96 28 0 91 33 167 86 34 24 64 44
66 44 9 0 -22 -111 -46 -164 -58 -126 -229 -312 -343 -373 -33 -17 -115 -48
-184 -68 -202 -59 -220 -85 -59 -85 54 0 99 -2 99 -5 0 -20 -98 -146 -133
-172 -92 -69 -257 -134 -378 -148 -26 -3 -55 -12 -65 -20 -18 -12 -13 -16 53
-47 40 -18 72 -35 73 -39 0 -8 -150 -97 -185 -109 -17 -6 -80 -14 -140 -18
-122 -8 -140 -20 -85 -57 16 -11 30 -25 30 -31 0 -12 -167 -92 -212 -101 -34
-7 -34 -4 -7 50 17 33 22 61 23 132 l1 90 85 45 c184 98 423 263 435 301 15
46 -1 39 -223 -98 -85 -52 -172 -101 -195 -109 -23 -8 -57 -24 -75 -34 -39
-24 -82 -26 -82 -6 0 20 45 53 160 117 133 74 188 110 320 207 233 172 494
403 525 463 8 15 43 47 78 72 67 48 182 181 256 296 45 70 45 70 32 90 -14 22
-42 -1 -118 -96 -138 -172 -576 -577 -781 -723 -224 -158 -565 -350 -624 -350
-62 0 -31 26 137 120 72 40 159 92 195 116 93 62 326 240 460 352 145 122 505
480 594 592 146 183 288 421 406 679 l65 142 33 -38 c18 -21 44 -61 58 -89z
m-2077 -163 c58 -41 66 -64 65 -184 -2 -127 -28 -229 -90 -347 -82 -157 -252
-340 -404 -434 -52 -33 -149 -94 -215 -137 -152 -97 -313 -186 -445 -245 -102
-45 -263 -94 -309 -94 -22 0 -23 3 -18 36 4 20 17 48 29 61 13 14 150 88 306
166 155 77 295 152 310 166 26 25 26 26 6 29 -16 2 -396 -152 -620 -253 -36
-15 -44 -12 -44 20 0 30 11 38 137 100 182 89 483 302 483 341 0 8 -2 14 -3
14 -9 0 -222 -114 -337 -179 -137 -79 -252 -136 -294 -147 -42 -10 -33 21 17
54 23 16 102 61 175 101 169 91 254 143 316 193 62 49 78 71 74 104 -3 25 -7
23 -156 -71 -275 -172 -461 -265 -532 -265 -78 0 -57 18 171 148 360 204 621
396 879 647 139 135 212 176 345 195 74 10 123 4 154 -19z m317 -774 c36 -19
64 -78 64 -135 0 -76 -68 -275 -116 -339 -13 -17 -24 -38 -24 -47 0 -8 -8 -21
-19 -28 -10 -7 -21 -23 -25 -35 -4 -12 -22 -32 -39 -45 -18 -12 -72 -55 -120
-95 -48 -40 -93 -73 -99 -73 -6 0 -78 -34 -158 -74 -274 -139 -399 -181 -714
-236 -129 -23 -251 -40 -280 -38 -45 3 -52 6 -60 30 -8 23 -6 31 10 42 10 8
114 47 229 86 222 76 313 115 358 158 64 61 21 56 -226 -24 -241 -78 -354
-107 -375 -95 -21 12 20 36 148 92 282 122 364 165 455 236 101 79 67 84 -95
12 -306 -135 -594 -239 -612 -221 -13 13 68 55 253 132 172 72 456 215 599
302 176 107 283 186 397 291 124 115 156 128 313 124 75 -2 114 -8 136 -20z
m1378 -587 c10 -71 -1 -140 -41 -260 -43 -130 -93 -226 -151 -291 -25 -28
-105 -97 -179 -156 -134 -105 -156 -134 -106 -141 12 -2 56 11 98 27 88 36 95
37 95 15 0 -20 -152 -169 -240 -235 -146 -109 -257 -149 -423 -149 -78 0 -99
-3 -103 -15 -9 -23 14 -44 62 -56 25 -6 44 -17 44 -25 0 -38 -162 -119 -320
-159 -36 -9 -126 -36 -200 -60 -176 -56 -215 -62 -257 -36 -40 25 -70 68 -56
82 5 5 61 31 123 57 62 26 115 52 117 58 2 7 -13 16 -33 21 l-37 8 117 64 c65
35 114 67 109 71 -4 5 -62 -3 -127 -16 -66 -14 -138 -24 -160 -22 -37 3 -27 8
111 56 272 94 578 238 720 338 78 56 233 202 233 220 0 21 -9 18 -85 -29 -128
-80 -389 -215 -505 -263 -199 -81 -463 -175 -510 -181 l-45 -6 19 21 c23 26
136 74 265 112 66 20 176 69 347 156 493 252 685 396 1025 772 36 39 70 72 76
72 6 0 13 -22 17 -50z m-1669 -443 c77 -21 94 -34 117 -85 40 -93 3 -229 -85
-314 -88 -85 -286 -182 -462 -227 -116 -29 -285 -43 -565 -44 -343 -3 -548 25
-558 76 -3 14 5 17 55 18 224 2 494 19 546 33 66 18 192 75 222 100 19 16 19
17 -15 13 -19 -3 -54 -12 -77 -21 -23 -8 -95 -21 -159 -27 -119 -12 -395 -8
-426 6 -25 10 -22 29 5 43 48 25 86 34 231 53 296 40 547 111 513 145 -4 4
-73 -5 -154 -19 -271 -48 -498 -60 -498 -27 0 25 43 38 196 59 174 25 253 41
421 86 172 47 338 101 401 131 48 23 60 25 147 20 52 -3 118 -12 145 -19z
m-1350 -766 c111 -24 211 -38 385 -51 189 -15 293 -34 405 -75 213 -77 334
-199 405 -405 27 -80 22 -116 -25 -210 -40 -80 -57 -94 -142 -114 -58 -13 -65
-13 -100 5 -21 10 -79 49 -128 87 -138 104 -184 134 -231 148 -23 7 -78 28
-121 47 -44 19 -108 43 -144 53 -211 58 -549 230 -549 279 0 20 12 19 90 -5
84 -27 295 -40 288 -19 -2 8 -71 37 -152 65 -170 59 -204 80 -111 70 130 -15
284 -26 373 -26 148 0 112 27 -68 50 -111 14 -195 38 -215 61 -9 9 -23 15 -31
12 -16 -6 -64 22 -64 37 0 15 36 12 135 -9z m1338 -128 c-7 -2 -21 -2 -30 0
-10 3 -4 5 12 5 17 0 24 -2 18 -5z m-133 -24 c0 -12 -37 -12 -44 0 -7 11 14
20 32 13 6 -2 12 -8 12 -13z m-1419 -259 c35 -18 114 -61 175 -96 62 -35 120
-64 130 -64 11 0 57 -16 104 -36 47 -19 126 -49 175 -66 163 -54 250 -114 317
-218 91 -143 89 -349 -4 -452 -37 -39 -86 -52 -248 -64 l-85 -6 -218 226
c-167 173 -243 243 -325 302 -204 146 -347 277 -340 310 5 26 45 20 78 -10 31
-30 142 -85 238 -120 120 -43 144 -33 67 28 -25 20 -65 52 -91 72 -25 20 -43
38 -41 41 3 2 58 -16 122 -41 113 -44 165 -56 165 -37 0 28 -25 48 -156 122
-156 89 -234 147 -213 159 15 10 63 -7 150 -50z m-243 -397 c51 -37 117 -85
147 -107 29 -21 134 -120 232 -220 175 -177 180 -184 237 -296 66 -131 68
-155 20 -259 -29 -65 -42 -80 -107 -132 -58 -46 -84 -49 -201 -18 -57 15 -88
29 -107 48 -14 15 -63 112 -108 217 -141 320 -166 363 -315 547 -107 132 -146
187 -146 204 0 21 33 0 118 -74 125 -109 272 -197 287 -172 9 14 -8 33 -87 96
-38 30 -68 58 -68 63 0 4 44 -14 98 -40 100 -50 152 -67 152 -51 0 5 -42 42
-92 82 -111 87 -208 178 -208 196 0 19 36 -1 148 -84z m-140 -64 c12 -17 12
-21 1 -14 -23 13 -59 48 -59 57 0 13 39 -16 58 -43z m-254 -105 c17 -7 173
-191 223 -265 18 -26 45 -80 62 -120 16 -41 47 -113 69 -160 65 -142 75 -181
63 -240 -30 -138 -117 -201 -258 -183 -32 3 -68 11 -81 15 -33 12 -57 75 -82
209 -42 229 -85 349 -186 521 -24 42 -44 79 -44 82 0 37 138 -95 227 -216 35
-49 70 -86 76 -84 40 13 -5 125 -107 262 -120 162 -78 133 111 -77 63 -71 118
-128 123 -128 21 0 -58 146 -162 303 -32 48 -57 87 -54 87 2 0 11 -3 20 -6z
m-394 -260 c0 -8 -7 -14 -15 -14 -15 0 -21 21 -9 33 10 9 24 -2 24 -19z"/>
<path d="M10119 5033 c-71 -118 -120 -185 -186 -249 -80 -80 -59 -123 33 -69
94 55 218 245 231 354 9 79 -16 67 -78 -36z"/>
<path d="M8832 3483 c-35 -7 -44 -35 -27 -84 20 -55 32 -69 61 -69 49 0 69
103 28 145 -16 15 -21 16 -62 8z"/>
<path d="M8940 2785 c0 -34 26 -97 47 -112 12 -10 21 -9 42 1 37 20 63 51 59
72 -5 29 -66 64 -109 64 -35 0 -39 -3 -39 -25z"/>
<path d="M8732 2107 c-12 -13 -22 -26 -22 -30 0 -13 62 -77 75 -77 20 0 45 47
48 88 2 37 2 37 -38 40 -32 2 -45 -2 -63 -21z"/>
<path d="M8349 1594 c-11 -13 -11 -20 2 -42 11 -21 22 -27 49 -27 44 0 51 25
16 60 -29 29 -48 32 -67 9z"/>
<path d="M7898 1201 l-33 -29 29 -8 c55 -13 114 32 74 57 -22 14 -36 10 -70
-20z"/>
<path d="M8019 292 c15 -29 97 -101 136 -119 26 -13 38 -14 47 -5 14 14 -1 34
-51 64 -20 12 -52 34 -71 50 -41 33 -76 39 -61 10z"/>
<path d="M11230 3846 c-84 -72 -159 -166 -132 -166 36 0 202 155 202 189 0 30
-12 26 -70 -23z"/>
<path d="M10417 4469 c-9 -14 -22 -60 -28 -104 -19 -142 -56 -214 -179 -348
-38 -43 -70 -82 -70 -88 0 -22 77 13 166 76 86 61 136 140 160 253 17 80 9
184 -16 215 l-17 21 -16 -25z"/>
<path d="M10284 4325 c-28 -28 -88 -149 -82 -166 11 -32 128 117 128 163 0 29
-19 30 -46 3z"/>
<path d="M10736 3741 c-3 -5 -9 -45 -12 -88 -10 -124 -41 -179 -164 -296 -57
-54 -116 -105 -132 -113 -37 -19 -35 -51 2 -46 98 14 261 158 324 286 44 89
58 190 34 236 -14 26 -42 38 -52 21z"/>
<path d="M10516 3495 c-85 -73 -108 -132 -32 -86 39 25 79 68 102 112 22 43 3
36 -70 -26z"/>
<path d="M10555 2643 c-96 -88 -226 -168 -357 -219 -65 -26 -121 -50 -124 -55
-9 -14 107 -10 197 7 118 22 178 54 264 139 76 74 89 99 83 152 l-3 31 -60
-55z"/>
<path d="M10349 2635 c-49 -18 -101 -44 -121 -63 -14 -11 -15 -18 -7 -29 18
-21 52 -15 89 15 19 16 52 38 73 51 62 38 41 54 -34 26z"/>
<path d="M10181 1569 c-45 -32 -52 -62 -15 -67 26 -4 111 69 100 86 -12 20
-41 14 -85 -19z"/>
<path d="M10294 1507 c-28 -23 -72 -54 -98 -70 -49 -29 -57 -50 -24 -71 22
-13 93 23 138 69 26 27 58 116 41 114 -3 0 -29 -19 -57 -42z"/>
<path d="M9880 1045 c0 -89 -16 -131 -63 -166 -32 -24 -47 -26 -241 -29 -16 0
-16 -2 -6 -16 20 -24 46 -34 107 -44 43 -7 63 -6 92 6 100 42 168 173 141 273
-18 68 -30 58 -30 -24z"/>
<path d="M9723 1013 c-16 -6 -17 -69 -3 -78 25 -15 66 49 48 73 -11 12 -24 14
-45 5z"/>
<path d="M9199 550 c-65 -19 -106 -70 -56 -70 27 0 93 31 127 59 l25 21 -35
-1 c-19 0 -47 -4 -61 -9z"/>
<path d="M9296 504 c-64 -44 -118 -64 -176 -64 -64 0 -100 -8 -100 -22 0 -21
59 -67 93 -73 59 -11 105 3 152 46 39 36 86 122 73 134 -2 2 -21 -7 -42 -21z"/>
<path d="M8585 461 c-12 -5 -27 -16 -35 -26 -12 -14 -12 -18 1 -26 19 -12 52
-11 84 1 20 7 26 16 23 33 -3 24 -37 33 -73 18z"/>
<path d="M8645 333 c-50 -11 -145 -45 -145 -52 0 -4 8 -15 18 -24 35 -32 131
-15 181 32 17 16 31 34 31 40 0 11 -46 13 -85 4z"/>
<path d="M1785 8816 c-168 -79 -473 -392 -564 -577 -17 -35 -36 -86 -42 -114
-17 -72 -25 -86 -101 -176 -80 -95 -115 -158 -129 -237 -15 -77 -28 -99 -114
-191 -41 -45 -75 -87 -75 -95 0 -8 -18 -35 -40 -61 -84 -97 -175 -289 -221
-465 -19 -76 -21 -101 -16 -230 6 -119 10 -152 27 -185 17 -32 20 -50 15 -94
-9 -69 -18 -93 -54 -139 -30 -37 -154 -260 -230 -410 l-41 -82 0 -321 0 -321
-60 -66 c-124 -136 -160 -274 -130 -486 19 -129 103 -337 192 -475 30 -48 51
-94 59 -130 22 -111 52 -198 109 -321 77 -168 88 -201 95 -300 16 -229 116
-533 209 -638 43 -49 47 -61 56 -164 6 -80 10 -93 46 -145 81 -118 234 -253
359 -315 33 -17 92 -50 130 -73 137 -83 246 -124 634 -240 156 -46 288 -90
292 -97 5 -7 5 -47 2 -89 -8 -100 17 -213 57 -266 17 -21 41 -55 55 -75 39
-59 101 -72 298 -65 157 6 157 6 157 -16 0 -12 -5 -96 -12 -187 -6 -91 -8
-178 -4 -193 10 -42 91 -123 150 -152 67 -33 186 -55 297 -55 49 0 89 -3 89
-6 0 -4 7 -54 16 -113 17 -120 39 -166 105 -225 59 -54 139 -88 218 -94 56 -4
81 1 158 27 49 17 100 31 111 31 11 0 41 -18 66 -40 26 -21 76 -54 114 -72
l67 -33 178 3 c167 3 181 1 213 -18 73 -46 217 -34 301 24 63 43 87 93 118
245 46 230 89 341 145 381 81 57 213 64 444 23 125 -22 182 -27 326 -27 158
-1 179 1 221 20 55 26 94 75 85 109 -8 31 -140 152 -246 225 -115 79 -128 95
-150 183 -30 119 -62 171 -171 280 l-99 98 0 92 c0 156 -36 273 -110 366 -44
55 -102 93 -208 139 -109 47 -279 158 -321 209 -39 47 -61 112 -61 180 0 98
25 131 161 206 153 84 239 243 239 440 0 142 -46 320 -99 387 -15 19 -40 58
-55 87 -56 103 -256 311 -381 396 -33 23 -192 134 -353 248 -193 137 -370 253
-520 340 -248 144 -500 307 -603 391 -101 82 -425 374 -505 454 -39 39 -113
129 -164 200 -52 71 -141 192 -199 269 -58 77 -116 159 -129 183 -14 24 -35
54 -47 66 -63 63 -235 393 -312 601 -91 245 -142 663 -113 926 22 203 71 348
227 669 52 107 103 216 114 242 l18 47 -25 30 c-35 42 -118 81 -173 81 -27 0
-67 -10 -96 -24z m1 -356 c-3 -17 -26 -77 -50 -135 -59 -138 -78 -203 -121
-430 -49 -253 -54 -367 -26 -555 95 -628 345 -1114 937 -1820 286 -341 549
-544 1264 -975 162 -98 354 -217 425 -265 72 -48 159 -104 195 -124 112 -66
389 -313 474 -425 95 -125 169 -276 207 -426 26 -101 21 -148 -28 -260 -56
-129 -108 -175 -200 -175 -37 0 -95 -36 -121 -75 -39 -56 -54 -121 -55 -245
-2 -134 2 -145 89 -240 71 -76 166 -139 367 -241 125 -65 164 -89 190 -122 55
-70 60 -90 66 -261 l6 -159 40 -31 c127 -100 221 -226 252 -339 7 -29 18 -69
24 -90 9 -34 17 -41 92 -78 99 -49 181 -110 214 -161 51 -76 17 -98 -154 -98
-184 0 -288 16 -473 75 -97 31 -164 39 -251 30 -62 -6 -74 -11 -105 -42 -34
-34 -93 -140 -121 -218 -8 -22 -32 -106 -53 -187 -57 -216 -91 -270 -193 -313
-44 -18 -61 -12 -126 48 l-41 37 45 183 c54 219 109 384 140 423 13 16 25 27
28 24 3 -3 -6 -36 -19 -75 -28 -84 -31 -133 -7 -142 21 -8 43 20 121 155 69
119 89 148 97 140 3 -3 -4 -29 -15 -58 -22 -56 -23 -101 -3 -107 33 -11 173
307 173 394 0 48 -12 47 -50 -5 -51 -68 -95 -95 -146 -88 -59 8 -148 43 -177
70 -16 15 -29 43 -37 80 -20 96 6 185 80 278 22 28 40 58 40 68 0 23 -42 84
-60 88 -8 1 -51 -28 -95 -64 -87 -73 -143 -103 -190 -104 -41 0 -124 41 -160
79 -28 30 -30 37 -30 109 1 88 16 123 117 276 54 81 57 91 45 110 -25 38 -61
32 -104 -15 -119 -134 -130 -142 -170 -134 -93 17 -191 93 -234 180 -53 109
-33 162 119 310 94 92 105 114 75 147 -20 23 -35 22 -158 -6 -119 -27 -128
-25 -199 56 -67 76 -110 167 -103 217 13 100 88 206 179 256 59 32 103 36 243
22 64 -7 84 -6 100 6 30 23 6 42 -78 62 -97 24 -155 54 -206 110 -55 60 -74
106 -74 180 -1 100 50 182 152 246 79 50 161 36 266 -48 69 -54 74 -56 90 -43
24 20 18 73 -14 116 -60 85 -161 144 -243 144 -120 0 -521 223 -873 485 -275
204 -462 411 -562 620 -29 62 -36 91 -44 182 -19 206 -23 228 -41 231 -28 5
-38 -38 -38 -166 0 -90 5 -138 22 -205 l23 -89 -24 -19 c-28 -23 -67 -24 -144
-4 -81 21 -128 54 -247 174 -112 113 -167 178 -157 187 3 4 55 -6 114 -22 61
-15 117 -25 127 -21 17 7 17 9 4 30 -8 12 -35 28 -59 36 -74 24 -120 44 -212
94 l-87 49 -130 172 c-72 95 -130 180 -130 189 0 19 26 22 80 8 73 -19 90 -21
90 -12 0 11 -133 81 -156 81 -58 0 -329 408 -308 464 8 22 16 21 74 -15 48
-29 127 -59 157 -59 30 0 8 21 -68 67 -157 93 -238 209 -298 428 -28 101 -62
266 -55 273 4 5 79 -35 145 -78 34 -22 66 -40 71 -40 24 0 1 46 -54 107 -123
134 -169 205 -193 301 -14 54 -15 81 -6 190 14 156 39 308 57 344 17 33 33 44
38 26 25 -93 71 -177 87 -161 5 5 13 81 18 169 9 187 22 227 110 361 90 137
192 227 324 289 73 33 91 32 83 -6z m-826 -1196 c10 -181 42 -442 59 -486 6
-15 17 -66 26 -113 9 -48 37 -152 61 -233 24 -80 43 -150 41 -155 -6 -20 -39
47 -75 155 -39 115 -62 147 -62 86 0 -75 109 -408 211 -646 140 -327 413 -760
682 -1081 85 -101 101 -132 92 -168 -4 -19 -9 -21 -23 -14 -31 16 -158 153
-291 313 -71 86 -135 159 -141 163 -28 17 -4 -51 45 -129 74 -118 156 -222
318 -399 129 -142 178 -209 165 -222 -10 -10 -35 6 -138 89 -52 42 -98 76
-102 76 -35 0 77 -144 172 -223 94 -78 165 -156 152 -169 -17 -17 -97 -21
-151 -8 -44 10 -68 28 -178 129 -159 146 -269 269 -254 284 8 8 20 4 42 -12
34 -25 149 -43 149 -23 0 12 -135 97 -258 162 -47 25 -107 68 -138 98 -87 85
-226 283 -210 299 3 4 32 -4 63 -17 59 -24 171 -41 160 -23 -3 5 -45 33 -94
63 -48 30 -123 80 -166 112 -43 32 -83 58 -88 58 -23 0 -209 326 -209 367 0
20 18 16 110 -27 129 -60 171 -51 79 18 -96 72 -112 86 -162 147 -85 104 -118
166 -142 273 -12 53 -37 152 -55 220 -18 67 -30 125 -27 128 11 12 74 -17 132
-62 80 -61 115 -79 115 -61 0 15 -27 54 -119 166 -103 128 -153 241 -153 353
0 77 42 258 78 333 35 74 258 364 270 352 2 -2 8 -80 14 -173z m315 -1244 c54
-113 110 -234 125 -270 15 -36 56 -109 91 -162 35 -54 90 -138 122 -188 73
-112 254 -353 363 -482 93 -109 106 -135 78 -155 -10 -7 -23 -12 -29 -10 -5 2
-42 50 -80 108 -39 57 -131 188 -205 291 -74 102 -178 255 -230 340 -160 259
-350 655 -350 731 0 36 15 10 115 -203z m-746 66 c6 -7 40 -98 75 -202 111
-327 229 -582 402 -865 48 -79 105 -176 127 -216 49 -89 156 -212 430 -498
231 -240 245 -255 229 -255 -39 0 -395 318 -545 487 -190 213 -374 472 -503
706 -45 83 -73 113 -59 65 52 -171 184 -405 365 -643 123 -162 179 -225 442
-491 131 -132 238 -245 238 -250 -1 -43 -25 -27 -191 127 -204 189 -257 234
-266 226 -8 -9 41 -82 96 -140 25 -28 109 -107 186 -177 151 -137 155 -143
194 -285 13 -44 54 -148 93 -232 38 -84 67 -156 64 -162 -4 -6 -14 -7 -24 -4
-52 19 -373 260 -399 300 -23 35 -10 53 36 53 42 0 63 16 40 31 -8 5 -26 9
-41 9 -75 0 -271 102 -368 190 -27 25 -50 48 -50 51 0 4 37 9 81 13 45 4 91
12 102 18 20 10 20 11 -4 24 -13 7 -49 21 -79 30 -30 9 -71 24 -92 35 -20 10
-45 19 -55 19 -37 0 -124 73 -206 170 -94 112 -162 208 -154 216 3 3 37 -6 77
-20 151 -55 190 -20 55 48 -145 73 -232 150 -296 261 -107 185 -210 475 -168
475 6 0 30 -12 55 -26 45 -27 134 -58 134 -47 0 3 -30 38 -67 78 -67 71 -80
95 -135 245 -52 142 20 492 126 618 31 36 38 38 55 18z m-175 -1315 c211 -420
333 -594 646 -915 262 -269 672 -591 957 -752 157 -89 189 -114 180 -138 -6
-16 -24 -9 -140 52 -74 38 -174 94 -223 125 -49 30 -104 62 -122 71 -66 34
-356 251 -460 345 -167 150 -366 347 -445 440 -133 157 -133 157 -151 142 -14
-12 -14 -16 4 -51 54 -107 278 -360 318 -360 13 0 24 -10 30 -30 34 -97 545
-510 826 -667 145 -81 186 -111 186 -133 0 -26 -20 -25 -78 4 -26 13 -58 27
-72 31 -14 4 -110 59 -215 121 -104 63 -195 114 -202 114 -68 0 128 -156 370
-296 65 -37 122 -75 128 -85 5 -10 14 -53 19 -96 6 -43 22 -100 35 -127 l23
-48 -39 5 c-42 5 -192 72 -209 92 -7 9 0 19 25 36 61 41 45 53 -87 62 -128 8
-140 12 -251 77 -74 43 -92 60 -64 60 15 0 137 57 137 64 0 14 -48 28 -122 36
-56 7 -104 20 -157 44 -42 19 -92 40 -110 47 -45 17 -150 121 -183 182 l-27
47 103 0 c168 0 154 20 -63 89 -107 34 -176 63 -216 89 -113 74 -241 221 -303
348 -29 59 -57 152 -48 161 2 3 28 -13 58 -35 71 -54 127 -82 160 -82 32 0 37
19 11 42 -10 8 -53 36 -96 62 -42 26 -88 62 -100 79 -102 140 -169 240 -183
273 -8 21 -25 59 -37 84 -20 41 -22 60 -22 235 0 167 2 194 19 225 19 35 84
120 92 120 2 0 46 -85 98 -189z m2103 -86 c34 -8 92 -29 129 -46 64 -30 92
-54 199 -168 174 -185 521 -437 857 -622 134 -73 198 -116 198 -131 0 -7 -19
-9 -52 -6 -37 3 -85 20 -159 56 -98 48 -147 77 -406 235 -51 32 -97 57 -103
57 -5 0 -10 -9 -10 -20 0 -52 145 -160 407 -301 175 -94 214 -122 198 -138
-17 -16 -141 39 -342 152 -200 113 -308 165 -320 153 -23 -23 425 -325 567
-382 51 -21 55 -26 58 -58 3 -31 1 -35 -15 -29 -10 4 -160 67 -333 140 -172
73 -316 130 -319 127 -23 -23 91 -94 336 -209 270 -126 290 -138 304 -185 18
-59 8 -74 -46 -67 -149 21 -569 225 -815 397 -69 48 -158 108 -198 135 -109
71 -253 245 -327 393 -69 140 -103 337 -75 437 20 70 56 95 138 95 37 0 95 -7
129 -15z m-207 -781 c25 -12 94 -65 154 -118 126 -112 232 -190 366 -268 219
-127 527 -278 750 -367 95 -38 116 -50 118 -69 2 -14 -2 -22 -11 -22 -34 0
-409 147 -589 231 -69 32 -135 59 -147 59 -31 0 -36 -20 -10 -45 33 -33 306
-172 479 -245 80 -33 153 -69 164 -79 18 -18 18 -19 -3 -26 -27 -8 -241 50
-419 115 -131 48 -202 62 -202 40 0 -39 146 -111 399 -195 192 -65 228 -86
217 -128 -6 -25 -10 -27 -64 -27 -50 0 -338 47 -497 81 -181 39 -620 241 -758
350 -42 33 -90 67 -106 75 -18 9 -31 25 -34 44 -4 16 -21 48 -39 72 -51 67
-128 238 -140 309 -20 115 7 194 76 225 48 22 238 14 296 -12z m-1601 -606
c337 -372 532 -523 976 -751 285 -147 313 -159 441 -192 94 -25 234 -87 234
-105 0 -65 -753 244 -1052 431 -56 35 -84 47 -91 40 -15 -15 122 -146 223
-213 218 -143 372 -218 675 -330 151 -55 185 -71 174 -83 -3 -2 -68 9 -145 25
-76 15 -143 25 -147 20 -8 -7 24 -27 163 -101 51 -28 57 -43 18 -47 -16 -2
-28 -7 -28 -11 0 -11 113 -66 167 -82 24 -6 50 -20 59 -31 15 -16 16 -21 3
-45 -17 -32 -65 -63 -98 -63 -13 0 -80 18 -150 40 -69 21 -184 55 -255 75
-140 38 -236 80 -278 120 -38 35 -35 49 13 68 29 12 40 21 37 34 -4 21 -36 31
-105 32 -69 1 -185 24 -253 50 -69 26 -167 99 -288 215 -91 87 -119 122 -108
133 3 3 46 -9 95 -26 91 -34 136 -37 136 -11 0 8 -61 61 -134 117 -180 137
-200 158 -260 272 -70 135 -101 221 -111 313 -10 86 -3 178 13 178 6 0 40 -33
76 -72z m2015 -477 c304 -100 469 -138 751 -172 102 -12 132 -25 122 -53 -12
-30 -218 -18 -495 30 -84 15 -155 24 -159 20 -34 -33 228 -109 489 -141 69 -8
147 -22 172 -29 86 -26 123 -66 74 -80 -73 -19 -499 3 -571 30 -60 22 -97 28
-97 15 0 -15 84 -56 193 -93 90 -31 97 -32 365 -41 236 -9 272 -12 270 -26 -2
-8 -17 -23 -35 -33 -47 -28 -286 -41 -648 -35 -260 4 -311 7 -385 25 -113 28
-225 65 -304 101 -247 112 -375 309 -298 458 25 49 43 60 132 84 111 31 174
22 424 -60z m1041 -711 c-9 -10 -31 -24 -48 -30 -18 -7 -57 -23 -87 -35 -37
-16 -91 -27 -165 -34 -118 -11 -179 -27 -168 -43 8 -14 340 -3 431 13 58 10
84 8 69 -7 -3 -4 -70 -30 -148 -58 -78 -28 -144 -57 -147 -65 -7 -22 205 -8
286 18 35 12 68 21 73 21 20 0 7 -30 -26 -58 -82 -72 -257 -152 -585 -267
-201 -71 -304 -123 -417 -213 -148 -118 -143 -116 -203 -103 -110 24 -169 82
-201 196 -25 89 47 267 154 381 52 56 78 74 172 119 148 72 227 91 488 115
214 20 319 35 457 64 74 15 89 12 65 -14z m-1442 -127 c-7 -2 -19 -2 -25 0 -7
3 -2 5 12 5 14 0 19 -2 13 -5z m161 -24 c-7 -12 -41 -12 -48 0 -4 5 0 11 6 14
19 6 49 -4 42 -14z m1526 -219 c0 -15 -104 -83 -227 -148 -123 -63 -167 -100
-156 -128 8 -21 27 -15 200 61 81 36 148 63 150 61 5 -5 -106 -89 -185 -140
-162 -104 17 -79 213 30 28 15 65 40 82 55 25 22 38 26 55 20 33 -12 32 -23
-8 -69 -45 -53 -146 -135 -300 -245 -100 -71 -146 -113 -269 -247 -211 -231
-287 -290 -370 -290 -58 0 -187 30 -223 52 -42 26 -80 91 -93 162 -22 121 39
318 120 388 55 47 187 115 260 134 75 19 288 112 501 219 190 96 250 116 250
85z m214 -381 c-16 -17 -86 -79 -156 -136 -71 -58 -128 -110 -128 -115 0 -26
170 50 246 110 27 21 56 42 64 46 29 17 -71 -80 -134 -129 -68 -53 -90 -80
-81 -95 15 -24 157 62 294 179 47 39 88 71 93 71 20 0 2 -33 -77 -135 -195
-255 -262 -369 -372 -629 -97 -231 -89 -222 -233 -260 l-94 -26 -41 20 c-23
11 -63 41 -89 66 -114 108 -123 249 -25 391 18 27 51 75 73 108 49 72 150 172
306 304 186 156 363 281 379 266 2 -3 -9 -19 -25 -36z m266 -231 c0 -7 -32
-62 -71 -123 -72 -112 -139 -235 -139 -256 0 -19 26 7 130 131 101 120 178
196 188 186 3 -3 -8 -23 -25 -44 -80 -100 -109 -143 -139 -207 -37 -78 -52
-135 -36 -135 6 0 51 48 100 108 91 109 199 218 208 210 2 -3 -29 -74 -71
-159 -83 -170 -116 -262 -140 -395 -32 -178 -45 -222 -76 -248 -57 -48 -166
-46 -268 5 -59 30 -60 31 -72 87 -24 111 -18 144 48 299 89 206 158 322 264
446 51 59 94 107 96 107 2 0 3 -6 3 -12z m418 -240 c-6 -18 -28 -21 -28 -4 0
9 7 16 16 16 9 0 14 -5 12 -12z"/>
<path d="M2603 5072 c9 -81 46 -160 111 -241 66 -81 147 -144 180 -139 40 6
29 36 -36 100 -35 35 -104 123 -152 196 -49 72 -93 132 -99 132 -6 0 -8 -19
-4 -48z"/>
<path d="M3896 3468 c-9 -12 -16 -39 -16 -59 0 -29 7 -43 31 -63 35 -30 49
-25 75 25 24 47 18 77 -18 99 -42 25 -53 25 -72 -2z"/>
<path d="M3736 2788 c-40 -37 -42 -64 -7 -98 38 -39 64 -38 95 3 31 41 42 83
26 102 -19 23 -85 19 -114 -7z"/>
<path d="M3963 2113 c-9 -22 18 -94 40 -107 15 -9 23 -6 43 18 26 29 27 64 2
93 -16 19 -77 16 -85 -4z"/>
<path d="M4374 1575 c-22 -33 -12 -55 25 -55 37 0 65 34 50 62 -14 26 -55 23
-75 -7z"/>
<path d="M4832 1221 c-39 -24 19 -71 71 -57 32 8 27 26 -12 49 -33 19 -40 20
-59 8z"/>
<path d="M4680 261 c-134 -101 -151 -142 -34 -80 69 35 124 85 124 111 0 28
-20 21 -90 -31z"/>
<path d="M1500 3870 c0 -38 177 -197 197 -176 9 8 -31 58 -105 129 -74 70 -92
80 -92 47z"/>
<path d="M2343 4453 c-5 -16 -7 -73 -7 -128 2 -166 34 -228 168 -327 172 -128
199 -108 59 43 -105 114 -134 172 -153 312 -12 85 -27 127 -46 127 -8 0 -17
-12 -21 -27z"/>
<path d="M2471 4341 c-23 -14 7 -77 67 -143 27 -29 52 -37 52 -15 0 6 -15 41
-33 76 -34 68 -63 96 -86 82z"/>
<path d="M2011 3724 c-34 -44 -23 -153 27 -250 74 -145 298 -314 358 -269 16
11 14 15 -27 40 -58 37 -242 221 -264 264 -10 20 -21 74 -25 127 -4 51 -11 98
-15 103 -11 18 -33 12 -54 -15z"/>
<path d="M2211 3529 c29 -57 72 -110 99 -124 39 -20 50 -19 50 4 0 12 -27 42
-70 78 -82 67 -97 75 -79 42z"/>
<path d="M2180 2661 c0 -59 18 -88 105 -169 64 -59 88 -75 141 -92 120 -37
304 -62 304 -41 0 11 -38 29 -183 87 -61 25 -121 54 -132 63 -11 10 -38 28
-60 41 -22 13 -70 53 -107 89 l-68 64 0 -42z"/>
<path d="M2380 2642 c0 -5 22 -24 49 -41 26 -17 56 -40 66 -51 21 -23 67 -26
84 -7 8 11 7 18 -7 30 -47 42 -192 95 -192 69z"/>
<path d="M2536 1591 c-13 -20 68 -91 104 -91 22 0 8 40 -25 69 -35 30 -68 40
-79 22z"/>
<path d="M2450 1518 c0 -65 84 -148 151 -148 64 0 63 37 -2 70 -21 11 -63 40
-94 65 l-55 45 0 -32z"/>
<path d="M2890 1090 c-16 -30 -4 -133 22 -188 20 -43 93 -108 133 -118 24 -6
135 20 175 41 34 18 18 23 -107 28 -148 6 -179 33 -192 173 -8 82 -14 95 -31
64z"/>
<path d="M3037 1014 c-15 -15 -6 -51 17 -73 l23 -22 5 23 c9 49 -20 96 -45 72z"/>
<path d="M3530 553 c0 -25 86 -73 130 -73 33 0 23 28 -18 49 -45 23 -112 37
-112 24z"/>
<path d="M3465 493 c9 -37 54 -102 88 -127 38 -28 156 -29 187 -1 11 10 20 28
18 39 -3 18 -14 22 -78 31 -55 8 -93 21 -142 48 -36 20 -69 37 -73 37 -4 0 -4
-12 0 -27z"/>
<path d="M4135 466 c-11 -8 -16 -20 -12 -29 8 -21 78 -41 112 -33 27 7 27 7 9
28 -15 17 -72 48 -87 48 -2 0 -12 -6 -22 -14z"/>
<path d="M4076 342 c-3 -5 5 -25 17 -43 37 -55 133 -77 178 -40 32 26 19 37
-72 61 -41 10 -84 21 -95 25 -12 4 -24 2 -28 -3z"/>
</g>
</svg>
