<?xml version="1.0" standalone="no"?>
<!DOCTYPE svg PUBLIC "-//W3C//DTD SVG 20010904//EN"
 "http://www.w3.org/TR/2001/REC-SVG-20010904/DTD/svg10.dtd">
<svg version="1.0" xmlns="http://www.w3.org/2000/svg"
 width="1280.000000pt" height="1033.000000pt" viewBox="0 0 1280.000000 1033.000000"
 preserveAspectRatio="xMidYMid meet">
<metadata>
Created by potrace 1.15, written by Peter Selinger 2001-2017
</metadata>
<g transform="translate(0.000000,1033.000000) scale(0.100000,-0.100000)"
fill="#000000" stroke="none">
<path d="M8626 10314 c-130 -20 -221 -47 -402 -119 -88 -36 -239 -90 -335
-120 -530 -169 -1378 -456 -1539 -520 -102 -40 -293 -116 -425 -168 -132 -52
-372 -152 -534 -222 -292 -125 -298 -127 -560 -191 -709 -173 -812 -196 -1028
-230 -753 -116 -1182 -205 -1988 -413 -126 -33 -356 -85 -510 -116 -583 -118
-854 -190 -1130 -297 -131 -52 -160 -68 -163 -91 -1 -6 -4 -26 -8 -43 -9 -45
34 -78 133 -101 68 -16 122 -18 423 -17 190 1 392 6 450 12 58 5 106 8 108 7
2 -2 -27 -13 -65 -25 -103 -34 -192 -77 -200 -95 -33 -88 416 -49 2352 202
l600 78 335 -1 c233 0 429 -7 645 -22 171 -12 351 -24 400 -27 66 -5 120 -16
205 -45 316 -106 534 -94 807 44 40 20 74 36 76 36 1 0 4 -11 5 -25 6 -72 89
-120 236 -137 81 -9 99 -14 108 -31 11 -22 7 -27 -141 -155 -63 -55 -78 -83
-67 -128 9 -35 60 -54 142 -54 37 0 97 -5 133 -10 36 -6 81 -13 99 -16 26 -4
36 -13 56 -53 l25 -48 -37 -35 c-20 -20 -81 -68 -135 -107 -114 -83 -138 -120
-117 -172 9 -22 26 -37 54 -50 52 -22 192 -48 320 -57 l99 -7 20 -53 c23 -62
27 -58 -88 -118 -112 -60 -139 -101 -94 -143 27 -25 84 -40 188 -49 l84 -7 13
-45 c12 -40 11 -46 -5 -65 -51 -55 -66 -136 -33 -171 18 -19 18 -20 -20 -56
-67 -66 -46 -132 51 -158 20 -5 95 -16 166 -25 131 -15 175 -23 175 -32 0 -3
-20 -27 -43 -53 -24 -27 -53 -72 -65 -101 l-22 -52 36 -33 c56 -53 121 -67
287 -62 l138 4 29 -35 29 -35 -78 -81 c-80 -84 -100 -122 -85 -167 4 -13 7
-35 5 -49 -1 -14 7 -36 17 -50 18 -22 30 -24 131 -30 122 -7 161 -22 161 -63
0 -15 -12 -30 -37 -47 -40 -25 -51 -55 -20 -53 23 2 22 -1 -17 -49 -65 -81
-82 -140 -49 -173 14 -14 30 -16 89 -11 96 7 99 4 91 -98 -2 -22 -13 -56 -25
-75 -32 -51 -37 -92 -17 -143 15 -41 15 -48 1 -97 -34 -115 -14 -211 54 -257
29 -20 45 -23 142 -23 119 0 150 -10 187 -56 36 -46 29 -104 -29 -219 -66
-133 -67 -178 -2 -247 61 -66 215 -80 414 -38 64 13 120 21 123 18 4 -3 -14
-33 -39 -65 -53 -68 -113 -208 -122 -285 -10 -86 49 -437 87 -522 13 -28 46
-45 104 -52 38 -6 46 -3 98 40 31 25 63 46 71 46 8 0 24 -12 35 -26 28 -36 27
-97 -4 -259 -37 -194 -33 -279 17 -333 48 -50 96 -15 217 156 l80 113 22 -43
c12 -24 30 -54 39 -68 16 -23 17 -43 9 -245 -4 -121 -13 -274 -20 -340 -8 -85
-9 -182 -2 -335 11 -249 18 -277 72 -272 36 3 137 81 197 153 86 104 193 317
245 488 13 44 27 81 30 81 28 0 13 -245 -27 -454 -46 -241 -50 -476 -11 -646
9 -36 25 -123 37 -195 26 -154 52 -229 86 -252 24 -15 27 -15 52 3 40 29 110
177 169 359 29 88 111 365 182 615 157 552 188 644 219 648 12 2 22 -2 22 -8
0 -31 -44 -182 -70 -240 -42 -94 -53 -195 -40 -365 38 -493 98 -852 169 -1010
32 -71 83 -119 115 -109 80 24 133 98 159 221 10 43 24 182 32 308 18 258 24
313 60 540 14 88 26 176 26 195 1 23 5 12 10 -30 51 -378 66 -449 143 -681 94
-282 185 -468 263 -540 24 -22 53 -39 66 -39 49 0 116 108 117 188 0 24 -7 98
-15 165 -32 267 -46 804 -26 1022 l6 70 80 -124 c44 -68 120 -180 169 -249 49
-69 106 -164 128 -211 59 -131 74 -156 94 -156 50 0 40 250 -27 680 -16 105
-65 390 -108 635 -44 245 -85 490 -90 545 -6 55 -25 242 -41 415 -32 322 -77
713 -86 740 -3 8 -9 90 -15 182 -15 268 -60 490 -124 619 -45 89 -118 362
-157 589 -16 94 -17 441 -1 645 27 347 -42 694 -242 1230 -189 504 -388 860
-691 1235 -182 225 -193 255 -124 321 45 43 105 64 153 54 18 -4 90 -30 162
-57 170 -66 259 -88 380 -95 125 -7 253 9 368 47 72 25 115 31 245 40 189 12
265 20 305 31 l29 8 -4 -87 c-4 -98 -25 -151 -83 -219 -47 -55 -46 -67 8 -60
101 14 333 164 402 262 86 120 160 297 205 485 31 129 35 380 7 452 -10 27
-26 52 -34 57 -14 7 -14 14 2 62 28 82 24 124 -18 204 -105 200 -357 394 -640
494 -230 81 -432 95 -662 47 -398 -84 -788 -121 -1180 -113 -333 7 -436 19
-965 120 -309 59 -472 69 -654 41z m-716 -4895 c0 -6 -14 -27 -31 -47 -17 -20
-37 -49 -44 -66 -8 -17 -30 -47 -49 -65 l-36 -35 0 28 c0 40 15 63 83 134 61
62 77 72 77 51z m120 -474 c-7 -8 -20 -15 -29 -15 -12 0 -10 5 9 20 28 21 39
18 20 -5z m90 -520 c-23 -70 -36 -80 -46 -39 -9 34 1 87 22 118 17 26 17 26
31 6 13 -18 12 -28 -7 -85z m955 -1850 c-32 -26 -85 -49 -85 -37 0 7 97 60
110 61 3 0 -8 -11 -25 -24z m542 -1601 c-3 -3 -12 -4 -19 -1 -8 3 -5 6 6 6 11
1 17 -2 13 -5z"/>
</g>
</svg>
